<mxfile host="Electron" agent="Mozilla/5.0 (Windows NT 10.0; Win64; x64) AppleWebKit/537.36 (KHTML, like Gecko) draw.io/26.2.15 Chrome/134.0.6998.205 Electron/35.2.1 Safari/537.36" version="26.2.15">
  <diagram name="Page-1" id="RDXQtQlN_Wc_GpIz3CLg">
    <mxGraphModel dx="3595" dy="2238" grid="1" gridSize="10" guides="1" tooltips="1" connect="1" arrows="1" fold="1" page="1" pageScale="1" pageWidth="850" pageHeight="1100" math="0" shadow="0">
      <root>
        <mxCell id="0" />
        <mxCell id="1" parent="0" />
        <mxCell id="09jZu6Pr4xPp3Dn8LkD7-8" value="" style="rounded=1;whiteSpace=wrap;html=1;" vertex="1" parent="1">
          <mxGeometry x="-270" y="-80" width="820" height="770" as="geometry" />
        </mxCell>
        <mxCell id="09jZu6Pr4xPp3Dn8LkD7-7" value="" style="rounded=1;whiteSpace=wrap;html=1;" vertex="1" parent="1">
          <mxGeometry x="-970" y="83.44" width="650" height="420" as="geometry" />
        </mxCell>
        <mxCell id="mdWsZaoKRXeDNNDKq_2a-1" value="Teensy 4.1" style="rounded=0;whiteSpace=wrap;html=1;" parent="1" vertex="1">
          <mxGeometry x="-240" y="70" width="440" height="370" as="geometry" />
        </mxCell>
        <mxCell id="mdWsZaoKRXeDNNDKq_2a-3" value="CAN Tranciever&lt;div&gt;(Sn65hvd230)&lt;/div&gt;" style="rounded=0;whiteSpace=wrap;html=1;" parent="1" vertex="1">
          <mxGeometry x="-130" y="480" width="95" height="44" as="geometry" />
        </mxCell>
        <mxCell id="mdWsZaoKRXeDNNDKq_2a-5" value="CAN Tranciever&lt;div&gt;(Sn65hvd230)&lt;/div&gt;" style="rounded=0;whiteSpace=wrap;html=1;" parent="1" vertex="1">
          <mxGeometry x="-240" y="480" width="100" height="42.75" as="geometry" />
        </mxCell>
        <mxCell id="mdWsZaoKRXeDNNDKq_2a-6" value="&lt;font style=&quot;font-size: 14px;&quot;&gt;Telemetry&lt;br&gt;(ESP)&lt;/font&gt;" style="rounded=1;whiteSpace=wrap;html=1;" parent="1" vertex="1">
          <mxGeometry x="-230" y="-250" width="135" height="120" as="geometry" />
        </mxCell>
        <mxCell id="mdWsZaoKRXeDNNDKq_2a-7" value="Pneumatic&lt;br&gt;(STM)" style="rounded=1;whiteSpace=wrap;html=1;" parent="1" vertex="1">
          <mxGeometry x="-80" y="-250" width="137.5" height="120" as="geometry" />
        </mxCell>
        <mxCell id="mdWsZaoKRXeDNNDKq_2a-8" value="BSPD" style="rounded=1;whiteSpace=wrap;html=1;" parent="1" vertex="1">
          <mxGeometry x="-476" y="-240" width="170" height="110" as="geometry" />
        </mxCell>
        <mxCell id="mdWsZaoKRXeDNNDKq_2a-10" value="Wheelspeed Module&lt;div&gt;ESP32&lt;/div&gt;" style="rounded=0;whiteSpace=wrap;html=1;" parent="1" vertex="1">
          <mxGeometry x="-762.5" y="259.38" width="110" height="68.12" as="geometry" />
        </mxCell>
        <mxCell id="mdWsZaoKRXeDNNDKq_2a-11" value="CAN Tranciever&lt;div&gt;(Sn65hvd230)&lt;/div&gt;" style="rounded=0;whiteSpace=wrap;html=1;" parent="1" vertex="1">
          <mxGeometry x="-762.5" y="179.38" width="115" height="70" as="geometry" />
        </mxCell>
        <mxCell id="mdWsZaoKRXeDNNDKq_2a-12" value="Switch Hybrid" style="rounded=0;whiteSpace=wrap;html=1;" parent="1" vertex="1">
          <mxGeometry x="260" y="192.5" width="120" height="135" as="geometry" />
        </mxCell>
        <mxCell id="mdWsZaoKRXeDNNDKq_2a-15" value="Temperature Ambient Battery Sensor" style="rounded=1;whiteSpace=wrap;html=1;" parent="1" vertex="1">
          <mxGeometry x="260" y="-30" width="120" height="60" as="geometry" />
        </mxCell>
        <mxCell id="mdWsZaoKRXeDNNDKq_2a-16" value="ESC" style="rounded=1;whiteSpace=wrap;html=1;" parent="1" vertex="1">
          <mxGeometry x="-930" y="184.38" width="120" height="60" as="geometry" />
        </mxCell>
        <mxCell id="mdWsZaoKRXeDNNDKq_2a-18" value="Brake Light Module" style="rounded=0;whiteSpace=wrap;html=1;" parent="1" vertex="1">
          <mxGeometry x="-25" y="482.75" width="115" height="37.25" as="geometry" />
        </mxCell>
        <mxCell id="mdWsZaoKRXeDNNDKq_2a-20" value="Brake Light" style="rounded=1;whiteSpace=wrap;html=1;" parent="1" vertex="1">
          <mxGeometry x="-7.5" y="596.47" width="80" height="38.5" as="geometry" />
        </mxCell>
        <mxCell id="mdWsZaoKRXeDNNDKq_2a-22" value="Dashboard Kiri" style="rounded=1;whiteSpace=wrap;html=1;" parent="1" vertex="1">
          <mxGeometry x="440" y="288.75" width="80" height="43.75" as="geometry" />
        </mxCell>
        <mxCell id="mdWsZaoKRXeDNNDKq_2a-23" value="STM32H7" style="rounded=0;whiteSpace=wrap;html=1;" parent="1" vertex="1">
          <mxGeometry x="-600" y="189.38" width="240" height="142.5" as="geometry" />
        </mxCell>
        <mxCell id="mdWsZaoKRXeDNNDKq_2a-24" value="" style="shape=image;verticalLabelPosition=bottom;labelBackgroundColor=default;verticalAlign=top;aspect=fixed;imageAspect=0;image=data:image/jpeg,/9j/4AAQSkZJRgABAQEAYABgAAD/2wBDAAMCAgICAgMCAgIDAwMDBAYEBAQEBAgGBgUGCQgKCgkICQkKDA8MCgsOCwkJDRENDg8QEBEQCgwSExIQEw8QEBD/2wBDAQMDAwQDBAgEBAgQCwkLEBAQEBAQEBAQEBAQEBAQEBAQEBAQEBAQEBAQEBAQEBAQEBAQEBAQEBAQEBAQEBAQEBD/wAARCAJjBQADASIAAhEBAxEB/8QAHwAAAQUBAQEBAQEAAAAAAAAAAAECAwQFBgcICQoL/8QAtRAAAgEDAwIEAwUFBAQAAAF9AQIDAAQRBRIhMUEGE1FhByJxFDKBkaEII0KxwRVS0fAkM2JyggkKFhcYGRolJicoKSo0NTY3ODk6Q0RFRkdISUpTVFVWV1hZWmNkZWZnaGlqc3R1dnd4eXqDhIWGh4iJipKTlJWWl5iZmqKjpKWmp6ipqrKztLW2t7i5usLDxMXGx8jJytLT1NXW19jZ2uHi4+Tl5ufo6erx8vP09fb3+Pn6/8QAHwEAAwEBAQEBAQEBAQAAAAAAAAECAwQFBgcICQoL/8QAtREAAgECBAQDBAcFBAQAAQJ3AAECAxEEBSExBhJBUQdhcRMiMoEIFEKRobHBCSMzUvAVYnLRChYkNOEl8RcYGRomJygpKjU2Nzg5OkNERUZHSElKU1RVVldYWVpjZGVmZ2hpanN0dXZ3eHl6goOEhYaHiImKkpOUlZaXmJmaoqOkpaanqKmqsrO0tba3uLm6wsPExcbHyMnK0tPU1dbX2Nna4uPk5ebn6Onq8vP09fb3+Pn6/9oADAMBAAIRAxEAPwD3iiilxX0B44lLjtg0oXNKKYwAFLjpSgUuPSgAC+9KB69qBS0CCilC+tKBikAAYNLQBTgMUwADj3oFGD+NKAaQAMZp1FO20AIBTqKcBxzQAgApaKUCgAAp1AFLigBMU7AoAxS4oAKXnqKUDilAoGAB9KcPpRTgBQAgFOopQKBCAU6gDFKBQAuDS0UoBoGkAFKBiilwaBhinUAYpQKBgBTqQCnAGkJgBmlpaUDNMQlOxijFFAwpwHvQB60tAwAxSge1AFOpAFFKBSgelAgHSloC5FOAxQAgGKXvQKUCmAopaMUoHtQAgFOAoHSilcYUUoGaUCkAgFOAxRilwaYCU4DFGKXBoAKAM0oApcUrgJt96WlAzRigAoAp2KKAEAxS0UUAFFLgUuKAG4pcU6igBuDQB606igAooopAFFFGCKACigDNGKACijB9KMcZpgFFFHvQAmKKWikA0j2oxTqSmAmKKdSYoAbRTsU2gBMUbaXB9KKAG4NJTyM03BosAmKQinYNFGwDMUmKfim4PWjcBpHGaSn03FP1AbgUlOIoNADKQj3pxFJS2AQjvSU6m9TTTuAlJginUh5oEN9jTSPSnlaQjimAzmginYz+FIQe9IBlIRTiPSkoGMpCPankUhFMBhFIafTcYoAaRSU7ApCKBNDcetNNPppGKBDSD6U2nketJjNLYYwjPakpxFJtpjIzQRmnEZpCOKBWG49qaafSEUEjCBSU6kI70ANPSm0+kIoGRkAUlPxSEUAR4op1IRQIYRzSGn00jmgBpAptPppFACU2nUEZoAYRTaeRikxQAzGaQ07BHWkIoAafpTSMU6gjNMBhpCKdg0YoAZQRmlIGaSkBBilC56mlAHfFKMelMAAFKBTgoowO1AwApaKKBBSgGlApaQCUoFKBzzS4wKYABSgZowfSlApAAGKUCgDPenAYoAAKWgDNOwKAADFFLSgfnQAAUuMUUoFAABmnUmKUCgAAzThQBilFAAB9KcKAOwFOA9qBgBS0UoHFAhAKdQBTsUAAHelopQM0DSDBpQMUdKcADQUJTgMUUox1oAKUfWjinAd6BNgFp1FKAKBCAHrTqKUCgYlOFAFKKBgKcBQMUtABQBmlxSgelAgpQKXHvS/WkAUAHqKcBxS0AJilpQM0oHrRsMAOKKKWle4CUuKUD1pRTsADgUuDSgetLRcBAPWloApwGKTAbinUUoFMBKUA0uBS0gACil47UCgBKUA0oxS0AJjmj8KWigBMUtFKV9KAEopdopcYpANwaXFLilpgNxzS4HpS4JpdvrQA2inbaMCgBuKKdt96NtADaKdijaKAG0Yp22jbQAzFGO+KdijBoAbtpKdRgUgG0U6kxQAlJjmnYxmkoATHvRj3paKdwG/Wkp2BSY9KAEpCKXFFADSKSn0hFADCM0hFPNJigBlJin4pKYhlIRT8U3FAxtJT6aRzSsAlNIxTqKLgNpCKcR6UlMBnSkPNPIB7U09cUxDcU0inmkIpWAZjFIelP600jBpgNxSU6kx7UDGH1pKfSEelADccYptOoIoFYYRmm08jFIaBbDCPem1IRimkClsNMZimketSEU0imMZj3pMU+mlfSgQ09OlIRTqTAoJGHpSU8jFIQDQAwjPIppGKfjFIRmgdxhFNxUhFNIoAjx2opx4pCPSgBpFNp9JigQw/Sm08ikI70ANNJjmnUlADcU0inkUhFADKaRTyMd6QjNADMUhFOIpMZpgNxTcZp5HpSGgCLbQOM5pwooGFFLg0YpCLNjC0sjBOoGaufY5gOg/OotJH718f3f61qDPesp7msbWKAs5uwH50v2Ob0H51fA96cBUDsWILSbyY+B90d/apBaS+g/OrUA/cx/7o/lUlYt6mxS+ySjsPzqa2heMsXA5FT0tG4WMy6/4+H+v9KYI5Dz5bEfSpbkfv3/D+VeF+I/FPx4tvEGp2+jaxFHp8V3MlqphtDtiDkIMsmemOvNW5cqRCjdnuPlyf882/Kjy5P+ebflXz43jH9opFLnXIsAZP7iz/APiKxE+MXxrcAjxOgz2NpaA/+i6h1kt0Wqbex9P+VJ/zzb8qURSD+BvyrwDw745+O99qdjJd60stg08bXGLa1GYdw3dEz93PTmvf9I8TaZM7Nd+cUK8DyiOfwpfWI2uHsmOEcn/PNvypdj/3G/KtVda8OsM4lH/bN6il13w6g4kkH/bJ6X1iI/YyM/Y/9xvypfLk/uN+VeW/FTxh8RoLyxPw91Ix2/lP9pzbRHL5G3/WqT0z0rlLL4sfFO1tVg1W+klu1Y73WC1Ax24wO3tQ8RFB7Fs9/Ebj+BvypfLk/uN+VeIWPxM+KWoo8ls85VH2HdFarzgHuPerP/CefFv+9J/3xaf4U1Xv0D2dup7OI3/uH8qXy3/uN+VeA3fxn+INjdSWdzdzJLEQGHkWuOmeDjmnf8LY+KWq6fKui3si3JYCORobXA9eCPT2qfrKW6H7FnvnluD9w/lTvLf+435Vzvg7xbdz6Jpw8RyTPqCwJ9sYQgBpMfNjYMdfSuqXxDoZGf3y/WJ/8Kp149yfZSK/lv8A3G/KlEb/ANw/lT5fEmhIM/aJB/2yf/CuM+JHi3XB4ambwDqBTVRJGUJgU/Jn5v8AWKV6Ue3iHsWdjsf+6fypdj/3D+VfM1x8Svj/AGjBbjxAqE9AbS0/+N0tl8Sfj/f3H2W28QIz7C/NraAYBA67PcUliE9h+yaPpny3/uH8qXY/9xvyr51/4S/9o/8A6DkX/fiy/wDiKz9U+Jnx90Z4k1DxFHGZQSuLWzI4+ie9U61t0Hs79T6b8t/7jflSiN/7p/Kvl21+LPx0vZPKt/E0btjOPslp/wDG69c+FnjTxfLpVx/wsG9ee8a5/cMlvGAIto/55qB1z15qVXi3qDpNHo/lv/cb8qURv/cb8qnj8TeHJADtnGfWN6c3iHw4AT5kg/7ZP/hS+sxD2DK4jcfwn8qXY/8AdP5Vn6z4q06O2nOnXjrL5LeV+4Y/Pg46jHXFeA2nxJ+OWm3DS67qpkt1UjattaA7ux+4KbxEUrgqTPo7y3/uN+VOEb/3D+VfPafGP4kvJHFHdTs0jrGoEFr1JwM8cfWtUePPjCf45P8Aviz/AMKFXvshulbqe4bH/uN+VL5bf3W/KvBtQ+JnxY0u0a9vJ5UiQgEiK0J5OBwBWdbfHTx486I1/M4Y42iC15/Sk8RbdAqV+p9F7H/un8qNj/3T+VeEeDviD8Xrnxdbz+INTL6B5khmiFvbbthVtgyi7vvbeh7V7dZ+LtFliBlFxu75han9Yja5LpO9i0EbH3T+VLsb+6fypp8S6FjIllX6wv8A4VUuPF2iRcLduD/1wf8Awo+sRH7Jl7Y/90/lQEf+6fyrwHxz48+NVv4mvz4X1nZo5kzag2lscJgdS6buuetcs3xa+PCZz4lTK5yBaWmf/RdH1iIeyZ9UhGH8J/KjY390/lXzTaeN/wBo28t47q316IxyDcubeyB/EbOKlPjD9pNQSddhwOf9RZf/ABFV7XyF7PzPpHY/90/lRsf+6fyr5PPxq+N4ZkbxSgZSQQbO07f9s60rP4k/tCXwQ23iFGD4IP2Sz6f9+6h14j9kz6g8s/3T+VOCH0P5Vl6R410aeAG8FyXwoP7kjnHPStQeJ/DjDrMPrE9P6xFAqTYu1v7p/KgK390/lUU3irw9GpPnyjH/AExf/CvJfi145+IcV1YP8NtVMduI3F2Gtojl8jb/AK1CemelH1iIeyZ7Btb+6fyo2P8A3T+VfN8Hxj+KlrbxQajqErXKr+8YW9qAT/3zV/Tfir8V9WaVbK4mYw7d26G0XrnGMjnoaX1hPRIbpNdT6C2N6H8qXa390/lXhX/Cd/Gb/npJ/wB8Wf8AhWPqfxn+Jej3f2K/vZo5dgfHkWhGD05A9qbrW3QlTv1Po3a390/lRtb+6fyr5rm+MfxY1SyKaHqciXHmD941vaEY7jBU/wAq9V+HPj7Vm8OWcfjmaebVw0huJEgQKy7zt/1YC/dx0FJV4vcHSaO/2N/dP5Uuxj/CfyqvH4s0CQZDTj6wtTZfFmhRjJuZB/2xf/Cj28Q9ky5tb+6fyo2t/dP5V5/8R/HOsf8ACNTr4A1Fo9YEiGNmt1I2A/MP3ilentXi1x8Uv2g7TH2jxEqZ4GbOz/8AjdDrxBUmfVO1v7p/KjY3oa+VrP4p/tA391HZ2viNHklyF/0SzA4GeT5fHANan/CW/tMf9B2H/vxZf/EU1VT2QezsfS2w+h/Kl2n0NfLOsfEn9ofQoY59S8RxxpK+xSLWzbnGe0dULf4zfHS6lWGHxTGzt0H2O0/+N0OslugVK+x9a7W/un8qXa3901418J/iF4+L6g/xJv5LqJhELLy7aEbW+bfny1H+z1r1qDxn4blRd32gNgZzE1H1iNg9ky3tb+6aXYfQ/lUB8V+HSOJpR/2xf/Cqd5400K3wRcy/QQP/AIUfWIsbpNGlsPoaXa3oa+abj4n/ABvsdauJbjV2fTFllKILW1B8vJ2clAfTqaV/jd8SlUv9unIHOBb2pP8AKp+sIPZM+lsN/dNIVb+6a8G/4Tv41f8APV/++LP/AAqG8+I3xjsbWW8uZ5FihUu5EdmSAPYCn7XyF7PzPoDa3dT+VG1vQ/lXzJH8fPH5Zc6nMRkZH2e1/wAK2fB/xM+LF34ztZ9d1N38PGRzNCLa23bNjbeUXd97b0NJYiPUfsmfQW1v7ppNrZ6H8qybTx3oMqDzPtIJPeFqtnxboBGRNMPrC/8AhT9vHuL2TLYDf3TS7W/umsuXxloSDIu5AP8Arg/+FeM/E74h/FeLxK7eAtWaHR/JTaGtYCfM/iP7xC3pR7eIeyZ7ztb0I/Cja390/lXyefi98elYqfE6Ag4P+iWf/wAbrR0/x7+0hqdpHe2mvRmKTIUtbWSngkHgp6g0KsnsHsrbn1Btb0NJtb0NfNH/AAlv7TH/AEHIf+/Fl/8AEVgTfGn45288lvL4qRZImKMPsdp1Bwf+WdN1Ut0Hs7n1sVP9080m1j/Cfyr5Vsvin+0DqCq1p4jRwxwP9Es//jdfQPhDx5C2i2EfiWSeXUUtIxeOsGA0+0byNoAxuz04pKvEfsmdRtb+6fyo2t/dP5VEvi7w24yGnH1iekk8VaAq7hNKP+2L/wCFH1mIexZNtb+6aCp9DXlfxa8e+LY9Nsm+G2pNDdCZvtRa2jOY9vH+tUjr6V55bfGH4t2VssOranI9zkkstvaAEZ4/hH8qHiIoSpNn0sUPZTSbW/umvnrTPit8WNXeZLG4mcwBS+YbRR82cYJHPQ1f/wCE6+NH/PV/++LP/ChVr6pB7O3U922t/dP5UbW/un8q+ctV+MvxO0W5FpqF7NHIVD4EFoRg+4FVn+NPxS1Gzlh0jU5Fusrska3tMKM88Ff6UnXS3Q1Rb6n0ttb+6fyppR/7p/KvMvhR4+8Uvo86/Ee7luL43ZMLx28YHkbFwP3Sgfe39ea9ETxfoDjO6cfWFqft49xeyZZ2sP4T+VJtb+6fyqtJ4t0BeftMg+sL/wCFc54v8aufDuop4V1Fo9W8g/ZGa3yBJ2++pX8xR7eIeyZ1mxv7p/Kja390/lXy1c/E79oS0GbjxAEHTmzs/wD43UMXxZ+Pk88VtF4kVnmYIuLO0xknAyfL45NCroPZM+q9rf3T+VJ5bf3TXzZ/wl37S3X+3Yf+/Fl/8RVTVPiF+0Vo9o17f+II0iUhSRbWbHJ6cBKr2ttbC9n5n07sb+6fypNrf3T+VfKEHxm+OdzII4fFUZZug+x2n/xuvQfhh8QPik+tTT/EDVGudL+zMsaJbQA+cWXaf3ag/dD+3NJYiI/ZM9u2vj7p/KkKNj7p/Kq1n4z8PSwqZRcb+5MTf0q0fEvh5hlXl/79PR9YiHsWMKMOMH8qQo390/lVa/8AFmhW6blnlGP+mL/4V89XnxG+OtprU0j6sTpy3DlEFraZMW47Rkpnpjqc0nXja4eyZ9G7H/un8qNjf3T+VfOx+NPxH5K3kxxzgQWpP8q1IPiH8X7qCO5ikkKSoHUmO0HBGRxihV09kDpW6nuu1v7p/Kgq390/lXhknj/4wRo0jvIFQFj8ln0H4VgJ8ePHj4I1Cb6G3tf8KbxCW6BUr9T6Q2P/AHT+VGx/7p/Kvn3TPiT8Y9T8S2E8WpsuitcQtcRNbWpYw7h5nIXdyuehzXuNh420aYHzlueen7k8flQsRFoHSaNAo390/lTdj/3D+VH/AAk+gt/y1mH1hf8AwqGfxNo6oWW4kH/bF/8ACj28ReyZNsf+6fypDG39xvyryD4reO/iNFqNn/wrrU2itBCwud1tCcybuP8AWqT09K87k+Kvx6icxv4kQMvUfZLT/wCN0PERvYapM+otj/3G/KkKN3Q/lXzTp/xA/aI1SJ5rTX0KI5jJa1s15AB7p05FWT4u/aRH/Mdh/wC/Fl/8RTVW/QXs/M+jPLf+4fypNj/3T+VfLd58XPjnY3UlldeJkSWI7WH2S06/Xy+ams/id8fdQG608RI/OP8Aj1tOv/ful9Yitx+ybPp3Y/8AdP5UhjbH3G/KsDwh4yLaNpv/AAkzzSX4tYxeEQgBptg3EbQB97PTiunTxL4bkGR5w+sb0PERQexbK3lv/cb8qPLfP3G/KrMniHw8Puyyf9+n/wAK4D4oeL/EFv4ff/hAr9k1Pz02k26kCPJ3f6xSvp70LERYvYtHaGN/7rflRsf+435V89WnxW+Lmn23la5fySXLOSrLBagbcDj7o75q3ZfFf4nahcm1tZp2cRmT/U2oGAQOuMZ5HFJYhPZFeyt1PeDG/wDdY/hSeW/9xvyrxf8A4T34vf3pP++LT/Cs7VPi18StHkjjv7iaMyglcRWpGB9BVOtbVoSpX6nvOx/7p/KmmN/7h/Kvn8fGP4kahbT2+mX0ou2X905gtcKfU8f0rvvhh4z8Xto0x+IN3JPfPdMYWSCMAQ7Vx/q1A+9u96SxEWDos9B8t/7jflR5b/3G/Knx+KdBkBIFwD7xNUp17RjnEsg/7ZP/AIU/bxF7JorGN/7jflSbH/uN+VUNc8T28Vjdf2bduLnyH8n9wf8AWYO3qMdcda+fbr4g/tCWalrjXVQDqTa2n/xFDxEUCpM+kPLf+435Uhjk/uN+VfMy/FL48vJHEniJWaWRY1xaWnUnAz+74Ge9af8Awl/7R3/Qdh/78Wf/AMRQq19kDp23PoUo68lSPqKlsxiY/wC7/UV458OPEHxk1HxTBbeMtUjn0xopDIgitlJYL8vMahuvvXslkMyn/d/qK0UuaNybWZbIpuDT8UlQWMKkmoLxD5DZ9qtVDd/6hvwprclsytvp2puDUxAppFamZHg1kagP9Kf8P5Vs1kah/wAfb/h/IVcNyZ7FQgim7akPIptamQykI9KeRmmnigBuKSnECkIxQBDSgc80uKWgAopcelLgUwLukj96/wDu/wBa1cVmaSD5z/7tauOaxnuaw2BR2NLij3Pasq7v5JHKQsVQcZHepSuU3ynVQ/6lP90fyqSsmxuZY4YssWGxcg89q1gcgEd+lYuNmaRaaDGacBQBiikNszbr/j4f/PavL9Y/5Ct5/wBd5P8A0I16hdAmd/r/AErzDV/+Qtef9fEn/oRq3siVqyhN/qX/AN0/yrxdgyzHgj5q9pmB8mT/AHT/ACrxViRMRk9e9ctfob0+p0+meK9SsYEhgdQFAUcn/Gum0jxzrbkhpl4HHJ/xrg7fleg/Kuo0/H2eM7R90dvauaxrc6weNtZxj7QBn3P+NV5fGWsscG5/8eP+NZQAx90flUTY3fdH5UWC4y78UarNkS3J9xk1g3Vw00jSvJlm6nNampBdqnavX0rJlx/dH5UWA7XwW+7SW+bOJSP0Fb9YPgz/AJBLcAfvT0GOwrertp/Cjmn8TPJ/Gqn/AISO6IB6r/6CKZo2s3Wmpsh28ndznrT/ABrlfEl2QT1Xv/sis+1PAyAePSuSfxM3jsjtLPx7rifKk6gemT/jWpH4+10rzcj/AL6P+NcVa4z91fyrUixt+6v5VNirm5P441phzcD8z/jVSTxdqzjP2rB9if8AGs2bGPur+VRMBt+6PyosA2/1Ge9bzLibcwzgk1r+BX3alMu/I8knr7isGQLgnav5VveBsDU5RtH+pPb/AGhV0/iRMtjuMVwfxRXIscDOA/8ASu97cVwfxRHFiwJGN/f6V0VfgZlD4jj9Jvp7CczR43Yx81dXZeN9ai2qkqgD0J/xrjbViW55rf0oLtJ2rnOOlchuju4fGusYH79fzP8AjT5PGWrlf+Pgfmf8awIcYHyr+VSvjH3V/KkFyW+8XawXH+kkLjsT1/OsLUNYu7xSlxcbgfU1osqlGyq9D2rElA/ur+VNAP0WT/ic2fz9Z0HX/aFeq15VouP7Ys/lXmdO3+0K9Vroo7GVTcwfHC7vDV0MZ+6f/HhXkdu7wzJIvVGDDNeveNgT4avMEjgdPqK8fjY7sZqa3xFU9jrbHxhqluoEciL+J/xrbtfH2uYA+0Lx/tN/jXFQYI5UflWpahcfdX8qxsXc6w+O9cI/4+R+Z/xqnN4z1iRsNcj8z/jWXhcfdH5VA+N/3V/KiwXLt14k1KZSr3RKkdNxrEkly+4vyTnrVqUD+6v5VVYLn7q/lQB6l4dIOiWZHeMVoSDMb/7pql4fQDRLMAYzCp/Pmr7j5GHsa7Y/Cjne54Heqy303BHzn+dbul+JdQsY0jgZQEAAOT/jWHqGU1G4UE8St/OrFueBkD8q4zc7vSfG+tNuzOMjGOT/AI1sJ401gj/Xj8z/AI1ylqF4+UflWgmMYwPyqVYdzWn8X6uwwbnr7n/GsGfxRqsgIa6IB68mpZAP7o/KqGohcp8o6elAXM67unnkMkkmWPU5rs/hu263vDuzyg/9CriZQMn5V/Ku4+HIH2S7YKAS6jgex/xrWn8SIn8J2HGcV5J8T1f/AISIHB/1K4/WvXK8i+JzP/wkvJ6QoB9Oa1q/CRT3MjR9XutN4hK8nPOa6W18c61GQFnUfif8a461bJ5AP4VpwYz91fyrmsbXO0h8e66AP9JH/fR/xon8ca3IDuuR/wB9H/GuehA4+UflUkgGCNo/KiwF9/FmquMm6wf94/41k6jqlzfEG5nLkdCTRhcH5V/Kq02M/dX8qLAa/gZyfEduu7gh+M/7DV6jXl/gUA+IoPlXhXOcf7Jr1Gumj8JjU3OH+K4zoltxn/SP/ZTXmmn3UtlcJcR8MmcZr0v4sf8AIFteSMXHb/dNeYQMeM81nV+IuGx2Fr411iNQElXj0J/xrpLTxnrHlqTMAcDPJ/xriNKwdx2rnA7Vu2+MfdX8qxaLTZ0h8Y6uR/x8j8z/AI1maj4w1hmUfajznPzH/GocLj7q/lVdgpb7q/lS0C5QvtavLpWSafcG4PNZkcu2ZCHxz61LeyxQ7i+0cnAx1rNXUlE6bIF+93qgPex0rL8UD/indRGP+Xd/5VchvI5MK3yk/kap+KRnw7qI/wCnd/5V3SVkc6dzwhNyyE4IGa6nT/F2p2yhInRRj1P+Ncp5hj3seQoJqIXL3BywGB0GK4ToR6La/EHVmcKt5GT2w5/xrSHjvXGXBuR/30f8a83tMZ+6v5VtWdwVYLJgqeORnFFgudNceNNYPW6x/wACP+NULrxLqU4O+6JzwfmNU5gv91fyqGXaFJ2qAB6UWQXKk0u9i7PySSea9V8GMW8NWZJzw/8A6G1ePz6hCpISMN74wK9U8EaireGrLfHtBD9P99q2oq8tDOo7I6avAvEKsNdvSFP+vf8A9CNe+I6uoZDkGvBPEeU169AJ/wBe/wDOqrbIVMu6R4hvtNjEVuygD1J/xrptN8bayX2+auNuep/xriLc88gflXR2ePLj+UfdHauexqdfF4y1cgD7QPzP+NLL4x1jH/H3j/gR/wAaxIQP7o/KnSAbfur+VSO5Xn8U6rKpWS5PuMmsS9vJLmTfLJkjvmtG+C7F+RevpWVMBuI2j8qpWEdn8NH3LqA3ZwY+/wDvV29cP8NUG6/faAVEY4Hrn/Cu5IxXVS+ExnueUfFVP+J3EwB/1K/zNc3pWpT6e5aPblsZ3Zrp/iuMaxbsCeYR/OuPt2JIyAawn8TNI7HYWvjjWYVxHMq/Qn/GtS38e66V/wCPkf8AfR/xrjYgMZ2j8q0rfG0fKv5VFkVc6V/G2tOObgfmf8aoS+LdVdjm5wfqf8aotjb90flVdlXcflH5UWQXHalq11ertuJ949zR4ZcNr9mu7IMynr6Gqs4H91fyq94VQN4hs12j/WZ6enP9KqO4nserY471ynxJ3f8ACNsqnIaVciusrk/iWv8AxTTkHGJVPFdM/hZhH4jyiwnltJlmTqp4z0rq7Txpq6BVWZcDpyf8a5C3duQea29KwZeVX7vpXJY6DttP8aayYl3TKDj1P+NXx401nH/HyB+J/wAa5i2Az90flV1cY+6PypJILlvU/GGsmMf6UfvY+8f8awbzXr+5UrNcE59SavSAFvuj8qxJwMt8o6ntTsgKZlw64fv6165pY/4ldmev7iP/ANBFeRnAYHavX0r1/TlC6daoBgCFBj/gIrejuZ1Au/8Aj1mH/TNv5V4NhhO3BAzXvd4AbSf/AK5t/I14IGYTEZPXvRW6BTOk0vxXqdlGsMMiqqLtHJ6fnW1b+PNbXAWdfzP+NcdbHnBUH8K0IcAj5R+VYWNDsY/HWtOPmuB/30f8aZP431sqR9rxn/aP+NYcIUrnav5UTBQp+VfyosBZuPE+pzgmS6J/E1h3Nw00rSu/LdeassF2n5V/KqjgEnKj8qLAd74FYvorEnOJ2H/jq10WK57wKB/YrEKBmdun+6tdDXZD4UYS3PHvG6n/AISW8IB++P5Cm6Prl5pa7LZlHOcnOad42JHiW9wT98fyFZ0ByRkD8q5Zbs2jsdtYeOdbaRQ0y457t/jW9B411jH/AB8Afif8a4+0AFvHhR90dq1LcDj5R+VQ0O50D+MdXYc3I/M/41z934t1iSR1a6ONx/iP+NTkDH3V/Ks2+CmM5RevpQBm6hfS3TBppdxHTmtnwG+7Up13ZHkE9f8AaWsCcLn7q/lW/wCAz/xM5wFA/cHt/tLWlP4kTLY7jvXAfE5SWs8DOFb+Yr0CuA+KAIayIJ+63f3FdFX4GZQ3OT0m/n06Tz4iA2Mc5rqbPxzrMYAWZB+J/wAa463Ylea0rfB6qv5VyG52Fv491zP+vUfif8auf8J1rhH/AB94/wCBH/GuStgM42j8qvALj7o/KiyC5o3XjTWZDzd5z/tH/GsjUdZu71Ck8+4H3pk+A33V/Kq02OPlH5UWAfo0n/E4swH6zoOv+0K9LrzXR8DV7MhV5nQdP9oV6VXVQ2ZjUNrwh/yG4/8Acf8AlXotmMzH/d/qK868If8AIbj/ANx/5V6NZD96f93+orp+yY7Mt00jFPI70lZ+hYyobv8A1DfUVLM4iQv6Vj6jPK1sx8w9R0+tXFczJnJJD8UhFUrG8kdxDKdxOcGr3WtWrGadxhHNY+oD/S3/AA/kK2iKxtQ/4+3/AA/lVQ3JnsVaSnGkrUyGkU3FPpCKAGEe9IRT8U0igCEDNOAxRRTAKXFKBmlpAXtI/wBc/wDu/wBa1ax9NcpcgZ4YYrYrKe5rF6CEZBHrWHNE0MrRt1BreApktvDN/rYw3v3pRlyg48wWikwRBRklF/lWl9qSACLBYoMHHrT7W3hihjKIB8o9+1VbiCRJGO0kE5BHNZt8zLSsi9DMky7l6jqPSn1WsomjVmYEbuxq1UPRlpdxzxRNbszQgttJ3YryvUtA1ebU7qaKxkZHmdlII5BJ969wgsUfRGm28+VIc/TNcbiooq/MVUdrWPNp/DmueTJjTZSdp4BHp9a8m/4Vx42llJTw/cEE5zuT/GvqF/ut9DWTZdRSrwTsOlLc8Jtvhl46IwPDtwTj+8v+NdLYfDfxsIIl/wCEfuMlRj5k/wAa9xtOOe4roLMtsj3EcqpHP51yuKNkz5/Hw28cYGPD1xnBONydPzqP/hWfjp3G3w5cEHodyc/rX0pyNuG6grn06c/59aeqFohg5OcDn+HIz9eKOULny7qHwu8fPGjL4auTnnG5PT61kzfC3x+v3vDNyP8AgSf419a3GdpBB4bjNZV50amooLngnhjwf4ksdOMF1pMscgkJKkr7e9bA8N65n/kHSfmP8a9GH+sk/wB6ngV204rlRyzk+ZnzX4u8BeL73X7ma10OeRGIwQy/3R71WtPhj48IGPDdz0/vJ/jX0FcDOoS/7w/kK2bHotcsoLmZ0ReiPnq2+F3j7P8AyLNz/wB9J/jWnF8L/H23/kWrn/vpP8a+jbUcVoxdqjkRVz5hPws8fykbfDVyQTjO5P8A4qmN8K/HYyp8O3IwRzlCMc89favqiJVXAAwM5/WoSvmFwWG3PzDOTgZ6fX1ocUFz5Ym+E/jxVJPh+4BzgDK8jjkc+9XvCfgPxdpuoyvfaJPEDEQCSvJyPQ19JygbAG5OevXuKw7gf6V+BqqcfeRM5aHmv/CN65/0DpPzH+Ncd8QfA/ifUxZx2ulSsV3k4K+3vXvYFZerf8fMBz/C39K6a0fcZlTk+bU+brT4V+ONx/4kNweOMFf8a3NL+GHj0Ic+Grn7395PT6175Y/Suh037n41ycpvex8/w/DTx1gf8U5c/wDfSf41LL8NPHQHHhy5P/Ak64z619IxVNzuwrDOOAT3wOf/AK1LlQXPmM/DDx7sP/FN3PORncnHH1/CsVvhZ8QXUsPC9zjP95P/AIqvrRwVDBeTtyAfXJyf1FUm+6/++f50cqDmsfMGmfCfxxE0eoS6LPEYJQ207TnBz613X/CMa9/0DZPzH+NeuSkC1kDDOT6Vn104eO5lVlseOeLvCniCfw/dwx6ZKzsoCjI5OfrXlkPwz8du/wAvhy4P/Ak/xr6n1z/kHP8A7y/zrP0/7wqa0FzDpvQ+frb4W+PyOPDNz/30n+Natr8LPiABz4Zuf++k/wAa+jbMcA1rQdBWPKjS581D4WePiv8AyLVznp95P8agPwq+IJO4eGLrOcEbk4/X6V9Sc7hhsZ469f8ACpMBdwON5P5nHb8v0o5QufKL/Cz4guWC+GLkhTjhk/xqP/hU3jpgDJoFxGe+Spx/49X1YmdzbuuFz+VUrrADH8OlJxBM8g0vwnr1vptrAdOkzHCiNyOoGD39atHwzroQ502Toe4/xr0mD/V/8Cb+Zp0n3G+hruhBcqOaUtT5Pvfhj4yur6eeDRZmR5GZcFeRk+9WIfhX48AXy/Dly34oP/Zq+gLAfIg610Fp0WuJROm54JbfDHx4MZ8N3P8A30n+NX0+GXjz/oW7n/vpP8a+i7foKux9qSih3PmWb4Y+PBkjw3cnGcYZOTjOOtUbz4XePpgrJ4aucKpJ+ZOMDOOtfVWWLbVIBHQE8Hjr/wDWqvLHtkbbkjGcZ755NLlQNnyZ/wAKo+IDvtfw1cqu4jdlD0P+9XY+EPAHibRrOaK606TfJJuxxwMfX617pL0P++3bP8RqqNpkbGc9P51pTj76Im/dPM/+EY17/oGyfmP8a8s+IHgPxfqHiF5LTQ55VWNVyGXr+dfUOK5bU/8AkLT/AFH8hW9aHumdOWp84Wfwu8fnBHhm5/76T/GtWD4VfEEkEeGLn/vpP/iq+jLD7orctu1c3Ija581Q/Cv4gcf8Uxc/99J/8VUrfCn4hNnHhe6P/Ak/+Kr6hi6irK9qORBzHyfJ8KfiDGSo8MXR5wMMnP8A49Veb4VeOAx3aBcKuOD8pBPp1r6wk8xpXWNgCDkZP6//AFqzrhTtlUHgMeM9Bik42C586+Ffhr4t0vW4ri60mVV2OP4eDg+9d4PDGvf9AyTH1H+NehnP2mIAcZP8jVsCuihG8TGrKzPAviV4H8T6lpVtDbaVKzCbPBX+6feuCh+Evjjb8uh3DHg/w4/nX1L4h4hg/wCunH5GoLPkKuP4Rzis6sfeNKbvE+edM+Ffj1Mg+HLghiADlP8AGtm3+GHj0Dnw1c/99J/jX0FZyhuAcL0zWvEzetZ8hSkfOX/CsfHhH/It3P8A30n+NQt8LfH4bP8AwjNzj/eT/Gvp+Nt3GMU9xkY9RilyDufGmofCT4lzSu//AAid2Rk4+dOn/fVRad8GPH88rvc6DcWwiww3bSG59mr6+nG1dvpxWexUeduGflq3BJXJUtTx/wD4RLxHj/kFS/mv+NGs+F/Edx4dvo/7Jl3+QyAZXnj616yOlR3+f7Iu8jjY2PfivQqwXKckJanx/c/DDx9LGwi8NXDZI/iT1+tSWvwj+IxHHhW6/wC+k/8Aiq+m7Rd52+orbtFKgAivPUEzqcmj5dtfhF8SAefCd1/30n/xVaSfCT4iqm4+Fbrv/En/AMVX1PB0q7GrMyjPynqCP8+9NwQczPllvhX8Q3jQp4Wujng/MnHH+9VS7+E/xEnCxjwxdBSMsQyfh/FX1zlY42WIDdgkL6moLlNrM/HzY/Sp5UVc+Orf4NeP7idIpdAuIVY4LHacf+PV6B4e8BeJ9K0iDT5dLlLw7wTwOrE+vvXuJGJ4yTnNQnG5sDHzHtit8NH94/QyrP3bnl1n4Z8Ro/lNpUu1vdeP1ryHXvhx40vNeu5LbQJ3jedsMGT1+tfWMIfzVKrkZ+Y56DB/rXLR/wDH9J/12b/0KrxMFoTRk2j56tvhR4+PP/COXPHun+NdDa/C3x6saD/hHLgkKP4k/wAa9+tpum0dDzkVtWjltpJ5wD0rl5DfmPnmH4Y+PP8AoW7n/vpP8ae/wv8AHxHHhq5P/Ak/xr6WhbPbFWFqeRDufKd38KfiDIqqPDF11P8AEn/xVUH+EHj8tl/D1woPXlDj/wAer63k6VTuQCpU9PpT5bBc+evBvw88U6I90LrTJR54UjIA6Z9/euo/4RjXv+gbJ+Y/xr0okfaAvHCnt7ipK6aMU4HPUlaR8z/E3wL4rv8AVLf7Fos0pWL5sFeOfrXMWvwu8ftgr4ZuT/wJP8a+l9f41bj/AJ5L/M1Y07oKynBczNYvQ+dYfhV8QiOPDFz/AN9J/wDFVpW3wp+IOMHwxcj/AIEn/wAVX0taVoJuxhcgtxnHTjrUcqKufMH/AAqzx+X8s+Gbke+5P8arL8LvH7SqreGLpdwVj8ycAjr1r6wwmBISOAcHPaolzMu4YC9GXPOPT+uaOVBc+U5/hJ4+4/4p64G44AJX0z61L4f+G/jTTdftZrzQZ44lY5diuMkEDv64r6hkBWIZGQW5P/AhisfUgPPhx/z0X/0IURjqDeh5z/wjGvf9A2T8x/jXM/ELwj4juvD7W1vpMryPIu1QV5x+Ne6EVi+Jhi3g/wCuv9DXXUh7rOeMnc+WLb4YePWJ2+G7k/8AAk/xrd0v4XeP1kyfDNyPlx95Pb3r37TutdHp/wB4fSuRxR0XPnq3+GHj0Hnw1c/99J/jV0fDHx5j/kW7n/vpP8a+joxg7l68CraCpUR3PmJ/hd4/JyPDNz/30n+NY8/wo+IeW/4pe66n+JP/AIqvrk9BVKboapQFc+U9P+D3ji8mMdzo09tgZy21h+hr0KLwpr1vElv/AGfI3lqEzkc4GPWvXY9onZm7LVGQgyMQMAk4Fa0IpyaM6r0R5XeeGde+yT7dMlY+W2ACOePrXiq/DXxzJNlPDtwQf9pP8a+uZv8AUv8A7p/lXL2H31q60FoKnK58/wBv8LvHuc/8I1c+v3k/xrSi+FnxAyP+KYufT7yf419G22Tx29a1oAeAGI549K5+RGtz5th+F3j4Db/wjVzkf7Sf40svwr+ILKQvhi5P/Ak/xr6fh++30H8zVijlQXPlCX4VeP0HPhq56eqf/FVUPwq8emRVbw5cBWcLuyuOT1619YXAZ5GRWAOOh78VQlIGwIPl8z69+KOULnifh/wH4k0SxaxuNOlLCRmzwOOPf2rSPhjXf+gdJ+Y/xr1S+ANwxUY/DFVq7KUbwRzzdpM+XvF/w/8AGN54hu5bXQp5EZxghl9B71Wtvhf4+bGPDVyf+BJ/jX0Ndf8AISn/AN/+grYsh0rllBXZtF6Hg1p8MfHvkRj/AIRq5ztH8Sf41pQfDLx2MZ8N3P8A30n+NfRNn9xPpWglQ4oq582n4Z+O8ceG7n/vpP8AGqF58LfH7R8eGbk8/wB5P8a+ph2qOb7n40uRXHfQ+S/+FTeP5ZQj+G7lAf4tyHH/AI9W/oPwt8U6BN9surGQieHbjAG05BxnPtX0OceZzVXWihghKrznritIRtNImT91nj3/AAjWu/8AQNk/Mf41xXxF8F+J7/7Itpo80jKGyAV/qa9/rG1z/j4h/wB0/wA66qsFymMJPmPm61+GfjsqMeHLjr/eT/GtW1+GHjwjjw3cnt95P8a+grDO1a2rYkDPtziuPlRvc+c7f4XePsgnw1c89PmT/Grw+F/j7H/ItXP/AH0n+NfSMIwU+vr7GrqdKOVBc+WZvhX8QWOR4YuT/wACT/4qmyfCPx6yhj4euF45BKdfzr6pPSmScKPp6UcoXPlmD4VeNbG7iuZNImAikV+i9jn1rrz4b1zP/IOk/Mf417DqW0wkqMHPp1rHI71vh43TMq0rNGD4N8EamkT+Ibp0hS3Z4zAwy7cDkY47/pXX+XGvKxhT64qjbZM8aZOC4GPxrp9Zs1trZHUAZkA/Q15+Ew2Ow9eq8XXVSMptwSio8kbL3W03zO93zO29raFc0Jx91WfXzMaoprhIiAQSTUtVLyJi4kAJGMH2r1YrXUxegkkq3ETIvDDnHrWXqA/0ZuvUfzrTtYX8wSFcADv3pb61hkhYvGO3Q471pFqLsS1zI5ywjZ7gMBwnJ5rVoWNEXaihR7UEVpJ3ZCXKFY2oYa7fBHYfpWyeOtYVwweZ3XoWJFOG5M3dENJjNSU3FamYwjFJT6btoAQjNNIp1GKAIcUClpQPagAAzS7aAKXBoAVWKsGU8g5FbdpcLcR5BG4feHoaxAO9SRyPE2+NiDUyjzFRlym7RWfFqhAAljyfVamGpW/dZPyH+NZ8rNOZHQQ/6lP90fyp1VYL2EwxkBvujt7VILyH0b8qxaZqmicDNLgVB9ti9G/Kj7bD6N+VKzC511pv/wCEcbGMeRL/AOzVwlTyXc7ErHPKIzxt3ED8qhxTpw5L+Ypy5rJDWHyt9KybEZK1sP8AdP0NZFgOVqK3Qulpc6GzUjGD+lb1lCUjTDZGB2rDs+grftFO0NnjaP5VzM2RZ3MH4YfdIPH5VNAjiFAGAK9cDrTRGHAyOcip0XauKAILrlQKybz+Kte56L9aybwcGmhGGBmST/e/pTqav+sk/wB7+lPrsp/Cjnl8TMO4/wCQhN/vD+QrYsPurWPcf8hCb/eH8hWxYfdWuWW7N47G3a9K0YulZ1p0rRi6VJRYTgj86iaN1JbeNxGM7fc1MopkisZQ4OF24xQIpzoFXLZZ+MnOAfwrEn/4+vwNb05ABzWDP/x8/wDATVU/iQpfCFZWsttuIDjqrf0rWArI1wfv7f6N/Sumr8JjT+IsaewIHB/Oui037n41zmm42gd66PTfufjXGdBqKxVcjmpI90jgkg9xx7YpkYB4Pep1jAK7eMUAK8eV+Y5HPb8qoOmxWHbORWk/3TVCfoaEBm3V0sURhKFt5xndjFVQKlvGUNhhnJAFMrpobMxq9DO1wf8AEtf/AHl/mKz9O+9Wjrv/ACDX/wB5f5is7T+GqavxFU/hOhs+grVg6Csqz6CtaAdM1gaFgRs5B3cAggY7g1K8W5QMjHfjqMUxQSoA65/rU3O2gCv5WxmI6Gs68O0E7c/jWo4IFZd6RsajcCnanfCHHct1+pqWQfu2+hqGw/49V+rf+hGppPuN9DXZH4Ucz+I5SwfhOO2OtdFZngVzdh/DXSWfQVyHSb8HQVaViCAO1VYPuiriKDyakbFMRkKuGHyk9R6jFMlQk5dsg54AxUxRiyFeApyeaZL2oEZk67FORn5ieuO5NUIZhLK67cbAO+fWtK6xg5rLttrXU+OmE/rWlL40RP4WWQK5XVP+QvP9V/kK6sdK5TVP+QvP9R/IVvVd0Z09zRsOgrctqxNP6Cty1rmNjQi7VZXqKrxdqsrSAikhLP5hYHBPbsaoXVqzZYuCf4eMYrRlViykHAGc1VuVYnIOBRYZkNhbuJfc/wAjVvHFVJB/p8P1P8jV2uijpEwq7mN4lbZbwd8yf0qnb3SBFG1ssNv6Vb8Uf8e8H/XT+hqhahXgVQPmRi3Ss6i940p/Cbeng44Hp3rZjOBmsfTq2YhkYqClsTxu2eMZ7VZPQZqBE4+XrjirGOOaUmgSKNymQSKx7qY2qyMYmbcMcGtuccGsbUGVUfcM0X0sAkduzAMeB6d6Zqy40u5xj/VmroyRVTVx/wASu5x/zzNds22tTnikmcxYffFdDaKGAyM1z1h98Vv2sgGAvPrXGjoNeCNRg46VcCFthBxtOentiqEEjHHp6VoQuDxjBo1AlKKy8j3qGaMFAoOMdKsDpiopOlIZizRtA4cjcFPbvVeANcKZFjKAk9Tnv61eugVU5Oec1HZkG3BA4y38zW1B2loZ1FdaixR+WuM5Pc4ripHEd1LnvMw/U13J9q4eVN9zPxyJWI/M1VboKmrGtZMCoAB9+a6CzBCp9K5+yIYqR0wK6K0+4v0rFlouo5GAKuRklQT1NVY03Y9cVbjBCAE5IFS2h6jJeKoXTcHIyfrir81ULnAyTSGZiTCS68sLjahz37jvVjHeqkJB1Bsf88z/ADFXK6qWkTnqfEcp4g41b/tkv8zVnTh8oqv4gH/E34/55L/WrOn9BWM/iZtHZG7ajGK0YfSs62rRiqBk0MeyNY2IYKAOnbFMFuUd3DDLhQTjoQMVMvam7GErPn5TjigZUniAG5jufOc9B+VY2oHdPFx/y1X+dblxWJqBBniI/wCeq/zpx3E9iyRWJ4m/49oP+uv9DW4RmsTxOMW0H/XX+hrrm7xZzw+JFHTutdHYfeH0rndPHNdHYfe/CuNo6Ua0fHNToTgAHA+lQxVZRQOcUkBIegqlN0NXT0FU5+AaYGZLci1cylNwx2OKrBxMBKBgON2PrU14yqrFxkYPaoIiGiRl6FQR+VbUFqzKrshs6/uX/wB0/wAq5ax+8tdVN/qX/wB0/wAq5Wx+8tVW0aCl1OgtFBIJrXgUnGSODnpWVZ9BWvB0FYI0LUKkEknOQBU9RQghMGpgOKQytPCXkD7hwPSqFwhT52bcQwPTHQ1pyqSQQcYHNZ90cAk0AZ73C3UjyBCuGxgnOf8AOaaRzxTY2VmkKjA3f0FPrsp/Cjmn8TOZux/xMp/9/wDoK17LoKyLz/kJz/7/APQVsWXQVzS3Z0R2Ohs/9Wv0FXQ5GAO9U7P/AFa/QVeRVbGRUDJIyWFNkAWPaOg4qRFC8CmTfdP1oQGfI/lsW9KzNQv1udluIipQZ3F85/D8a0bnoaybmSMusYXDAHJxVws5omT91lesfW/+PmD/AHT/ADrZIrG1v/j5g/3T/Oumr8JjT+ImsBlQK3LZcj/61Yen/dH1rete1chuX4VI289P8KuL0qpApBJPQmra9KAFPSop5AAFK5GPXFSmq1xRYZlancjbsEZGTjO7NZtX9VZWCADkEZ496o4Nb4fRMxq7j7Uf6VDj/nov866/xECbKPOP9aP5GuNBIOQcEVPHdy7v380rrjgFiefxq6lNyakuhMZcqaLJGKSojeRf3X/Kk+1xejflS5Ww5kyaobv/AFDfUUfbIvRvyqve3sK27Eq/btTUXdCbRXIpKrHUoP7r/kKgl1F2GI02++c1vysz5kSX9wI4zGp+dv0FZRANSMSTliSfem7ea1irIzbuRkYoxTjSYpiGFfSkp9IRQIYR3pKdikIoAixS0uBSgYoAQClopcUAJTgPWgCloAAKKUClwKANy2H7iL/cX+VS1Hb/APHvF/uL/KpK52b3CjFABp2KA3LsVvAbXzGHz7Sev1qlXTWOnpJof2grz5Tn8s1zgGKxpNtyv3NZpJIawwh47Gsay6itp/ut9DWLY9RU1+g6R0VpnI9MVu2swEUeQTwKw7QgkDHNa1qcxoc9cVhuao1Y5vl4FOSdfLyA33u59/5VBEvRsD0p8ZV0YqcjcevrRYB87h1GBjBrLvOhrRbBUkHPNZ130NCGYYH7yT/e/pTwO+Kav35P96n12U/hRzT+JmFc/wDIRm/3h/IVsWPQVj3P/IRm/wB4fyFbNj0WuWXxM3jsjatRgCtCKqFt2rQhFSMsLn2pr7dqfeHT/Jp6UzIAQA5BORx1pMCrN9w555/HrWHcf8fh4HQ9K3bhkCHAwwPHtzWHcA/bDnGcGqp/EhT2YVk60AZ4M/3W/mK1wKytZH+kQY/ut/MV01fgZjT+Il09RtBGPat6xk2DBGc81g6fkqAc8dOa27TtXIbmxFMOODU6SgoQA3JPfmqcParCY2lgeOSSe1OwyZpTlVweVP8ASqcm7a2455NWWKgKx9Ccn04/+tVdzlWHHDEcUbAZ9wimNjtUnPeqtW59/lMFTIzyc9KqYzW1DqY1ehn67/yDn/3l/mKztP8Av1pa6Maa/wDvL/MVnWH3xSq/EVS2OgtOgrXhrItOgrXhrIstQ8M3XGec9Og6U9yRtGTy2OPoajiI3uAc9ju6DgfpzUjhcYK4GcfpSGRuTvcdsDHNZ14P3bcCtEsGZwCNvBH41n3mQhOM46UmCKNoAIAF6Zb+ZqWQfu2+hplrkwjJ5y3/AKEakfGxvoa7YfCjmfxHJ2Cj5MYya6K0GABXPWO4BMeldDaY4964zpNu3kBUcGr0cgPas226Cr8XSgLkxkAV+GA5+vTtSSHLDr0JprAGOQA9M5J7USEDBJxQBSuOp4/A1nQqBPKcAEgdPqa0bgEEgDFZ8JJmkypAwMc+5qqfxomfwsmrlNV/5DE/1X+QrrAK5TVf+QtP9V/kK3q7GVPc0NP6Cty16ViWH3VrctQK5zY0Iu1Wl7VWi7VZTtQxkcpAT+Llvx61RuG5cDf2xzV2TG05PBbr+NULx0UOd3I56cmpYIyp5QL2LacnJwfwNTGRz/EarSsDdxKo4BPf2NWcCu7DL3Dlrv3jK8QzHybcScjzP6UljGAgYEA49OKZ4mH7iDAP+s/oaXTCxiXg7sYOeeM1z4hWnobUdYm5bIFIKd+tacOc9OPWsy2zkbsn0FakNZGhbjwDuwSakLDHSo06CnHpSsFyrcvtBx1rIuiXSUMAfl4zWpOMA5rKuNwSXam75OecVTVkSndj1mcYzgio9W50u5Of+WTU7FQ34b+y7zPI8s459v8AP5131IpK6OWDuzmLZtoAzy3ArdshgCsS3QNg/wB3kVuWX3RXCjqZsQdvpVqM4iY/N1OPXrVaAdKtJhoW2sTyRk896Yi8MlQT1qtK5CNuIPJxirIBwPWqk5yGPGVOMioKM25ctIBkgZ5FQQO6JgY6njt1qaYhZAQNxz0z3qCPcVyy4Ykkj8a3w6Tn8jKs/dLaNvXIrjP+X6X/AK6t/M110O7zOBxjnnpXI/8AL9Lxn9638zVV1YVJm1awKSpBxntW1bBlwMcDvWTZ5wAp+XtnrWtbdQCMnua5jc0YcA55qx5iqOarxVI3YUWuK+g2Vyx6kCqFwSoz1+pq62QciqV382fk6D8M07CRnREG+Py4byzx7ZFW6z1Lm/XgAhevXuM1pYFdFL4EZVNZHKeIB/xN/wDtkv8AWrOn9Fqv4gGNX/7ZL/M1Y07oKxn8TNY7G7a1ow1nWtaMXaoGTpja/wB7v/LtSseQKbGRtky5OCc+3FKQRtBx3xgdaBlWQny85yc9/TNY2o/6+HAx+8X+YrandCAu0cnOPxrFv8+fCDjHmrj/AL6FEdxPYs1jeJ/+PaD/AK6f0NbZxWJ4n/49oP8Arr/Q11z+FnPD4kUdP610NidpB/Cue0/rXQWnGK5TpNWOU5XA6nmriPwOKoRFflHU5/KriDv6ilYLkxcY6VVn6GrGKrzfdNAGe6q5YMitx/FVNAAigDAAA4q6d6uSse7jp0qovKDIxx0rSj8TM6uyI5v9U/8Aun+VctYffWurmA8l/wDdP8q5Sw+8tXWWwqXU6CzzkD2rXtslQSe5/nWTZnkDIrWg24Xtz+tYo1LsXUg56fhU46VBD94884HH51OOlICtNgRn73J7daoz5LYJyNw61emKiMksQM9e9UrggMAoGSR+NAFGZVWVgqqBn+GmVLOHMrl02nPAqKuul8KOafxM5m8GdTn/AN/+lbFj0FZN3/yE5/8AfH8hWvY9BXO92dEdkb1pKAoG2r8Uo9DWZbdBV6LrUDLYlHYUyR9y4xSL0pG6U7WApygFiG6VQ1GNFSMrHGCe69a0ZM7+Koaj5u2INFsXHXOcmnD40TL4WZ9Y2uf8fMH+6f5itog1i66P9Ig/3T/Ouqr8JjT+IksPur9a3rbqQemKw7D7q/Wtu2IwTz06iuQ3NKLgr19qtpVSHHyc/T3q4lAA1QzKOOM8d6naoZiwTAU4x1z0oGZGpqpTJRRg9fes2tTUshCAmAevNZdb4d6Mxq7oQD5gD3NT3MUUaAoOc460yFQ80anuwH61sa/YLa2iSKuMyAfoaqo2pxQoq8WYNNxTqK2MmrjarX//AB7N9R/OrRFVr7/j2b8P5047ie1jIIpKfSEZrcxGEU3FPIxSdaBjDmm4OKkIxSUARnmkp5FNoAaaQinEUUCIaUClxSgYoATHNLiilAoAQDNOxS0YNABS4oApaBm1bj9xH/uD+VSgUy3AEEf+4P5VLXOzZIQCnAUAYpaBnZaYceGANuf3MvP4tXG1aj1PUIrf7LHdSLDgrsHTB6/zqsB3rOnBwbb6lSlzJJCMvyn6Vi2P3lrbb7h+lYlj95ait0LpHRWRyfxrXt8bVOOuKybTOQR0rWtycLyK50amjGPlHPc0sJDRnC7cEimRg5Bzxz+dSLuZD8w+91B7ZpANPzDcRzyP1qhedGrQcN3Oaz7zo1MDET78n+9TwKag/eScfxf0qSuyn8KOee5g3I/4mE3+8P5Ctex6LWRc/wDIRm/3h/IVsWHRfpXK/iZvHY2rXpWhF1qha9K0IutSUWEGcU3dtVAF64/CnKD0FMYsVXDcnr70MCpcklyOMEZ6e9Y9x/x+YJzwa2plIQknJHasWb/j76Y4NOn8SJn8LCsnWSRc2+P7rf0rXwfSsnWti3FvvGRtb+ldNX4GYU/iH6cDgHPWty07ViWG0gYGK3LToK5UdBpQjpViMgRlgvTccevWoIu1WVJ8skdRQMJeYi2Ogzjsaim6Gp23EqQRjBz+n/16glzg7vWhgZ1xkxON4ABBxjrVYCp7gREHejM2eCB0qIDAxW9DqY1ehn68MaY/+8n/AKEKy9P+8K1Ne/5Bj5/vL/MVmaf94Uq3xFU9joLTtWvB2rJs+gNa0HasDQsw4zJhf4uffgVO/Cknn1HrUMRJLYI444/z1/8ArVIVk2gb8fNzn0wf64oAiByinaASorPux8pORWnIecYGPWsu8A2nIoYFO0JaAMepZv8A0I1K/wBxvoaissG3Xb0y3/oRqdxiNv8AdNdkPhRzS+I5GyJZEGegrobPotc/YlCqAJz9K6Gz6CuNHSa9t0q9FVK36Cr0IpgSKQqyNt6EnHrxTZshC2M9OPxp2W2OQwBB49qSQNkEHAA6etIClcL2BxWfB/rpF4xtU8fjV+5BAIPPJ6Vn2oT7RMFBBwucj61dP40RP4WWQtcnq3/IYn+q/wAhXXYrkdW/5DE/1X+QrarsZ0tzQsOgrdtu1YVh0FbttXObmhF1FWU7VXi7VYXtQIZIwVSQufmIx+NULhsMFCcMTnPbir0jsFJLAfNgc9s1SuDKWch1KngDNSMxZ2YXsSbQBuPbnoasYprxhr2EOcnJ5/A1a+z+jV2YaSUNTmrJ8xgeJcrBb47y4/Q0mmRlUC7ugzVzxFHHHBAWXP7zjP0NVbELnIXOR0A6VjXd5mtJWibdvtCZIrRikyMgVk27A9stnH4VpwdKhIpsvxsMDPFSHpUCjIwalUkg8Hg4pNWBO5VuO/GMVkXeRHNhgPkPUVtzqGU5rGvYYyknmAtxxgZpN6AlqGPWo9RTbpV0xwd0RIwO2Kurbp/FzUGsD/iVXX/XJq76krqyOWCszlbAZcVvW0PTZisKw++K6Kz7Vwo67GhBG2BxVyABI2YL0ZuPxqCEjaORVqNiEJLAnJ6H3ouFicqGXnpVe6wFztzVofdqCYnaeB+dIZj3DkPwB16moYgdnJB+Y9B71Yuotx5b5c8jvTbS3QRDbkDJ4xjua3oNKb9DGqrxCKMlw5HC989+n+Nch/y+zf8AXZv/AEKu3VFVdqjArg52P26RQ2AZnz/31VV3zCpaG9ZyqAMZNbFrIu7lcADrWHYEAKCoOO/rW1BggbRx3rCxrc1YsEA5qVxwDjiq8BIIXGQf0q2OlLYe5A9Ubv5sjIGO9aMkYPfFUJ4cg7jkjnim2CRkRK8l/tL8Ku4kcdCK0qpwKgvm2JtPlkkfiKuEhepFb0fhMamkjlfEP/IX/wC2S/zNT6d0FV/EBB1fgg/ul/mas6d91axn8TNY7I3LXpWjF2rPthWjF25qCiZWDLJlehI+vFOfAxgfeP8ASkQnDfMOCe/Tihy3yAd+uaAKs/8ArPLIB+Xduxz1rGvx+/hBOf3i/wDoQrYdJAhDvkk9fQVj32PPhGMfvF/HkUR3E9i4VrD8UD/RoD/01/oa3TWH4o/49Yf+uv8AQ11z+FnPD4kZ+nda6C17Vgaf1rfte1ch0mlBksR0AxV1On4VUiDcY9eauL0p9RDiOKgm+6asHoKgm+7SGUGB3nDgcHqM1Sj5jU+wqzcLG2RIjEY7DNV4gvlJtBA2jH0xWtD4mZVdkNm/1Mn+6f5Vylj1WusnH7p8f3T/ACrk7L7y1VbdBS6nQWo4BwOo/nWvAdoXvzWVZ9ABWrbhgq5Pf9KxNS7Fjewx2HP51PUMZOSMjHBqakBWlcJGW2Z5PFUrskOg65Pp0q9MzbDhlBz1zxVC5VsnccgkflQBUkBEj5cNk5zj2phWnYjDN5SMozzkYyaPwrsp/Ajmn8TOWu/+QnP/AL4/kK17HoKyb3/kKXH+/wD0Fa9l0Fcz0bN47I2bXpV+LrVC16VoRdagZMKRx2py01qroBUkJD5BxVDUVbEbGUEcjaB0q9OF5LZxWddrANhjiYORyxUgfSiHxoUvhZVrE17/AI+IP90/zrbxisXXh/pEH+6f511VfhMKfxEmn/dWtu1OE3EdulYmn/dWt21yMnIAxXIdJoxYOw4/+txVtOlVIifl96uLQID0qGXiMnr25qc9Krzbc8gkYpDMrUQY0PzggkDpWaRWjqQiVeUOSRjjoaoV0YfZmNZ2aHW3/H1F/wBdF/nXTeLCTp8eVx++H/oLVy6kowZeCDkEdqmudRvrtBHdXLyKDuAb1/yauUG5KXYmMkotFXbTafSEVqQNqtfj/R2PuP51Zqvf/wDHq34fzprcT2MnFIRTqK3MbDCM0hHpTsUlAhtN204iigBhHNJtp5FNwfSgY0jFN208jNIQaBENLjmlwKWgAooFLwPwoGIBTqAKdgUAIB7U6gDmnYFAGxbj9xH/ALg/lUw9qjt/9RH/ALg/lUgFc7N0FKMd6AKXFAFlLQPB52/HBOKr1u2mmiTSPtPP+rdvyzWEKxpScnK5dRJJWGv9xvoaxbHtmtxx8jfQ1iWHVaVfoVR6nQ2i8q3pWrbKqopA64rMs+wrXtxkD61zo1Lqorx7WGQT/hSwKGQhc/fJ/WiMnGKkA2jCj6CgENfkcHg1n3nQ1oOQTwOtZ94ODRuBip9+T/e/oKeBmmxDLyf739BUldlP4Uc017zMC6/5CU3+8P5Ctew+6tZF1/yEpv8AeH8hWxY/dH0rle7OiOyNq16CtCKqFr0FaEPap6lFhc5yKhKIgQqMZIqZeOaRlwox0FIRUmykZGe4rFnz9tPrtNbN1gg4BwPWsWU5vMn+6f6VVP4kKew8DisfXN32iDb/AHWyPyrYArJ1sf6RAAxGVbp+FdVX4DGn8Q+w3YAI/Ctu07Vh6fxxmt207VyHQacXarEePKcZ4+bP61Xh7VajAAwPrQAbc7X/ALqkfnj/AAqCXGG28c1ZbIwoHUHn3qtLnB4xzQBnzPIisFAwxwagp14CNp34ywGMe9IBW9DRMxq7ozte/wCQbJ/vL/MVmWH3q1df40x/95P/AEIVlWH36mr8RVPY6G06CtaHtWTadBWtDWJZYt8b5MZzu5/IVLKgIDZ6Nu/Qj+tNjUAkgdTkmpCxwMKcZxQMidQrEgdRzWbeMQh+lakgPUntWVe8qQTQ9QKtjn7MufVv/QjU0n+rbj+E1HZLi3UFs8t/6Eamk/1bf7prsi/dRzS+I4+x3YTI49a6GzztFc9Zj5UO7PSuhsuQK4/M6TZtvuir0VUbb7oq9F0oEOwuyU88bv5UsgGQ2e2KlVFGcDqcmo5D2x1HBoGUJmzkr6nr9aoW5JuJcgdF6fU1euDhWwMdaz7MYnmO7OQvHp1q6fxoifwluuR1b/kMT/Vf5CuvAzXI6t/yGZ/qv8hW1XYzp7mhp/QVuWtYlh0Wty16VzG5oRdqlySSMcDioo6fFuKLv+9gZ+tNEvQinVCgZgcq5wfxqhcKqO8uTluo+grWKgAgfWqF0AAyhPf1zTtcEZ3BvocepH6GtGs2Ibr6Mj1Of++TWntraj8JlV3MTxPu+zwbRn95/Q1Usd5G0jtV3xQP9HgAJGZO30NZ1gT0JzjisqvxGlP4TYtclgOh7VqW/Ss6GMr8wPUZwO9aUIIGSMUlqNouR9BUiHKnjgHH1qNFYqMcVNgKoA7UMEiCboayrtnRJGTHTvWncNgEDrWDqZby5MyEDHPvUtXQ72NMdKp6x/yC7r/rkakVmRQFP4UzViG0m5Yf88m/lXdOLSOaLTZylidpzjOBW3aMz4LdqwLctlNvQnn6YP8AXFb9l90VyRXU6GzYt+1WYNoiZjn7zD/x6q8HQVdiVVGAOOSfxpivYtD7tQTgBOnXmphwABjB6VDM2RtOCaz3KuZk4AfKjoe9LbsWiBbGcnp9ajvSSMFiM96hsHcWy4fPLdR7mtqMbz+RFSVol6uAnXGoyNnrK3/oRr0BSHXIrhZEV72bPUSvg+nJqquliadmaunk4TjPpW3ben51jWMTDAAratVb7p6jtjpWRoaEBwwGDzxVwDIqvAoABIGasLUsaGOOMVTnbqB2q64JBx1qjc4AOOo9qTGZJlkGoEFRzG2T6cipT61UiDNqcjM2QYzgenSrhAFd2GVoHJW1mch4hJGs5BwfKX+ZrR0l9yAE8is7xJ/yGf8Ativ8zVzSANy56jpXPV+Jm1PZHTW3atCNQy7WGQRgis+2rRirE1JExtl69Tn8qc6JuVsfMe/4U4LuGPUUpyRxgg0CKcgWNNgOcH+ZrG1DJuICf+ei/wDoQrZn5XBXBU8jFY16czwZ/wCeq/8AoQpx3B7FysTxV/x6wf8AXX+hrdIrC8Vf8esH/XX+hrqn8LMIfEjP0/tXQWo6Vz+n9q6G0HT61y2Og041zt56HNW16VUiOMcZzVyPpSAcegqCb7vNWDjFV5+lAFB2kUkxgZx3NVULNGrN1Kgn61Jdn5SC+3jrjNRwACCMA5+Qc+vFa0NJMzq7IbN/qZP90/yrk7EZZa66fHkyf7p/lXI2H31qqz1QqXU6Gz6CtWFQqqM/xZ/Wsuz6DFa1uSQCRisTQtxAKxA7KP61YHQ1FEo5OOTxUo6GkMpzqhiYnPBNU7hRGc9SSCK02VQCAKzbvkEYPB70AVZXkeQmQAEHHBplNhOTJlt2HxnHsKkIGK7KWkUc0/iZyt7/AMhSf/f/AKCtey6Csm+/5Ck/+/8A0Fa1l0Fcst2brZG1adKvx9aoWvatCLmkyicdKa3enDpSN0ouBSnBOcdap38kzRxq4UJ1GDzVy4BOcHFZM5/fCMS7l2kgY6U4azRMvhZHjmsTXs/aYP8Adb+dbmKxNe/4+YP91v5iuqr8JjT+IdYY2rn1rdgUBWJzgrWHYD5VretfTHauQ3L8KqNhHc5/Sri/1qtGAcE9qtJ70DFaq8zFD06irDVXnA6s3bjFDAytUeTaFIH3hWeRVu/5OC2Oc1VrfDqyZjW1Y0DJA9akmtxEu7dnJxRGu+RF9WA/WtPWNP8Aslssnq4X9DVTk1OKRMYrlbZjEYpKfTcVrsQNxmq98D9mb8P51ZqC+/49m/D+dVHcT2MmmnrTyKbW5mNpCKcRSUEtDKQinkCkIoEMop2BTSPSgBCO9Np5HakwKBkFLg0v4UUAIBTgvfNKOtLQAgFOxQBzzTqAEA9qWgUoAoEbNuP3Ef8AuD+VSgdqZb58iP8A3B/KpK52brYTFLQOaXHvQG52emFf+EYAI58iX+bVxuK1bfxDc22nf2csERTYybjnODn/ABrKrKlBxbb6mk2mlYR/uN9DWHYDlRW64+RuexrCsThlNRX6F0up0dnzjBH4Vr24O1QD3rHsioO2te2ZWVcHPSsDU0IsYHrT0Vgv3stnPPP4VHHgEdcnpx1qVCoXqeuOfWkIY/X5Tx0qhedDV/jaSpyMn+dULzoaaAxo/vSf739KfTI/vSf739KlA712U/hRzz+JnPXfGpT/AO8P5Ctmx6L9Kx7v/kJz/wC8P5Ctix6LXNL4mbx2RtWo4FaEXX8aoWtaEI59agosL/WmkcKC3zAfnTh0prbdyqDnuKQFO5OeCw3dcD0rHlGbw4H8J/pWvclQ+V5Yrxgds1ky5+2HPXaf5iqp/EiZ7DgKx9bx9otwcfdbtn0rZrG1wH7Rb7R/C39K6avwMxp/EP08jA+Xj6Vu2vb6Vh6eGCjdj25rctO1ch0GnD2qxGCFwx6k81Xh7VYG0DG7huDj9aYD3OMEthQDmq8wO1snvx9KsSBWXy8/eB/Kq8rBlbHY4pAZl0UA5j3EsBnHTmm4qS4E23KICpYbvbmo63odTGr0M7X/APkGSf7yf+hCsvT/ALwrV14f8SyT/eX/ANCFZWn/AHhSq/EVS2OgtOgrXh7VkWnQVrw9qxLLUQZSzM3BOQPbA/8Ar1IQxAy+ADz7io1ZFz83U8jrzxUgMYQLnIJwPc9aBjHOQWGMEcc1l33T3rS+UAopPyADms29OAeM8UmBXscfZlx/eb/0I1LJ/q2/3TUViCLZQeu5v/QjU0g/dsfY12w+FHM/iOPsiNqEDJx6V0Nl0Fc9YB8Jgdq6Kz7cdK4zpNi36Veiqjb9BV6KmIlAIVgzY3E4PpTZOOScAUrMgUgscMSDj9abKF2hCcZxikMo3AwDk561Qs9pnmO0Dhc/rWhdg846+1ULTcZ5mZQAQoH61dP40TP4S0K5HVh/xOLj6r/IV19chq3/ACGLj6r/ACFbVdjOm9TQsOi1u2owKw7DoK3bbtXMbF+IdKmCkZJ6dqih7VZUZGDT2EQOPlwz4JJ6H3rPuQw3BpuT90VoTLDgpuIDH6fWqV01ujhTIcqOn4UNgkZyIFvYeQSSckDqdpq7JMc7U7dTVLen22Nx0BY9Cf4T2qx3OB7104ZXiYVtGYvil2+z2+WPMn17Gqmm3BBAKAjpyP1q14pVjb2+0ZPm/wBDVSwSbYCVAIHJB5xUV0ucul8J0trjAKjOR3rTirJsSQm3r+Na0VYmhaTkCnnpTU6CnHpSApzjG6sXUSixyF03fLxxW3cg88cetY18JSkgiUH5ec+lU3oT1JwOlV9Sz/Zt30x5LZ9asjioNSUf2VdyZzmIgcdK9Cp8LOWC945ezXcceorctFZQFYc1i2H31robUAgZFecnY7Grmjb9BVyFGKlHOck8+xPFQQIoOatwlAvByCSMe+TmncVicDGABwKrTKfmxwc+tWgMDiqs7Bt3UAHGfekhsyrraGyTkdweais8G3BVcDLcfiakuSGPy/ez370218zyAZFw2WyPxNb4f4/kZVvhLEAIc4xjHPr/AJ61xhx9umJ/57N/M12kMfz+bkEFcD+v9PyrjOl9MSM/vm49fmp4gVE3LLGACPxrYt8jao5HXNZFmrccfKegrXtuo4rmNy9GwUDPc1Lye9QrngVOtUkS2RvwMZIqpct8p3Acd6uOM1Qu9ynIGSfQZoYIzUQPfl0GMRkEevIqc022D/bWLd0P1PIq4Y0J5UZNdOHlaFjGrG8jhvEgP9s4H/PJf5mr2kR/KHYfSm6/GqawcD/lkvJ/GrOnfdFYVHeTNYKyRu2vStCKs+16VoRckDJBrMssAHacHBIobsu7680owQc9O9MYozBST8pBHb6CgCtcEhdjOC3XPfFY19gzwYH/AC1T/wBCFbNwY93nDLcbcY9TWPe5M8JOcGVMZ/3hRHcT2L2Kw/FI/wBGg/66/wBDW5WJ4q/49YP+uv8AQ11z+FmENzN0/rXQ2nauf0/qK6C07Vy3Og0oecAN06irkfA5qlCArZ5yxAq5EAM4P1+tICUjjNV5hkGrJ6Cq0vQ0AZl1sGd6buOmKhhx5MeBgbRgfhU9wZQT5S7jjoahiBESAjB2jI/CtKPxMzq7ISf/AFMn+6f5VyNh95a66b/Uyf7p/lXI2H3lq6vQVLqdDZ9BWtADtGTz7Vk2uMAE9x/OtaFlIBJxyQM1ial6IHJOeMVKOhqGHBJI64H5VPjANICB1O3azkEnqDWfdZHVhyeBir8zRgbS3Ws+5ZWcBTllPTHrQBTQoWfYm0BsYx14FOoAm3v5ybTu4+mKMV10/gRzT+JnLXv/ACFLj/f/AKCtayHArKvf+Qpcf7/9BWtY9BXO92dEdjZtugq/F61QtugrQiqBky9KRulOAxSPQBSnwWwRmsy5eIyKqw7XwctitSUMX+XGazrz7TvXzYgseDgj1pw+NEy+FlesLXxi5g/3T/Ot2sPxB/x8wf7p/nXXV+Exp/EP0/7q1u2oJzhuCOMVh6f91a27TbjaTxjrXIbmnED8uD061aSqkO07cHp0q2lADmqvNgAnbnsc1YbpUEyvtOADnmkMxb4of4e45xVQjFXb/wA1xwuACM54qpXRh9mY1d0Otv8Aj5i/31/nXSeK8HT48DH74f8AoLVzMbGKRZAMlWBAPtV/UtcuNTgWCWGNAr78rnOcEf1qpwcpxa6ExklFpmWRRTqaRitjPYQiq18D9mb6j+dWqr3w/wBHb8P501uDehkmkIp5HFJitjMYRTdtPIpKYDSCKQjNOPSm0CsJtptPpCPagkYRSU6gigCEClpQtG2gYAZpQMUtFArhRSgUtAAPrRS4NOAwMUAa8H+oj/3B/KpAKbbj9xH/ALg/lUlc7NkgAxRRSgE0FEq2rtF5oIxgmowOK1rfT5JNO+0Bjt2MfyzWVWVObk3foXOKSVhH+430NYNj95a3n+430NYNiMkc44qK3Qul1Ois85wRwa2LcAKOKx7MjgBq14PmVefQ1gjQvxqp6gVMBgcCoUXK8HnPX0p8X+rwOMHHP/16GMHHcgA+1Z94PlP0rQZSAxJznpVC8+6aBGNF96T/AH/6CpKji+9J/v8A9BUwFdlP4Uc8/iZzt5/yEpv94fyFa9j91aybz/kJT/7w/kK1rDov0rle7N47I27XpWhCMe1Z9r0rQi4wABUlFhelI6hjkgf4U5O1RnIVASxzg9PahgVrhmAbAGKxn/4+/wDgJ/mK17hMoTuwc5IHesmXH2w4/un+lOn8SJn8I6sfXMC4t8kj5W/pWyBmsjXcfaLfjPyt/Suip8LMafxBpzEAAHit207Vi6eRj7vNbdr2+tcp0GnEOlWVUMBkZqvD2qdNwjPzev16mmIkI4xjjFVpvump3H3W3Y+U9fwqu/3SC27B60hmZduVwvmEZYcY680mKluArL/qdxDfe9OajxW9DZmNXoZ3iD/kGSf7y/zFZOn/AHh9a1/EH/IMk/3l/wDQhWTYfeH1pVfiKpbHQ2Y4FasHQVlWfQVrQ9qxLLacgAjP1qQDCBQAB/KoIclny5xu/oKkKnaN8hyG7cZ4NAxJBisu9OFNaRzlgz7iP8is29HyscZpMEV7Hm1U5zy3P/AjU8g/dt/umo7Af6KvGOW4/wCBGpZR+6b/AHTXbD4Ucz+I42xI2phiTj0robI5xXP2ONqcdvSuhs8cYGK40dJr2/QVeiqlb9AKvRUATBVYEEDniopA2FVVXHfPanfMFkYNjk/ypJlbna+3jr6UAUbnheBjFZ9mxaebcckBe3TrWjOh2kMSTk/zqjZhfPmwm3hecdetVT+NEz+FloVyGsf8hi4+q/yFdiBmuP1f/kMz/Vf5Ct6uxlS3L9h0FbluwXAzyegrEsOi1rwEMxIPtXOtTZmjE7HBzVpCR3qpDVtRxVWJuKyI4JKjkVUuUyT+7UqBx6k1MQy5IY/MT0HfPWqV0jfPiYjJB/SoehaKIz9viBAGS3b/AGTVgjDEEYwarIANQi57n/0E1osiuOc104aVonPWV2c14qKi3t9zEDzT0+hrP06VyAC2QOBx2rX8U24Ntb5Of3np7GqtgI1RQEXco6kdaitJc5dKL5TbshtjCk7sjPStONscDrWZbkIAQuOO9aEGeMnJrJamj0Lisxxg4qTdngjtUcdPPSnZCuQzgEcisbUFKK5WQrx6ZrZkOV/nWVfKGSTMe/A/KpeiKRYEK9G5+tVtYGNKuuP+WTfyq8Kp6z/yCrr/AK5NXbJ3Ryx3OTsPvCt+1kAwBziudtmxgZwW4FbtkMKBXIkdDdjagduM9KvxMp+XHXms+DpViEMsbMrfxMeR3yelDQXLwGF44qKUDGMVIowgZjyByainIZCAehwcVJRl3kePmU4PrTbCMNbBmO/Jbk8fxGn3S5OGy3sRTrNQtuoC7Rk8fia0ov3vkZ1V7pIQFHOAB+lcA9wBfzqoziZ+f+BGu+mGVAJ75rzwHGozH0nb/wBCNa1VomRTetjo7CZifmxgnPSty1YOAQDxxWBZFWCgLxjkVtWjhSFAwPTFYWNbmmvTOKmHSmRDipQvGQaEwaIpcjkdaozqSNwOMc8Vouhx836VSuIxhlAOB0Pek2NIzrQhr1yT83lnjHuKv1RtVC3rYTH7s5PryKvV0UfgManxHHeJ5VTWCM8+UvH507T5XKjkCqvin/kOscnmJe/uan037q1nJe8y4vQ6KzlYDnmtaAg4YVkWfStS2DE8ccDB96hqxSZdWmtGmc7RkcikzvjdT6EcfShlI2qGIAOf/rVJRVm38s6r7YrGvSTcwk9fNT/0IVsTKOm44JznueayLxcXEA7mVP8A0IUR3E9i+R3rC8Vf8e0H/XX+hrePFYXisf6LB/11/oa65/Cznh8SM3TutdBadqwNPrftR0rkOk04twbIUYPWriAdfxqpH/DzjJq3GCM5OfT2oAkPQVXl+7Vg9BVebpQBlXkjRgkPtz1OM0yA5gjOc5Qc+vFTzqrE7ot4x0qOEDyUwu0bRx6cVpR+JmdXZDJx+5k/3T/KuQsfvLXYzr+5k/3T/KuPsPvLV1ehNI6C0B28Yz2zWtANwBI6Hisq06LzjFatvnauG6E1ibF6MALwKmqCIYZjnOQP61YHQ0gIZVU8ECs26LDnGAOQe9XZQyoSGPU1QuV+b75OT09aAKcLlzIS5bD4yR7CpDS4AZgsWwZ6UlddP4Ec0/iZyt7/AMhS4/3/AOgrWsugrKvv+Qrcf7/9BWtZdBXM92bx2Rs2v3avxdaoWvStCPrUlEwpHpRSN3pgU5jgnnHvWTcSs84j80soUnGMY5Fa8uMnK7h6VQuo0GxlttmQfm9acPjRMvhZUrE1/wD4+YP91v51uEc1h6//AMfMH+63866KnwmNP4h+nfdWty1GRtI4rDsBlF5xW5begY9K5joNOEdOKtJ0qpGPuc/5xVxKAA9Krz4xycY6cVZbvUE+Nv8Aq8n3HFDAxdQlZiqu/QgDiqpq7qCKuP3Z+8KqEVvh9mY1dxvWnSwtGNx7mhFLuqj+I4q7qFi9tCruSQWxz9DVTm1OKXUUYpxbM2inEd6bWxmIRVe9/wCPdvw/nVmoL0D7O34fzprclrQyiMU3HFPIzSY7VuZIYRikxTiKQjtSGNIpMU40hX0pjGEYpKcRmjbQJjSKaRT8cZpKBWsRUUYpQKBBj1pcCilwaAClwaAMUtAAB2oxQBmnUFJGxB/qI/8AcH8qfTIBmGP/AHR/KpQPaudmyEAp1FKBmgDr9NRD4bBOM+TJ/wCzVyA9MVtWuvx2+mf2ebMsQjJv34657Y96xqwpRlFyv3LnJNIR/uH6VgWIztFdA/3G+hrAsOq0V+hVLW50Nkq8ECte3AXYOh9QKyrPoK1oAdq9zmudGxfjGYz8uafGhMfzPu54OMY9KZEOOv4VLHnZ83XntQA184wTms68+6a0XrOvPumgDHg+9J/v/wBBU1RQD5pf9/8AoKmFddP4Ucs37zOcu/8AkJz/AO8P5Ctex+6tZN5/yE5/94fyFa9j0X6VzS3Z0R2RtWlaEQqhaitCIeh7ip3GT4J7mo1kDAbWPB2k+pqVeOT0pjBto2gD17UMZUniXnAOTx1981juP9NIxj5T/MVtXHQmsZ/+P4/7p/pTp/EiZ/CyQLgcVjeIGKXFsQB91v6VtmsPxF/r7f8A3W/pXVVXumNP4iTTwfLDEAZrctO1YWm4KjHFb1p2rjRuaUPap4mzlSScEnPp1qCHtVmMHaSBzzjIx3oGOkRXwWGeCPzx/hVeZQAcCrR6DNV5+hoAzJ3blAmRkHOcYpmM0lzjeMn+Id8d6eBiuigtzGr0M3xAP+JXJ/vJ/wChCsmwHz1r+If+QXJ/vJ/6EKyLD74qaukiqex0Np0Fa0NZNp0Fa0NYlliIrvZDliefoOOP1zUxRGAbPfI/l/WmQDJYkd+OPYVL8+3tuoAgZVUkKMcVm3mApOD09a1ZOprKv87D6YoYyHT23WiMQOS3/oRqaX/VP/umoNN/48k+rf8AoRqeT/Vt/umuuPwo5n8RxmnktsXArorOucsMfLkV0dkOBXIdJsW3QVfiHSqNv0FXoulAhVcFnjBOV5z6U6VA3JpQDh9vDZODjFDZxzQBQuRwRyf51RsjunnXbjaF7/Wr91nnH86ztP8A+Pm4+i/1q6fxomfwl8CuN1cf8Tm4+q/yFdlXHav/AMhm4+q/yrarsRT3L9h0WtiHAYe4rIsOi1uWoyOa51oastw1bSq8SEd6sojbfm4+hqromzISSzHB4QnLY9+n9Kp3CxMWcs3XBrSYMFOwAHJ6jHes+883Hy8c8jpmoepa0MvzETUIVCk5J5/4Ca0Vl/vDH05rJIP9owZ65b/0E1pjNdlCC5DmqyfMZXihx9lt2XBBk/oaqWCkop2jntnke9TeKDi3tl7GU/ng1XsNoAxk8DjPSuetG0zWk7xNu3JcYPpV+AcCqNoOlaUaf3ahFvUspTj0pFU4zjtTimQM/lTuTYgbdsy2efUdKyr5tiSYXOR61r3BwpIFYGp/6p97dvXFTa5V7Gn5yjHyk/0qtrJVtKusEf6o1JiqetfLpd046iJv5V6MoaOxyxepy9sobBP8PzD8q3rPoKxNOKuVI5BFb9rF024xXAux0tXNWDoKsQv8rqr5Yc7sdOTx+GKhgRhjirluhCk45JOOMcZouCRPtDx4boRgj1qGcokbZOO5wKmcttwBgn9KgnyVOBSsO5l3EitjG7rxU1lg26nGOW4znHJqteBudxGO1Lp7+XbKV5G5s45/iNa0Y+9p2M6j0LU4GAc98V50R/xMJxjP75//AEI16UQGGCMivPGtz/aExU8GZu/+0auq9Eiaa1bNyyBCqTjp1FbNqpJUjOc9qx7CJsKMfjmt20QLg5yTWBrY0IulWFqCLpU61JQyRgvWs68kwh+Ut7Zq9J1JrPvBwadhXKNrIv29o8FcRngn3FaFZFsB/aUmTn90e+e4rVicOCM8rwR/KumlG0EzCo7yOJ8VAjXDxgeUuPzNT6b91ak8TIG1fBH/ACyX+ZpdPgIUYYGsZv3maRWiNy0FalsvO45xxgdqzrSLj5v0rUhAAAHapbuUkTqG2sS+ODg46DFGRu3AkZJHPc9KcAdpOc8elDBuNuMd6kZTniRTkKenTP41j3oxcQcEfvU6/wC8K27npWLe/wDHxBz/AMtU7/7Qpx3B7GgRWD4sH+iwD/pr/Q1vVh+LP+PW3/66/wBDXVP4WYQXvGXp/biugtBnFYGn/eFdBadq5ToNKJQcE9jkVb3BV3Gq0ParSjIwaQDz0qCb7tWD0qvNyDQIzZiVJZULHHqRUcBLQRsepQH9KW9GFO44H1xTbUD7NDj/AJ5r/KtaK95sirqkLP8A6iT/AHD/ACrjrD7612M/+ok/3T/KuOsPvrVVt0Kl1OhtFBwfpWtbrhQAcdzWVZ9BWvCDgYOKxRqW4CCWwfw/E81OOhqGHO48cYH9am6A0gKsjjlQ5yOd2P0qlcoqtvA5Bz1rQkDlTtwG9SKoXf3TmgCouWLlk2kt65zQRim24GH2n+I989hUhHrXZTXuI5p/Ezk7/wD5Clx/v/0Fa1j0FZV8P+Jrcf7/APQVrWPQVyy3Z0R2Nm1HAq/HVG26Cr8XWkxkwGRSMO9OUcYpH6UgKU7GM7h29aoXLO5VzFtGCN27Ofwq9c96zH2eYMHnByN3v6VUF76Jl8LEIFYPiAYuYP8Acb+Yre71heIf+Pm3/wBxv5iumr8JjT+INP5UZrdtU4O1iCR+VYenj5Vretc4464rkOg0Iuqrnn+dW1qrFn5fXufwq0vamgFYVBPIQu0VYaqs4psDKvyUAKx4DMF5JNVcVPqGcrz/ABjjNQ4OOtbUFZMxrbjrcD7RFn++v866LxQiiwjKj/lsP/QTXORt5UqSEZ2sGx64NaWq60mpW6wLa+XtcPndnPBHp705xbnFomMkotMyKQin4FNrcgZUN7/x7t+H86sEZqvejFu34fzprcT2MwjFJTqQjNbmTQwg0nSn00g/WgQwj2opxBpOaQxuKaRinmkIzTGMIpNpp5HtSUAQ0oGaMU7A9KCBAKWilxQOwlO2ijGPeloGFKB7UYpaBmvbjEMf+6P5VJTIP9TH/uj+VSAZrnZqhKUD1pcUtKwrjhE5XcF49abitCG1maz80D5dpP8AOqNRTm5tp9C5wSsxrjCN9DXP2P3lroZPuN9DXPWP3lrOtujSl1Ojs+grXt1OAc1kWfati3PA44rA1LiAnIBqwo4xUMZxgeualQ7hmgBklZ93901oSVn3nQ0CMiAfNJ/v/wBKmqKD70v+/wD0FTV2U/hRzz+JnN3gxqc/+8P5Ctix6LWRe/8AITm/3h/IVr2H3VrlluzeOyNq1rRiArPtelaEXWoKLA6VGUPHznANSL0prt046/pQBVuDhSQOaxWybw5/un+lbVwCVJ6DuaxmH+mHn+E/zFXT+JEz+ElrE8Q/6+2/3W/pW6BxzWH4i/4+Lb/db+ldFR+6Y0/iHacwKAEcit207VhacuACDnvW7adq5DoNKGrKq2OG4OfwzVeEdKsq3y5x0oAeeABVef7pqweQDUE/3TQIx7pwjgFQdzAfTmpAKZdJukUggbWB/Wpa6KOzMqvQzPEP/ILkH+0n/oQrI0/7wrY8Q/8AILk/3k/9CFY+n/eH1qavxFU9jobQcCtaDoKyrPoK1YaxNC3GvOQT1yeal2/IAxJ96iiYEkelS7soGUE56UARSA8kmsu9zhsnjFakh7d6y73kEDnigCDTB/oaZ9X/APQjViTHlPx/Cag0wf6Gn+83/oRqxL/q3/3TXZH4Uc7epxGnnG010lmBxiuc08A7cntXR2Q4Ga4zoNi36Cr8VUbfoKvRCgQ8xsclXPORStTt+FY4+71FNbpQMoXeQDjGaoWBBubg4xwn9a0LvGDkgVn6epFzcZ9E/rV0/jRE/hLwFcdrH/IauPqv8q7OuM1n/kM3H1X+QrWrsRT3L9h91a3bXoKwbNtsYbGcVsWxLHntWCVzVuxqxFcjkVaHSqUNW4iQeSaLCuI8bHPz8Hp7Vn3cTqWxKTk557f5xWjI/BIH3TyKpXbBhnH49xSGYhH/ABMoPq3/AKCa0sVnsj/2lASuOW/9BNaQRjwFNd2Ha5Dmqq8jC8UjMNqOf9af/QTUFg67RtXDDj2q74pTZaW+evmn+RqhYjYN5PGM5rmr2c7m1JWib1r2+lacTLxyKx7Ql9pbFakHSosVcvr90U89KiiOO55qU9KWwytcfcNYGpuERyVBGO9dBMMqQe9YOrQsY2CnPFAMvAVR1z/kEXf/AFyb+VX8ADmqusxsdKuvlG3ymzmvSm0os446s5PSvux8EcdDXTWnSucsiFIPoOgrdtGL4JrzdzsvY3IWGByPzq1GnYMcc5Gaowdquwt8pck4Hr7U7BcmYEFTuOOmPWoJlLIRnFWcB0HUZGagmO0HNJMTRkXgKgsxz9elNsZF+yK5AAy3Qf7Rp95lsrjntT9KiKWi7sE5b/0I1vQaUvkZ1E2i1XCcC+mJH/LZs/ma73bXAv8A8fs+AT++fgfU0Vdh0zds8YG3ge9bFsy4HI/OsCzcttzgH09K2rbtWKRdzUiqdarQtj1q0OlJoZA+O1ULv+LjntWlIuMsMn2rOu1YgkDp1z2pisZFoc6k+Rz5Rz+YrVgJO75eAcZz1rMsoXOouVIwYzz+IrawAMCumm/3aSMJr3rnH+JP+Qx/2yX+ZqXT/uiovExA1gnniFf602wcuF9K55L3mbRdoo6O1K+o/OtKIccVkWg4/KtSA45JJFTYq5bVflI9aQo3B39Dk+9PHAJprvjGejcDHrSGV7jGOelYd4SbiDdj/XJ0H+0K3LgErwMmsS8H+kwc8+amf++hTW4nsaWKwfFn/HrB/wBdf6Gt+sHxb/x62/8A11/oa6p/CzCG5maf1rftO1YGnda6C07VyHQakNWYwR361Whq1GcjjtxQA81BN0NT1BN0oAyr2TywSQGGOhFJbHNvEcYyinH4UXyGQEKRnHei1GLaIHsi/wAq1o7szqOyFuB+4k5/gP8AKuMsPvrXZz/6iT/cP8q4yw++tVW3QqZ0Vn0Fa8IJ24bGD+dZNn0Fa0LAbRg8msUalyFSOSSeMVOahiPJGOgzU4GRSArSxsejnFUbs4XNaEr4BIHTqKoXgyCBQBRtnDiQhQuHxx9BUp6VDaxlBICQcuTx9BU5Ga66fwo5p/Ezkr7/AJCtx/v/ANBWrY9qyr//AJCtx/v/ANBWtY9K53uzoWxs23IFX4cdhVC26ZrQhqBk69aR6VetI9AFC571mSTI0oiEYXCk5xz1Falz3rLaBknEjMPmUjHfqKqHxImXwsSsLxD/AMfMH+6f51v49KwPEXFzB/ut/Oumr8JjT+Idp/Ra3bYZGAccVh6f91a3LYgDOK5Tc0YVOQS1W06VVhPTjrira0DBqrT96tHpVWehgY+pSBiihQMOO3vUNTajGyspbH31/nURGK3obMxq7iEdMUhVgMkU5QSwA6k1YuraaGMNL0LYq5z5ZJdyFBOLZUppFONFaEJjMGoL3/j3b8P51ZIFV7wf6O34fzqo7g9jLPWkp9IR6VuZjcU0jFOoxQIYRTSAKfiigWxHjNIRTyvekpDuM5pNtPIptMZFRSgUuMdKBJCAU6il20AIPwpQPWlpcGgYgpwGKMYpe9IRrQD9zH/uj+VSDimwf6mP/dH8qfWBrcBzSgYpQMUUBY6vT4Yz4eDnr5Mn9a4eTWtJhkaKXUIFdCVZS/II7V2FlqmmxaL9lkuCJvLdduxupzjnGK8O1n/kL3v/AF8Sf+hGuanzRcrrqbTs0rHey+INEWJ2fVLcAKSTvFcjZ+O/BsbgP4lsFx6zCsCf/USf7h/lXhD/AOtP1qa03oXTjY+trP4g+CBgnxTp3/f8VrwfEPwRxt8U6cR3/fivkK1+7WrZ9BXPzs1sfW0fxC8DAc+KtO9v34qQfEfwLj5vFemA+nnivlIdKif79HMxWPq+T4jeAx18WaZ/3/FZ918RPArA7fFemn/tuK+W5+lVmo5w5T6msPFHh27SSa31m1kQvgMsgI6CrY1/ROo1S3/77rwvwUMaKOeszfyFdHH92uynP3UYSjqdHqvjPwpa6vPHc+ILGJgw4aUA9BWhY/ELwQFXPinTh/23FfNfj0/8VReD0K/+gisu26CuWU9WbRWiPsG1+IngYcf8JVpv/f8AFaMXxD8D/wDQ06b/AN/xXyFajk/hWnH0qecrlPrFfiN4EX73izTR/wBtxUS/EfwOcl/FmmDLcDz16V8ozdKjPQUcwWPqqf4jeBD/AMzZpmO/78VRtfGXhO+vmWy8QWU5VCTslBwMivluXoa6P4e/8heb/r3P/oS1UJ+8iZR0PpH/AISDRP8AoKW//fYrnfFfivw1Zy2r3Wt2cQIYAtIBnpXI1578WT8lgP8Af/pXRUn7plCPvHs+n/ELwMqgf8JRp+7vmcVt2vxE8CgjPivTf+/4r48tvv1qwdRXLzG1j7Ch+Ingb/oatN/7/ip0+IvgfJLeK9MAHQeetfJkPQVI3SjnDlPrL/hZHgLH/I26Z/3/ABVef4keAiDjxbpn/f8AFfKHY1WfqaOYLH1NL8QPA00yqninT2JYYCzA5Oa1P+Eh0POP7Vtv+/gr5K0eIS6paxsSA0yDj3YCvX4uT+Fb0ZbmVSK0PQ/EviPQYtHmkk1a2VVKkkyDAG4VzFj8QPBKMN3ijTh/23FcV47OPC19/ugfqK8Ri+/+NTVm+YqnGyPsO0+IvgUAZ8V6b/3/ABWrB8RfApxjxXpv/f8AFfHVv0rWtqy5i7H1wnxF8E7xnxVpoUA/8t156Y/rUx+JXgILj/hLdLz6faBXyaPu1Xb79HMFj60f4k+AhnPi7TD7+etZt58RfArKQnivTSf+u4r5Ykqs/WjmCx9d6V4i0J7CKRNWtir5ZSJBggkkGrMniDRCjD+1Lfof4xXj3hzDaDYf9e6D9K0X4jb6GuuMvdRzySuXbXx14NtpPKufEtgjodrKZhkEdq37P4i+BcA/8JVpo/7bivknVDnVLlvWZz+pqe2+6K5OY6LH2Nb/ABG8BkAf8JZpv/f8Vfi+I3gT/oa9N/7/AIr49tetaMPT8KOYfKfWS/EnwOJG3eLNLC4+X9+vNK/xJ8A4/wCRt0z/AL/ivkmSo3o5hWPqy6+JHgJs/wDFW6Z/3/FN0Txb4ZvZbma01yzmj+VdySgjPPFfJMvU16D8MD/oF4vpKp/Srpy95EzXun0V/wAJDof/AEFbb/vsVwniLxp4Us9cnS68QWMTHacNKBxgVjV4v8U1x4of3iQ1rVnoRTjqfQUPxG8DRqhPivTQoPzfvxWva/E74ejg+MNL/wDAgV8exxiVDH69KbHG8cm1xgisFNmjjc+14fib8Pu3jDS//AgVYPxO+Hm0hvGGl4PX/SBXxpBV2GAytub7q8/Wj2jDlPsEfErwKWYnxdpe3PH79aqTfErwMd3/ABVuljngfaFr5R/hqpcusYLOcAClzFWPq+z8ceEL/VII7PxHYTONxwkwJxtNb/8AwkWhf9BW2/77FfIXgC/kbxTbhFCgpJ7k/Ka9aS7kU5b5h6V00W3EwqWTPQfGvizw1aWdvJda3aRL5uMtIAOhrn4viL4DjiTPivT1APzEzj/GvLPi5KsugWjAYzccj0+U15MsYljKHvWVWT5jSC90+wbP4nfD0AZ8YaX/AOBArVg+J3w9I48Y6X/4ECvieKN4iEcYIrTtfuip9ox8qPtIfE34ebcHxjpeMY/4+BU//Cyvh+BgeL9M6f8APwK+ObaAzHJHyryferLcPUubY1Gx9bTfErwBj/kbtM/7/ism9+IfgWYMieK9OYngATjmvliXoazXv9twiw9mGW/wo5h2PtweIdC/6Clt/wB9iqWu+JNBTR7x31a2AWFiSZBxxXk4nm4PmGqPiS7J8OakkmObZ8H8K7pN2OSK1Oli+IfgmLaW8U6aqg/NmccD/wDXitmz+Jvw+CgHxhpf/gQK+QnQS74z/ECKijieJtjjBFcSmzpcUz7at/if8PTjHjHS/wDwIFW4vid4CZmDeMNKCYwB9oX1P9MV8WWv3hWvZQGZ8kfKOtHOw5T7JHxK8AKgH/CXaYOP+e4qGb4l+Adp2+LtLJ/6+Fr5JnIVckgAVl3d67EiI4X170uYqx9cXHxH8CMmD4t0wn2nFaWkeKPDlzp8c1trNrJExbayyAg/Ma+JGurhSD5pOPWva/h3c+d4VsQ4AOJMe/7xq1oy94zqLQ98/wCEi0P/AKCtt/32K8x1Dx54Ps764juPEthEyzsHDTAEDJqDFfOvi9RLr+ooejTuP1NVWnsTTifUNn8Tfh5hceL9MB7/AOkCtq2+J/w9wP8AisdL/wDAgV8SxQyQuUdSOeD61pQfw1lzmnKfbMXxN+Hp/wCZw0v/AMCBVxfiT4BCj/irdMxj/nuK+NLCAzOM/dHJP9K1JQAuB0ApObY1Gx9av8S/AGP+Ru0v/wACBVC7+JPgMhgni7S8n/puK+Sri5SFcdWPQVlTX1xuYAgA+1LmCx9i6P4y8K3+oSmy1+ynCR8lJQcZIra/4SLQv+grbf8AfYr5d+El4Wk1EzAHAiGR77v8K9O4PIrppSfKYzS5jZ8b+MvDGn6oGu9esoQ0S8vKBxk5qlp3xK8AKoDeLtMH/bcV4r8ZAJNVt4z0Nvj8ya8wjheFgjqeDwexrGU/eZpGKsfbFr8Tvh6Bz4w0v/wIFaUPxN+HxHHjHS+R/wA/Ar4nh6CtnTYDMw/ujkn+lT7Rj5UfZ6fEjwGIwR4r0zpwPPH4Uh+JXgPv4u0vqePPHAzXybgBcAcCq7/eNLmHY+srj4leAsHb4u0zP/XcVlnx14Nvr63gs/EthNI0inakwJODk/oK+WJ60vBp2+J7E/8ATQj81NNS1BrQ+tP+Eh0P/oK23/fYrn/Gfifw9b2EM0+sWqRrLyzSAAcGuLrkPiiR/wAIs/8A11T+ddU5e6zCEdT0Kw+IXghD83inTh/23Fb1r8RvAnH/ABVem/8Af8V8dQ9a07ftXJzG9j7Gh+I/gM9PFmmf9/xVr/hY3gbZ8nizTc8f8t1r5Atu9Xl6Ucwcp9aN8SfAIHPi7TP+/wCKry/EnwDt48W6Z/3/ABXyZMMmoZRhTRzBY+pbz4ieA5FI/wCEs00/SYVpWniHQzawn+1bbmNf4x6V8et1Fe3acwbTrU56wJ/6CK1oy1ZnUWiPVLrxJoKW0rvq9qAqMSfMHHFcBZ+PvBaOofxPp4I7GYViX3FpcH/pm38q+fGGLkj3p1pPQKcdz68tPiL4FAGfFem/9/xWtB8RvAeBnxZpn/f8V8cwdRWlF2rHnZrY+wIfiL4HwQ3irTfY+ePX/wDVU/8AwsjwGoOfFmmj/tuK+SoPu0T/AHDRzC5T6sf4k+BixP8Awlml7ccf6QtUrr4j+BGB2+LNNP8A23FfKx+5VV+KOYbifWmm+KPDN3C89lrdpNGXI3LIMZwKtf2/ov8A0FLf/vsV4R8PTnQW9rh/5LXT11wl7qOecdTa1jxr4TtdYuY7nxDYxsH5DSgHoKu2XxD8DgDPirTf+/4r5q8fHPim+/3x/IVlQda5pT1ZtFaH2HbfEXwKF58V6b/3/FX4fiL4F7eK9N/7/ivj+L7taVv0qeYdj62HxF8Cjk+K9N/7/imN8SPARz/xVumf9/xXyk33TVU/eo5gsfVVx8RvAfP/ABVmmf8Af8VVtfGXg+/mK2XiGymlVSWVJc4XI5/lXyrP1NdL8OT/AMTe4H/Tsf8A0JaqEveQpL3WfSB8QaIOuqW//fYrmvFfizw3Z3Fu11rdnECrAFpAM81yM3UfWvPPirkx2Jz/AHx/KuirN8pjCOp7TYfEDwQqjd4o04Y/6bity1+IngbH/I1ab/3/ABXx7B9z8a1bWuXmN+U+vYviL4H3DHirTSP+u4q2vxD8Dd/FWm/9/wAV8j2/Wro6UcwWPqtviP4DXg+LNNH/AG3FVZ/iN4Exx4s0z/v+K+VLj71V5qOYLH1BdePvBM7RrF4o095C6jAmB71b/wCEg0T/AKCdv/33Xyxo6CTVrKNjw9xGP/HhXrBHpXRQnozKpG7PVtP1XTLy9igtr6GVyw+VWyTzXVeJIUjsYynUygfoa8d8CsqeJLdmOAAxP0xXreu6hYXdokdrOXcSBiNpHGD6irldziyVZRaMLFNxTqD0roMbDagvP+Pdvw/nVjFV7wZt2+o/nTjuJ7GYRSU+mkVuQNIzSU7FIRQA2kxinY70lAhtIR6U4ikoFYYR2pMU8jNNI7UAiKjjPNKBS0FCYGaWlpeg5oAQClApfwpQKQhAPSnYFGKXGaYjVgGYY/8AdH8qlxTIP9Sn+6P5VXnvWRykaj5Tgk1gk29DVaIt0VFbz+ep4ww6ip8Ck1YoQCvMNZ/5C97/ANfEn/oRr1GvI9d1nR4dbv4ptWs0dLmUMrToCDuPBGeKibsiokc4/cSf7h/lXg7/AOtP+9Xtk+u6H5EgGs2J+Q/8vCen1rxhIPtLGW2YSKTnK81x1tbG9Mt2v3a1bPoKz7WzvXZYorWSR2ICqqkkk9ABW5b6D4jjOxvDupbh1H2V8j9KxNRyjIqF/v1of2N4iA58Oan/AOAkn+FV30jxBvx/wjup59Pskn+FFhFKfpVZuBVrUrbVLDat/pF7bF+VE0DJke2RWdJPIASbeQADJJXGKBnongoE6KP+urf0ro1KgYJNch4C17SF0eRLjUbSJlnYASTKpxgepq/r/jHTtOSFrPU9NcuxDZmU46ejV1Qdoowluee+PSv/AAlF5yfvL/6CKy7UjAp+taquveI7p4p7eRjg4iOew6c1Jb2twhGYGx/umuaW7NlsX7M5J+tacfSq9jofiFo0lj0HUHjlG5HW2chh6g45rTj0PxHj/kXNT/8AAWT/AApWHcpTdKjPQVdl0fxCeB4c1M464tJP8Kr3Wn61ZW/2i70LUIIhgGSS2dVz9SMUWApTd66L4e/8heb/AK92/wDQlrl5J5Gzi2k/75NdF8PbpItYmFwPJBt2IMnyj7y8ZNVD4kTLY9JAzXnfxa4Onj2k/mK777fY/wDP7B/38H+NcF8TzFfNYrbSrKVV87DuxyOuK3qP3WZwWp5/bffNakHaqUVjco3+qb/vk1r2Gka1dxmaz0i8uI0O1nigZ1Bx0JArmNi5D92pT0qaHQvEijnw3qf/AICSf4U99F8RLx/wjmp5/wCvST/CizEUOxqs/U1o/wBj+IgrMfDeqAKMsfsknA9TxWO9w5zi2l6/3TQBoaF/yGLQf9N4/wD0MV65HgHJrxnSNRhtNbsWuwIUa4jBMh2jG4c816nqfijRbWwmuINW05pI1yoNwp5/Ot6OiZnMqePnx4WvP+A/+hCvFIm+cV3niXxxFqekSWL32nlZSgPluC33h/tVxcVnK37yJN656qMioq6yKgrIuWxzWtbdqz7Oxv5rn7La2M88jEhUjjLMcegHXity30DxKBk+HNTwP+nWT/CsygH3art9+tI6L4jVefDep4/69JP8KrtoniTfx4Z1U/8AbnJ/hRYCi9VZOtT3RuraVoLixuIpUOGR4yrKfcHpVJ5Zcg/ZpeOfumgZ7P4WOfD1if8ApkB+tacv+qf/AHTWJ4Xv7RPD9is11DG/lDKtIARz3FacuoWBicfbrflT/wAtV/xrri/dRztanz3f83859ZG/nVm2+6KL3T5mu5XRGILkg7TT4La5QYMLfka5Dc0LXrWjF0plv4d8TKf+Rb1M9/8Aj0k/wq8mheJVH/Itap/4CSf4UWHcoy1G9XpNF8RkZXw1qp+lpJ/hVG+g1PTyq3+kXlsXGVE0LIWHtkc0CKcvU13/AMLz/ol8P9tP5GvO5JpTki2l/wC+TXa/DDW9Lgi1BLvULa3OYsCWZVz97PU1dP4iZbHo4Ga8Z+KoA8UNgdYUP869Y/4SHQP+g5p//gSn+NeT/Eqay1DxLusb6G4zAn+rcMO/GRWtX4SIbnL2vWtJY0k2h1BAqnDaXKH/AFLfka2bTRdeuIUubbQ7+WFzhZI7d2VjnGAQMHmuc2JLe1gX5vLFWHGFwOlOXS/Ecfyjwvq7H2spP8Kd/Z3iGT5P+EY1cN6Gyk/wosxXKn8JrI1VyXWMHgDP41uXOn63Z25uLzQdQgiBAMkls6rz05IxXPaq8xZZVtZSMbT8p4oA1/h5/wAjVa/7sn/oDV7AB2rxj4f3Qh8VWjXKNChEnzuNqj923UmvX/7T03/oIW3/AH+X/Guug/dOer8RyPxXYro9oo6Ncf8AsprzK3r0z4lvBf6Vara3EcpW4ORGwY/dPpXncdjcx/8ALJj/AMBNY1vjNaXwlqKNJFVXUEVoWtrAOfLFRafpWsXob7DpN3c+UAX8mFn256ZwOOlaaaN4kiQN/wAIxqrZ6bbSQ/0rIseAFXCgAe1Vm+/U7WXilRg+EtVz2/0ST/4mmx6X4lmfB8Kawrehspf/AImizC5n3rmOB3HXHFYaf65R71s3bSkPDJaTKwyrAocg1zkt6LSZWuo2hAP8fGfzoA+ix0rJ8X5HhjVCD0tn/lUw8S+HB/zH9O/8Co/8azfE+u6DdeHtRt4NbsHeS3cKqXKEk49Aea9GT0Zyx3R4vbOZArt1IzWnEiSAK6hh71VtrFyoMB8xRxlRmrcEV9JOlpZWE91cPwsUUbMxxzwAMnvXnHWi7a2sCtuEYrWiAVcAAD2qjbaX4sLf8ijquAcHFpJx/wCO1rQ6R4jZN3/CM6qv1s5B/SizEZWqNiEKP4mrJl6V0eoaB4mlhwvhjVSQQR/ocnJ/Kubv01CwlNvfaXd20oAbZLCyNjscEZoAqScV7J4AJXwrp5Bx/rP/AEY1eKyTTN0tZf8Avk17L8PL20bwtp6SXUULjzNyyMAV/eN1Brag7SdzOpsdwDkZr508TnPiC+/6+JP/AEI19B/2npv/AEELb/v6v+NfPXiZml1y9ktUaVTcSfMAcH5j09adbZBTI4kSQbXUEe9XoLSAEMIxx2rJguLtG+ezbHsDXT2WieIbmOOa38PalJHIodGW1kIZT0I45HIrA0J7cBQAAAPany/dq1FoPiZR/wAizqnH/TpJ/hSSaL4kZePDOqn6Wkn+FFgOXmfzGZ/U8VRm+8a0dTsNX0v5r7RL+2jc/u3lt3RW78EjmsiWeUk4tZf++TQB6D8Jwxl1FhjZtjz9cnH9a9RtGZkIbopwK8h+FOu6TbHVI73ULa2ZTCMTTKmfv9MmvULTXdBRCza7p/znIH2lOP1rrp6U0c8/jPNfi+f+J5APSAfzNcTCiSKFdQR712HxSvLDUNdRrTULeZVgXmORWHU+hrjld4iAkEj++01zT+Jm8djQhs7fg+WPpWvaKqoFVQB6CqWl2OralD5tjo19OgbaWjt3ZQ3pkDGeR+Yrag0DxMmA3hrVM+n2ST/CpGRnpVd/vmtI6J4jHH/CNarn0+xyf4VUudK1+3R7i48O6nFEgyzvayKqj1JIwKLAjPnq/wCEjjxJYH/psBWTNcSN0tpP++TV7wxcNH4gsJJIWRBcJlmGABuGSTQtwex7ZiuN+KnHhn6zLXV/2lp3/P8A23/f1f8AGuV+JMllfeG3WG8ieRJUIVHDE846CuqbvFmMdzxuHrWnb9BVVLC5Tnym/wC+TWlp+m6peSeTZ6dcXEiruKxRM5A6ZwB05FcpsWbWry9KS10DxLjcPDepkHuLSTH8qt/2J4jQfN4b1Qf9ukn+FFmO5ny/eqvKRyDWlLoniUnjwxqx+lnJ/hWQ8knmvFJaTKyBsqUIIIB4P4igRCSu8c969q0llOlWRz1t4/8A0EV4dJdCLEk0JjXPVhgV2umfEZI9MtU+3aYu2GNQGkGR8o6/N1rWk7Miaud5qAH2SfB6xt/I189v/wAfTfWve7nxDoElhKTq+nlmhbgXK9dv1rwpbc3EjTW7CRc5+XmnW6Cpk0HUVpw9vpVG2tLx5Y4Y7WSSRyFVVUksT0AHc1txeH/EwcofDep5Xgj7JJkfpWJqSQfdon+4atx6H4kVcnw3qn/gJJ/hTZtG8RlePDeqH6Wkn+FFguZh+5VWTpVq9t9S04rHf6TeWzOMqJoGQkeoyKz5JpT0tZf++TQDPTPh1/yApB/08t/6CtdRXJfDq9t49CkW4lSFxct8sjBT91eea6c39iT/AMftv/38X/GuqD91GEtzxfx9/wAjVff74/kKyoetbXjW2a78S3s1vl0Lj5lGQeB0NZUdrcqeYW/I1zS3ZtHZF2L7taVv0qKDQfETxRyReH9RdJVDIy2zkMD3BxyK0IdC8SKP+Rb1T/wEk/wpWAib7pqmxwxz0rVbR/EOP+Rc1P8A8BJP8Kz7zT9ZslFxeaFqEEO4KXltnVc+mSMUWApTlc9a6P4clf7XuMk/8e5/9CWuWlnkbn7LJ/3yak8LeLk0rWrqJprWJhCw/fNjHzLx1HNVD4kKWx7LIFI4JyPavO/ir9yxH+//AErrNF8V6TfWK3F1qunLIWIIFwo6fVq474n6hpd9JZR2mo2r7Vcny5VYdR1wa3qaxM4bnDwfc/GtW1rJRoUGPtMJ/wCBitzStP1PUYTPpum3N5GrbGeCJpFDdcZUHnkfnXNY2LVv1q6OlMg0TxEv3vDupD/t1f8Awq3/AGVr4H/Iv6j/AOAr/wCFOzFczbj71QS9KvXWma4gaSTQNSVEBLMbVwAB1JOKw5NYsyOJU/77FKzC5paH/wAhuw/6+I//AEIV6xjnNeNaJq9lHrVg0s8aL9pjBYuMD5hyfavV/wC3tD/6DVh/4Ep/jW9HZmczqfBo/wCJ9Ef9h/5V6HXmfgXVdLu/EUUNrqVrNIY3ISOZWbGPQGvTK64PQwluIRxTafVe4n8ohVGTjvVpX0RLdiWoLwYgb8P50W9yZG2OBn1FLd/6hvwppWYnqjMI70lPPrSEZrYyGUhFOIxSEZoGNIzTaeR7UmKYDKCM04im0CGkEUmOMCnmm4NANENKBS7aB060gADvilxmlAz70oFFhXEAp1FKBTDcAM0tA4ooGjVh/wBTH/uj+VVZrKUyFowCpPHPSrcA/dJ/uj+VSgYrBOz0NbXRXtbYwgs5+ZsZHYVYopQKTd9R7BivMNa/Z0+Huu6xfa1fa1rsdzf3ElzMkU8IRXdixCgxEgZPGSa9RrFuf+QhcfVf/QRXPiJqnC9rjUnHY87/AOGXvhn/ANB3xD/4Ewf/ABmnL+zB8Nl4XxB4iH0uYP8A4zXoNFcX1lfyj9rI4zR/2d/AOi6la6rZ+IfEBmtJknQPcwlSysGAI8rpkV60l7HGSyXJBPsv+FcxTgOKaxSX2Re0Z1R1RiMG7/8AHV/wqI3UTNuNxz+H+Fc3RR9aX8v9fcHtGZ3xB+GHhn4kzWs2uaxqlubRGjQWcsaBgSDzuRvTtiuQH7MPw2/6GLxIe3/H1B/8Zr0Cq9r96T/eoeJT15R+0Zw3/DLnw07a74i/8CYP/jNQ3X7Kfwuugol8QeI12nIxdW4/9o16Tiqeofei/H+lZVMWoRcuX8Re1kjgLX9lD4W2svmReI/EZbGMG7t/6Q1d/wCGYPhwCCfEXiPj/p6g/wDjNdVY/wDIQX/cNakv3PxFFLGKpG/L+Ie1ka/hvTNO8MaNY6Hp93M8FhAlvG8zKzlVGAWIAGfoBWsNRA5F1+i/4VytOArX60v5Q9ozpTdxEkm45PXgf4VgeN/Cmi+PdBk8Paxf3cNtJIkhe1dFcFTkcspH6VD2oA96PrS/lD2jOOtP2evBVnALa28U+IljUkgedbHk+5gzU3/Cg/CP/Q2eIv8Av5a//GK6ygDNT9Yj/KP2sjk/+FB+Ef8AobPEX/fy1/8AjFH/AAoLwj/0NniL/v5a/wDxiuuwOtFH1iP8oe2kci/wA8ISwSWz+K/EJjmXY4821GR9fI4rqvh/8P8Aw78ONNuNM0TUb+4juZ/tDNeSo7BtoXA2qoxgelSU4A5prEpbRE6re51H24drkcew/wAKRryNzua4BI+n+FczRR9aX8oe0Z0N2tpe2s1pLcMEnjaNipAOCMHHHvXjo/Za+GvT/hI/EnP/AE9wf/Ga9BqCb/j5i/Gn9ZT3iCqM4Y/ssfDVvveIPEZ+t1B/8ZqOf9lL4YzRNHJr/iIKwwSLq3/+M16MKivP+PaT6f1qJYpJN8o/as8zi/ZF+FMcqSL4k8SFlOQDd23P/kGtAfssfDYDA8Q+JAPa6g/+M108f/H1B/10Wtxh8prKljVUV+X8Q9rI5Xwp+z/4F8IeI7XxPput65Nc2jOyJcXMTRncjKchYwejHvXqYuo1Xas4A9OK5WL/AFafSngZrf60kvhF7RnVGcSqAZSy/QUhZSclj+VUNMH+hJ9W/wDQjVsDNd0EpRUu4+dnmfiL9nnwX4m8SXPii81rXoLu6lEzLBPCI1YAAYDRE44HUmmH9njwrn/kafEn/fy1/wDjFeo4xRTdKL1GpyPJbz4EeCrHZ9p8WeJV35xhrU9P+3f3qv8A8KX8Af8AQ4eJvztv/kevQ/FPW2+j/wBKwawmlGVkjvo0lOCk2zmv+FL+AP8AocPE3523/wAj1UvfgF8MdRlWe78U+KHdVCAiSBeB04EArsKXFTdLoafVo92ddba/pFrEsMVxJhRjJjJP8qm/4SfTDkG5fB/6Z/8A1q4wA9KWjnb6C+qw7s64a/o4GBO/PP3D/hXD/EXwD4E+Jt3Z3mu6xrFu9jG0cYs2RAQxBOd0benbFWqKfN5B9Wh3Zw3/AAzl8Jv+hl8Uf9/4f/jNJ/wzd8Iv+hh8T/8Af2H/AOM13VFK/kV9Wj3Zwv8Awzd8Iv8AoYfE3/f2H/4zQP2bvhGDkeIvE/4Sw/8Axmu7x6UAYouH1aHdnD/8M4/Cb/oZfFP/AH/h/wDjNejeDbXwt4C0K28MaTqV9Na2hdka5UPIS7lzkqoHBPHA/GqVVZVKyHJJzzzVRlZkvDQfVnbDxZpOc/a3/wC/R/wpv/CTaKWLm5fJ4z5Z/wAK4iir5/JC+qw7s2/Gdh4S+IPh+Xwvq2oX8FrI6Sl7UBJAVbIGWVh19q4W0+A3wzsYWt7bxX4nWNm3EF7dsnAHeD2FdLajMh4PA61axWcpXeqKWGitmzjT8A/h4SSPGvioA9s2vH/ktQPgH8O+/jXxX+dr/wDI1dkAKGYKNzcClddg+rR7s5hfgj8PEG1PFvicKOgzbf8AyPS/8KU+H+GX/hL/ABPh1Knm26H/ALd66I3MajIJP0FSI6P91s0n6B9Xj3ZB8O/Avgb4XtqE2g6tq1y2oLGJBesrhfL3Ebdka4+8c9e1dmvirR1UL9rkOPWI/wCFcow3KR2IxVHGDzVxnpsS8LB9Wdw/ijRZCC9y5I6fuz/hSDxNoo5F1Jz/ANMz/hXEY5pcelWptbIPqkO7OYu/2ffhTqd3cajN4j8TiS5leVwksQUMzEnAMPTmqV3+zD8HbwDzfEXijcOjedDn/wBE139uG8pdwIPoR0qXBrG/kV9Xj3Z5j/wyn8G84/4SXxVj/rvB/wDI9Wrb9l/4NWo/d+IPFG7GCxmhJP8A5Ar0THejbRzB9Xj3Z5/N+zf8I0j2jxP4pTedoImh/wDjPpmrngv4GfCzwL4nsfFmk+JPEs95YM7RpdSxtExZGQ7gsKk8Me45rr7mMPHuJ/1Z3D8j/iaq1cZW1sJ4aL6s7lPFGjRqFS5cAf8ATI/4Uj+KNHZNv2l8enln/CuHo+lW533SEsJBdWd6viHSCFPnODjpsP8AhXmHj/4N/Dj4jeJx4s1fXtftb0Rxx7bOSNY8J904eJufxroVB2gHrilxWXP0H9Wh3ZxX/Cg/h4WJbxr4q/O1/wDkarEfwO+HcQwni7xOM+9t/wDI9dbijFK67D+rx7s5C4+Cfw9KGNvGPihQw6g22f8A0nqp/wAKK+G3/Q7eK/8AyV/+Rq7K6X5VYnocVXqla2wfV492cXqX7O/wr1Yxfb/GHi2TyQVTEluuAf8Adtxn8a9a8NXnhvwtoen+H9OvrmSDTraK0jeZN0jJGgUFiFAzhRnAH0rmMe9OjVt4Cjv27CqUrLRCeFg92zvv+El0vn/SH56/uz/hTP8AhINHwR5z88/cNchTGmjVsE8io532D6tDuw+J3gvwP8VtNtNM8QanqltHZSmaJrIqjbiMc7kbivOP+GWPhB/0NXi3/wACIf8A4xXoyXEbnHI+tSUObvqg+rQ7s82i/ZW+DKPvbxF4qcjnDTQYz/34q5/wzZ8Ien/CQ+J/+/sP/wAZrvPejHpRzD+rR7s83u/2afg9O22TxP4qUKeizw4/9EVB/wAMxfBv/oavF3/gRD/8Yr0GZSsrDPemVaa7C+rR7ss/DXwx4H+FmkT6LoGq6pdQ3Fy10z3xV3DsqKQNqKMYjXtnrzXaReKtIkbi4fKDj92eh/D2rgqntN25vl4wOc96bk7bCWFgtbs7hvEWklsm4fP/AFzP+FZXib/hHPFWgXvh3UL26itr+IxSPANsig91JUgH6g1ikZpCKjnH9Wh3Zx1l8A/hlpwcWfirxQnmY3ZkgbOM46wH1NWD8Ffh/wD9Dh4m/O2/+R66ejGaWnYf1ePdnL/8KW+H/wD0N/ib87b/AOR6uWfwA8GX0RmtvFfiVlDbcl7Uc/8Afj3raxXVeFv+Qc//AF2P8hVQSk7NGWIpKlDmizgh+zr4VXOPFPiTkEf6y16H/thWj4B+B3hH4d6zJrmjanrNzPLbtbFLuaNk2l1bOFjU5yg7+teiYpMGt1Titjh9o2PEu1dobA+gpksqMAJZOO2cCkrK177kH/XQ/wAqmolCLlYXO0aZlg6+cPzFeO3v7Mnw7vNQudSm8Q+IVkupJJHC3cAUF85xmL34rvKr3n3F/wB4fzri+sp/ZEqjODP7Kvw1YYbxD4jI97uD/wCM1mn9j34S4/5GXxL/AOBlt/8AGK9VHQVz0v8Aqj9Kwq45U7e5v5h7WSOaH7KXwxUADX/EXHH/AB9W/wD8ZpR+yr8NBwviHxGPpdwf/Ga9CQfIp9hS1t9ZX8o/as4jSP2avh7omr2OtWniDxA82n3EVzEsl1CUZkYMAwEQJGRzgivXUuIo87JgM/SuXTofrTqf1pL7IvaNnTm7QqVNwMH6VH51uAB54wPcVzhppGKX1tfyh7RmT8RPhH4T+Jd/a6hrmr6pbyWcRhQWc8aKQTnJ3I3NYx+AHhI8nxb4iz/11tP/AIxXXUY5oeJT3iNVWjj/APhQHhL/AKG3xF/39tP/AIxR/wAKA8Jf9Db4i/7+Wn/xiuvxnNBFL6zH+UPayOQ/4Z/8I/8AQ2+Iv+/tp/8AGKr337OfgfUYo4b3xT4idIySoE9suD+EArtqaR70/rEf5Q9rI19A0/T/AA5o9jolhdyPDp9tHaxPMys5RFCgsQAM4HOAK0BfAZxcj8h/hXL0VX1tfyi9o0dKbmIkkzjnr0rnPHXhDQ/H+hHw/rOoXcFuZkm32siI+V6csrDHPpTaiuB+5f6UfWv7oc7OAH7Lvw3xx4i8SY/6+4P/AIzVGf8AZJ+FU8rSyeI/Em5jzi7t/wD4zXpkH+pT6Vl3H+tl/wB81hWxqpK/L+IOrJHG237Kfwvt4hHF4g8RsoJOTdW5/wDaNS/8MtfDP/oO+Iv/AAJg/wDjNdvpI/0TH+2atkVpHFKST5fxH7Vnnh/ZY+GZJzr3iLn/AKeYP/jNd54A8AeG/hxpM+jaHf3s8NxcG5ZruRGcMVVcDaqjGFHb1qU/fH0NOqliraqInUbOg3Wn/PU/mKN9p/z1P5iue5zRwR0qvrr7C5vI2b+10/ULK4sZp3WO5ieFypAIDAg4yOvNeQn9lv4af9B7xD/4Ewf/ABmvQ6KTxd94jU2tjzv/AIZc+Gn/AEHvEP8A4Ewf/GaP+GXfhp/0HfEP/gTB/wDGa9EppFL6yv5Q9rI5jwb8DPBfgbXY/EOiaprE91CjoqXM0TJhhg5Cxqf1r0Gs/TBm4b/c/qK0iveu2hLnhzJWBy5tWNqtdW7yMHQZ4wRmrNFdEZWE1cq29s6N5jnBHQetOux+4b8KsVDd/wCpb8Kd22mK1lYzPakIxTyKTrW5kMNNp5GKQjNADKTFOI70UhjKQj0pxHvSUwG0lONJigCGlAFKBS0EiYApaUDNLgUBYQClopcUDEp2O1AGKWgZqw/6mP8A3R/Kn02AfuU/3R/KpMetc7NUAGMUYxRiloE2KFYjOOKw78Ol9Ky99uf++RXTx2szW/mgfLgmufvv+Pp/w/kK8/EzcoO/R/5lTiopMpb5f8ikaWRRk/yqcVFd/wCqP0rgRmN85/UflSpLM2Tjj6VDH9xfoKtw/wCrFN6AN3y+/wCVG+X3/KpqKVwId8vv+VJGGjztB+Y5PFWQPWlFFwIA8v8AkUyWMzFS+fl6YFXKKTtJWaAoxW6xSiZQ24DFTlpGGDn8qnpwFJJR0SAr75f8ilMsoHP8qnzzjFMmzsNVcZEs7nGCPypRLIxwB068VDF/qxVm26N9ab0HsJvl/wAilDy/5FTiipuSQ75f8igPL7/lU1KBTuBDvk/yKXfL1x+lT0UXAh3S/wCRRul/yKmpcd6QEO+T3/KkYM7hznK9OKsAd6WncZDvl9/ypkjmQGF+jCrY6VQvJEhYSyttVTkmp0a1ARbWIOsgByhyOasLLK+RtIHTpVH+19N/5+l/I1pWjpNCJI2DK3II71MHTWkLCGq0gAUdBx0p2+X/ACKn+lFXe4GxpOTYx7up3f8AoRq7VbTf+PKP8f5mrNe1S/hx9EWkFKBnigCnohdsL1qxnO+K/vWv0f8ApWBXReLo2ja13jqH7/SuewK5ajXMz1sMv3SuAApaWistzcKKKKaQWCigUuDTHsJSgd6MH1paAbCiloxQKwUySESc5+bHFSYFKKAKJjcEgoePahI3k+6OPXtV7jmlx3p8wWGRRBFwOuOfen4H50hZQOSB+NKCCMjmpGGO5qpK5diM/KDwKtsCVYKcEgjPpVHbg7SKcRCY704EqcjqORQBilqxFyNxIu4DHao5IN3KcH0pbXmM4PfFT1newFPyJegX9akjt8MGc9OcCrFFHMwE460w3EQH3s49BUVxI+4oOBjn3qGmo3AuJLHJ0OD6Gn1Qq3BJvXB6jrScbASEAjBGQary2xzmMcelWKPrSTaAp+RL/d/Wp4YNh3McmpNy5xuH50tNtgFFFV7iRixRcgd/eklcCQzxc/Nn8KVJUkHBwfQ9apgetGKvlAvFVZSpGQarPbOD8nIqaCTeuD1FSVN2gKYgkzyuPxqeKBY8ktkmpaKOZsCC4dkCheN3U1WIzU90DuU9sVBVR2AMVLbyBfkJ6nj61FTkH7xflz8w/D3pvVAW8DNGKWkJA5JArMCGeDzPnUZb+dVjG65JUgD2q8CD0YE+1Lz0NUm0MopC8nOOPU1bRQihR2p/44pCKL3ASijFFAWGnrSU40lA7CV1Phf/AJB7/wDXU/yFcvXWeFIt+mud2P3x/kK0ptKWpzYpfuzTopT1pK6TymgIzWZrSBooiez5H5Vp1nayAIY/97+lY4j+EyWYkrbBuFQv+9ADdODUtx/qz9KzhqmnwgRS3Sqy8MCDXjykoq7dhF1pZBgJgn6VVbT4mXaVbH1qS0vbS7kK206uVGTjtV09am0Kmu4iANIABjgcdKN8n+RU9FWMrbnH/wCqjfJ6/pVgim4oAh8yT/IpDJL/AJFT0UCK5eX/ACKTfL7/AJVZppHWi4EHmS/5FJvlP/6qnoNAyq80ikf4U3zpD3H5UXnVf94U0iqWwWHrLIxIA4HtS75P8inW/wB1vrUhB6UmIg3S+v6Uj+Y6lTnB9qnoouBWUyIoUA4HtUD2quzMQ2WOTWhSEVMkpboCnBGbdPLizjJPNP3yn/8AVU9FNWWiArlpM5wcj2o3y+/5VY68UhGKLgVy8n+RSeZKP/1VYpBnvTuBWaZw2CRn6UnnSev6Ulx/rRTaYx6yzNnHQe1L5kv+RUkP3KfSuIm0hmNw5b+5/UVrHms/SwTOwHUrj9a1pbaaFQ0nQnFejhptRiu5rCKcWysRSVKRmmMB2rsaJG1Dd/6hvw/nU1RXX+ob8P51UXqJ7GfTWFONFdBkMPTFNxTzikoAZSYNPxgU2kA3FIRTiKSjcYygjNOPTmm0wIqUDNLiigVgHFFFOANAxAM07GKKKACnYoA70tIDUhH7pD/sj+VSVmrczqoVWwAMDinfa7j++PyFZ8jK5kjQAp2O1Zwup/74/IUv2uf++PyFJQYKSO1sYUbQt56+U/8AWuFvgTdP+H8hXV6frNkujrbS3BExR1K7D1JOO1cre/8AH0/4fyFeXiYuMXfv/mbVGmlYgAAqG7/1Z+lT1Bd/6o/SuJbmSIIx8in2FW4f9WKqx/6tf90VahH7sfWnIB496ngjGCx5zxgiogMVJG5TjGRWuGnCFROpsIkkjXbkKAR3qIcU+SXeMAYFMp4qcKlS9PYSCiilArnGAFHPQilPTijGetAB3ps3+rNPpk3+rNCAqRf6sVatuh+tVo/uCrVsPlP1qmNslqe1jR2JYA4xgGoKkhlMT5xkdx61dGUY1E57CLU0EflsQiggZB6VUHFTSXLSJs2gA9e9Q1riqlOpJOmCCiilAzXKAlPpMUtABilxQB60vWlcA5rJ1td9q6+ta1UNQhM4EO7buOM4zUzi3Bpb2GjlPso9/wA67DR126fCvoorM/sI/wDP1/45/wDXrZsovIt0h3btoxnFcGDoVaUm6isSkT0UUYr0hm5pv/HlH+P8zVsc1V0wH7FH+P8AM1br2qX8OPojToFOjkWNtzdKbSOocYNU1dWBaO5ieL5UlNpsPQPn/wAdrnq3PE0YQ22M8h/6Vh1ySi07M9fDu9NBRRRSNkgoop2PagewgFKBijAooFuFLRjNLigewADpR9BQMdc0oHvQAmCKdik96UD3pCDGKrzzHJjUYHerPqKoLvIDOMMRk59acdQEwT1p6O8Z+U/h2pNvrS1Yi4jB13CoZYCMuvIPJHpTrXGG+tWKhvlGZ/TrT0idyPlOPWrpVT1AowB0o5hCKoUADtS1HJMqZVcFvT0qEzy9mA/Ckk2BaoqBLg8Bx+NT0rWApzA+Y31puKszQljvXr3FV60QBipbYDe3HIHXNRqrN91SfpVqKIxoMgZ74pN9AFZtqlj2GaqvI0hye3aprsuqoF6FsN9MH+uKr0R1AKlhlYNhmyD69qioPTmqtcC7VWYESHPerSgBFx6VHNAX+ZevpUJoCtRR04NKFZvugn6VYEltjzCMHOOvpVimxRlFGQNx605iEGWPFQ7MAoqu1w5Py4ApBcODzzS5WBNLF5oAJwR0NVGRlJBB4q5HIJBkAinUJtAUACxwBk1Zt4SnzuBnt7VMAB0AFFDlcCKeTy8YHLVVJJOSc06ZmM8gPQEbfyFMqo7AGSvIJH0qzBJvXBOSOvvVapIADKvtmm1cCzRS0VnYBB9KT3FLQfegY00mM04jFJjFUPcTGRXU+F7pYNPdCP8Alsx/QVy54rpfDUKPYOzZz5p7+wqoLmdjmxLtTNnGefWinYxSECus8pMbWdrX+pj/AN7+laRGKztZ/wBTH/vf0rHEfwmD2MO4/wBWa4y9tg93K3qxrtLj/VnFYjaL9oYzfaNu85xs6frXzmNpTqwSgr6mbV0Q+GYRFcSn1Ufzroj1rO0zTfsMrN52/cMfdx/WtMjNaYWEqdJRmtQtYls4Fnlw7EBRu4789KvyWsTRsFiRSQcHHQ1mRu0MiyL1XmrEmoyOu1F2Huc5r1sPVowptTWoFSkpaK4AGYopxFJgimAlFFFKwCEU2n0hHpQmBSvByv8AvCm4p951X6j+dIRVrYaJIB8p+tS1Hb/dP1qQ1L3ENIpKcRmkNACUUUUAIRSU6kI70ANq0kERjAdVfPOSM1WqWK4Ma7SuQOnOOK6sLOnCT9oDEuYlQhlwM9qgqSRjIxY/h7CozWNaUZTbgtAKlx/rR+NMqSf/AFw/GmEVKGWIB+7pxGKbB9ypDzUiLuigG8APt/MV1mvRIlohUf8ALQfyNcno7Kl1vbooBP5it7XNWtbq1RLScs4kBIKEcYPqK9DDptRt5m0GlBmf3oIqkbmb+9+lIbmfH3/0r0uRmXMi2VqC6/1Lfh/OoTdT/wB/9BTJJpXUqzZB9qFBp3ByRERTSMU6g1qmQNppHtTsGimIZTSPpTyKQ+lADKQin4ptADaQgGnEUlAENL1ox70oFAwA9aWilAoAQU7GKAMUtIApQKAO9LQIKcB7UgHtTuaYBx0pQKAM0opATwKfl4PWob9GW4LEcMAQfwrQto5TArBMrzzT5Io5V2yKGFefVg8QnHszeULRRiVBd/6o/Q1u/YrX/nkPzNB0+0cYaEEfU1yLBzvuibHOR/6tf90Vcg/1YrYXSrHGPs4x9TTxp9oowsAx9TTeDm+qFYyAKcBitYWVr2i/U0v2K2/55D8zS+pT7oLGRRWwLG17wj8zS/YbT/niPzNH1Kp3QWMcDvml4rX+xWv/ADyH5mlFjan/AJZD8zS+pz7oLGOKWtj7Daf88R+Zo+w2n/PEfmaPqc+6Cxj02Yfuz9K3BYWneEfmaDp9m3BhGPqaf1Kp3QWOZiGUFWrbhSK3BpVgowLYfmacunWafdgA/E0PBzfVDsYwGaXFbQsLT/niPzNH2C0/54/qaX1OfdCsY1FbY0+0/wCeA/M0o0+z/wCeA/M0fU590FjDpwrb/s+z/wCeA/M0f2fZ/wDPEfmaPqc+6Cxi0uK2hp9n/wA8R+Zp39n2n/PEfmaPqVTuh8rMQetFbf8AZ9p/zxH5mlGn2Z/5Yj8zR9Sn3QWMTFVLj/XJ9a6f+z7P/ngPzNIdJ09yC1sCRyPmP+NNYOa6oEjnB9ani+6a3f7K0/8A59h/30f8acum2Q4WAD8TQ8HN9UFjDpwFbg02z/54D8zTl0+zU5EA49STR9Tn3QcomnKVs4wwxwT+BNWaKK9CMeWKj2GFKB60AHrTqYHPeK+Da/R/6VgVv+K+tr9H/pWBXLU+Jnr4VfukFGM0U4ccVB0bCDAHIpaKKBbhS0Ad6XHegewccZpaKME8UCAY5pRQB60vGKTYCClopaW4BVWWNlYt2J4q1SEA8EVS0BIpUVaMEZGACPoacsaJ90fjVXCwkUSxg4HJ5J9akBxTWIQZY4FN86Poc1O43YloJxTUdW5U07rSsSUj1J9TmilddrFfQ0laIAqzblmQ7ugOB9KrVbt42jQ7jncc49OKUtEBIBSbFJyVB/ClJCjLHgVGblMcAms1d7ASBQOgApaYkqPgZwT2NPoAbIm9CvrVJlZTtI5q/TWRX+8uacZcoFGnxR+Y+0jI7/SrJt4yc4P0zTwABgDAqnPTQAACgKBgDgUtFFZgIVU8kA0BQOgx9KYZ4wcZNIlwjdfl+tOzAlNVbp1LBAeV61aBzVe6TlWA68U47gV6KXHbvSEYrWwD4WYSKAeCeeM5q1VeCMtIGwMKcnNWsD0rOTswG0U15ETgnn0pBPGTjOPrStcBlzGWAZccdaq1oAgjIORTGhibJK8n0pp2ApVYtogcTMOmduf51KkEaHIGT7080OVwDFNPpTs03NJDCkNLRQ0AhpPp1p1JS2Aaa6nwx/yD3/66n+QrmO2a6nwv/wAg9z/01P8AIVtR+I5sX/DNWil5pK6TygxWdrCMYFYDhW5rRpGVXUq6gg9QaipD2kXEN9DkrgfuzVeH/VL9K6t9MsWGGtx+Zpg0jTgNothgf7R/xrh+pz7oEjnI/vipq3hpVgpyLYfmf8aX+zbL/ngPzNL6nPuhNHPkc0ldAdNs+0A/M0n9nWX/ADwH5mj6nPugsYFFb39m2X/PAfmab/Z1n/zwH5mj6lPugsYdIa3f7Os/+eA/M0f2dZf88B+Zo+pT7oLGARiit86dZ/8APAfmaadOs/8AngPzNH1OfdBymFRW7/Z1n/zwH5mkOnWf/PEfmaHgp90HKcvedV/3hSV0z6XYPy1sD+Jpv9lWH/PuP++j/jVLBzStdAjAgAwal61tLp1kn3YAPxNL9gs/+eI/M1LwU31QWuYZHpSVunT7T/niPzNN/s+0/wCeI/M0fU590HKzCNJW7/Z9n/zxH5mg6fZn/liPzNH1OfdCsYVFbf8AZ9p/zx/U0hsLTtCPzNH1OfdBYxCM02tz7Da/88R+ZpPsFof+WI/M0fU590FjEoxW39gtP+eI/M037Baf88R+Zp/Upvqgsc3OP3optdG2mWLHc0AJ+ppv9mWP/PuPzP8AjT+pzXVFIxYfuU/t0rZFhZqMCEfmaDZWv/PEfmaX1OfdE2KenRnMkmONuPxpXq+I1RNkagADAFVriOVUBdMDNdlFOjy0y1G8WysRTadSEV3eRiMIpKfTTTAYRSU/GaaRSsAmKaRjtTqCM00wG0hHpSkYopiGUhFOIPrSHj3oAZSHnpTzzTSPWgCL8KKKUCgYYp1IBS0gClA9RSgUUCuFLjpQPXFOpgFAGTSgZpaAFoopcUthnV6XbI2hpIRz5bn9TWRWtpt3apoqQvdxrJ5bjaWGc5NZQGa4aafNL1Omb0XoAGaeB7UgHanDGMZrZGYdelA4FFFMBRSgYoApaQBRRS0gAClxigUtABSgetAzS47UWAKcBigCo7m6trOFri7nSGNfvO7YAobsNJydluS0VzWl+PNL1XWBpcMMkaSAiGaQgCRh2x2yOR368CulxWcKkaqvB3N8ThK2DkoV4uLavr2FUUoGKBmnCrOcUdKKKKAFoAzQBmlxQNIXHGKKKXGaAbAU6kApcUCFApaAMUUAFKBRilAxQVsLRRRQSFKBmgCnUAJ0pQKAM07FAAVU9QDTJIY5EaNlGGGDgU+igaEiRIo2jVQQ3XI5pygCIRBVwAB05oxSgCp5I9i3JiBFx90flS7E/uj8qWiqIuIEX+4PypQi/wB0flS4pfagQ3YuOFH5Uuxf7o/KnUYzQMTy1/uj8qXYpHCj8qcBiigBNif3R+VGxP7o/KlooGhNif3R+VGxP7o/KlpQM0DG7F/uj8qUIvXaPypwGKSRSyFFbaSOCO1ArkWwHJYDJpfLQD7o/KnYxxS4roSsZXGeUh6qPWpUCOMhRwSORTcU6LoxDAgn8qia6jVxWiQ9FUfhTDFgD92CfbFTUVCk0UR+SndR+VO2J/dH5U8UY45pN3DYh2DJJUew7UCNMcoPyp5HvSYxWyVkZ3uN8tB/APyp6hWzlRkUYojALMcLxgE559cfr+tTNaFRY7av91aawUH5UBolIACFsFztHHtn+QNKFC8DtUxjccpWG4+bJC7fTHNKNhO3aM9RxS4HpSEHBx17YqnBW0JUmO2Lj7o/Ko3UF8bcAfrUq5IBIwfT0prAZqIq7Lb0GbE/uD8qNi/3B+VPxSEelbGdxAFyF2DnpTjGn9xfypuSHRQAS2Seegx1/PA/GpcelYyWppF6EJiG4/KmO3FIsKkZMYH5VNijFHMwsiNIY0GAo55JI602RegUAc8nA/KpsUxwODRFXYN6EexT/CPypNif3R+VPwAKTHPFbEXG/ImAyryQM4p+xP7o/Kmt8uCVLfMBgDPfrUpFZTVmUmM2J/dH5UhRT/CPyp5FJUFXGeWv90flSbE/uj8qkxSbSeAKB3GbE/uj8qNif3R+VSrDK5wkbNjrgU97K6j5aFvw5/lRoMr7E/uj8qCi/wB0flTiCOoIpKCRhRf7g/KgADgACn49aaRzQAlGOKWkwKBCY7mkpevejBoASkIpaMUDQyinEU2ge4UhFLRQIbTcU8ikoEMopx9KbQAUEZoooAbSU4im0D3EI5pKdSEUCGkelNpZZI4Y3mlcIiKWZieABySa5DVdenurqObTbnEEfzRkdH46+/tWdSrGnudeFwdTFt8my69DrqKxNI8SwXm23vMRTHAB/hc/0rbqoTjNXiZ1aM6EuSorDSMUlKRijFUYtCU0jvTqD/OgQw9KbT8U0igBKMZ60UUANI7GkIp2M0h4qtwGUU4im0gFjGZUB7sBVvxBbLDZowA5lA/Q1UjIEiEnADDn0q3r9zbzWaLFcpIRKDhTnjBrJ39pEtfAznyBim0+mmu45xpFIadSEd6QDCO9JTiOKQjFMBhGKSnnmmkUrAIabTqQ00wEppFOopiGUhGTTscUlAEIpaKKQwpQPWgD2paBBTgKAOKUcUwD2oAoAp2Oc0ALRRSjNLYAAHWloAxRSYyaLqv1rQAqhCOV+taOOMVi9WaLYOgoFFFAwpwFIPpTqncAoooAoAUUuKQe1L9RQAtAGaAM07pQkAU4CmMyopd2CqoJYk4AA71w3iD4glybHw6rMxypnK9Dn+Ed6zrV4UI3kztwOX18wnyUV6vovU6LxB4s0zQEKSP510c7YIyCw4yC390dP6VwF3dax4suzcXbmOAfdQZ8tceg7mkstGlnla81R2kkc7iCclj15NbSKqKFRQoHQAYAryatWeI+LSPY+zwmDw2VL9171TrLt6IrWunW1rGEhBDZB35+YEcgg9uRmu+0fURqFruf/Wx8SADj2NcZnaCzEADqT2qhpniy4Gqxrolr9oiQ7Z5GJVNucED1PpVUa0cPLXZmOOy+pmdJtayjrd/q/M9SUUtR21xHdQJcRHKuMj2qSvXTvqj4aScXZ7hSgZopQKAQuKKKKAbCnAUgFOoEAHNOoAooAKUc0lPoHsFFFFAgpQDSAZp9ACAYpaBTsUAA6UUUUDtcKWilx0oGAFLRRQSFO47UgHbFLQMDilxRS45xQAnNOAxRRQAUUUUDClwaMUoFAAPpSiijFArhSgdqUCigRGyBBnPH8qQcjI6VNSFVJyygkeoq1NoViMqxGF9fyqUDijFNlIC7d+0vwp96TbkxpWFLAcYNG8EdP1pvT1pcdKtQRPMOBB/CnYqMkrluSAM8VIOQDUSjyjTuN2AEkZ5puQRxUlFNTaDluM5IOzBPSnqCAATk+tFLScnIFGxHJGHKMT/q23D8iP60tOKhgQRkHrSFSvAHFOEraClFvUbSEhVJOOPXin7TjpShSDk1bkkJRuAzgZHNIVBIbuKdg9KMVknYuxGDnsQfQ0ZGcDrjOKkwaMVfOyeQYin7z4z29hTqXFNY4GAwBPAz61G5VrASM9M0hY/3f1poUKMAUpFaKC6kcwoYN0zx60MobGc8dKbyBx1p45AOCPapkuVlJ3I+MkUnPpUxGe1NVFUfKoGeuBT9oLlGoCOSKdS0mMdahu5VgpY4JJ32RLk/yqe0s3uWychB1Na0cUcK7I1Cj0qXKxSVyjDpSAZnfJ9B0q4kEMf3IlGPapKKhtsuyQ3FJjjNPpCM0gGMiuMMoYe4qtLp1tJnClD7Vbx7UlF7AY1xp80A3j517kDpVU/Sujqjd6ckmZIAFbH3R0NWpdyXHsZPNJT2UglWGCOoppFUSNNHWlooAZiinc45pMcZoEJTSKdQaBpjKKUikoHuGKQ9aWigkbTSKeRSUAMNFONNoAKQ0tBoGhlFKRVLV9QOm2MlykYklxiNC2NzdufSlJqKuy6dOVWShDdmf4j1UW6GxgYGSQfvCDyg9Pqa5bGetZdp4lN/dPbauDb6h1dXPDf7prUryJ1lXfMj7ihl7y2CpSWu7ff08uxE8YOcDn1rV0zxFdWGIrsNNBzgn7w+h71n0xkBHIpwm4O6Jr4aniI8s0d9bXVvdxCa2mWRD3U5wfQ+h9qkavP7W8u9Nm820kYDup6N9R3rrNJ1+01FRG7CKcAZVjgE+3rXoUq8amj3PmcXltTD+9HWJpUUp+lJW55bA03FOpDQAxqSnH1ptABSEUtHWmAykIp5GeabT3AY33T9KoOKvv8AdJ9qotRHcT2I6Kdz9abW5mNPWkp+BTcUANIpKcR600jFG4DSKaelPNNIpiGkYpKcRmkpDEPSmkU6kIzTTASmkegp1FMRXAzTgKMAUUgCnAUgHtTgMUwCgCgD3pwFIAFLRRTAUDNLQB3oqWxhSgUAZp1AD0ParsEvmLtJ+YVQFTRuVIYdazmraouLvoXqUdaajB1DCngd81DZQoGKKKKQBSjmj6UtAC0UUcDknAHekAoFUNZ17TtDgM19OAxUlIx95z6AVz/iXx7bWSPZaKwnuiB+9GDGnr9T7dOfbFcpBpl5qlwdQ1aZ2LncQTy3+ArjrYxRfJS1f4I+ky7IZVYqvjHyQ7dX/l/XqTaprmt+LZfJC+TaAgiEH5QfUtjJq3p+lW9ivADyd3I5+g9KswwxwRiKJAqqMACpOg5rz+Vt803dn0bqxhBUaEeWC6L9QGKq6jqlnpcXmXUoUsPkQcs59AKoX+vM0p07RYvtN2w++MeXH7k1Jp2gJDL9t1KX7Xdk53MPlT/dBqHNydofebQw8aaVTEaLour/AMl5v5FQWeqeI8Pqe60seGWBTh3+p9K37e3gtIVgtoljjQYCqMAVJRVRgo69SK2IlVSitIrZLb/gvzNTQNUXT5mgl2rBM25mxyGwBnjr0A/AV11eeMyoC7MFA6knGK6Hwd4mtNcjmsopS8lmQpc5O9fXJ688V34auk/ZyfofM5tl8pxeLprRfF+SZ0mMDmlooruPnWFKBRilFBItOHSminDpQAUtJSjpmgaFGKWgDFFABRRSgCgQoA60uM0UooAUCiiigApaSnAc0FAAKWiigkAM04Ugx3pT9KADA6UuKKMfrRuAYp2PWiigYUUUUDClxRilAoAAKWgClx7UEgBS4owKWgAoopQM0AJ9aWjpRjigYfnTJk3NG5ONjZ/Qj+tScDikYBgVPQ01oJ6jaWk24IGCRS8Z2559K2UkzOwjNtUtjOBnHrTx0Bxim7CWGT8o5x709vlBY9Byazm7suMbDScdOTSEMejkfTFCBdu5Oj/Nn606qUF1FcN20En+VP6imUqBhuzjGePp/wDrzSlG2qKi+jHUHjnPFIx2gsQeOeBTSM/ewcVKjcpuw4lR1Ye1LTCAeopRwTycHt6U3BolSHUEgdTRUWVeUjnKY/WpSu7FN2Q4ljkZx9KPmAxnP1oorXlRndjgdw/xqOaMNsYnGxs/oR/WnDO4ED6804gMCCMg8Gs2uVlrVEeDRjFOwVwMEj1pNyltueSMitVJMyaaGkEAnrinISVBIIJGcHtRsYsMthRz7k07Has5SuXFNbiUGiioGGKltLY3MoBBCj7xqNY2kbYiliewrfs7NLSEbuW6n61MpcpUVcEiSJAoGAOgpDg96cx3Ek03gDOKgsQ02RxGhdugp5qtfltijHBPWoqy5IOSKguZpFWWaSU/MePSmBmU5UkH1FJRXjylKTu2dqSSsi9bXBl+R/vAdfWpiKz4CRMmDjkVokZr0sNUdSHvdDlqxUXoNpRg8E/SgjFJXSZFLU7PcPORQGUfN7isk11CYkXY3bpWJqNi9rKWUZjY5BHb2qoy6MmS6lEikp2M0hFWSNpAM06k9jQIQ5zSU4n25ptACEZpCMU6kx1oGhtFLikoGwIzTTxTqMUEjDTTT6QgUANooooAbI6Ro0jkBVBYk9gK4fVNQbUbtpyGVANqKWJAH06Z+lWPE/iqzGp/2Aly0ToAZMkBJCeig9cj0461mn16V5+Irqo+SL23Pqsry+eGiq9VWclp6f8ABKOp6TZarD5V1FkjlWBwyn1BrIS81Pw83k6oHu7LPy3QGWQdgwrpKayK6lXUMD1BFcUqfM+ZaM+gpYnkj7OouaPbt6Pp+Xcht7mC7iWe3kV0YZBBqWsG60a80yZr/wAPOAG+aW2c/K+P7voauaXrttqRMDo1vdLnfA/3lx/Okp2fLLRlVMN7vtKL5o/ivVfrsaB4P0qJozu3qxBHOfepjim1rscbSe5saR4oeEC21Pc6jOJerD6+v1rpo5YpkEkMiuh6EHIrz9kDA8VPp+p3mkvuhbdEx+ZD0P8Ah9a6qWJcdJHi43KY1Lzo6P8AB/5Hd0VR0zWLTVE/dNtlAy0Z6j/Gr1d0ZKSuj5ypTlSlyzVmIRTSKeelNpkDKKU0lACGkIwKdTJpPLTI6npTQFe5k/gU/WqzU5sk5PU00j3rSMepEn0EpvfmnUlaEjaQjNONJQAyg04jvTaAG0jdKcRSUAMpCD604jvSEU9wGUU4im0gA9KbTqaaaAhpcUAU6mIOaBnvRzSgUAKBS0UUDAU4DFIBilpMApaOtKBxSAB60tFKKewCgYpy5BzSU4dOtJgWLeTY2D901brOU84q5BJkbCeR0rFrlNE7olpRSU7p2qRgB60tJXO+JPGdloZa1gUXF2CPkB+VfqazqVI0o803ZHRhsLWxlRUqMbs2NS1Ww0i2a6v7hY1AJAJG5z6KO5rz3XPFmp+JJDY6ZFJBahuMcO49WI6Drx/OqJj1bxHci91aZig6A8ADrhR6e9bNtawWsYjgQKAOT3P1rzKuIniNI6R/Fn2WCyvD5XadT36v4L/N/wBaFTTtEt7MB5AJJPU9B+FaXFIMVl6lr0dpMLG0ia6vGIxEnbPqe1ZNxpLsdyVbFz01f9fci9eX1rYQNcXUqoqjPJ5PsB3rF3an4kbEW+z07ORJ0klH07CprTQprqYX+vSC4lHKRfwR+2O9bijFZ2lU+LRGynSwulP3p9+i9O78393Ur2GnWmmwC3tYgijr6k+pPerIGKWitEklZHLKTm3KTu2FU9S1Sz0uHzbqTBbhEAyzH0Aqlea68lwdP0aL7RPnDSdY4/qadpugrDKL7Upftd4wGWcZVD/sjtWbm5aQ+86Y4eNJc+J07Lq/8l6/IqpY6p4gkEuqbrWxJOLYHDNjoWNdJppXSXiayQRiLGFHAI9DSDPeiqhDkd1v3Mq9Z4iPs2rR7dP+D67ne2d1Fe26XETAhhyAeh7ipq4vQ76HT9R3yswWZRE3znaOeDjOPx612or2KNT2sbvc+Fx+F+qVeVbPb+vIUClAopw6VqcIY4xRRRQNCgZpwGKQUtABRRQOaBCge1KBQPpSigAA9qdQM0UAFFFKKCgAp1FFAmFKB0oAPWjnHOaBCjHpRS0D1oAPanCkHNLigYUUUUDSCloFKBxQAvvRRSgE0EgBTqSloAKKBSjNAB/Kj2oxS85oGFFFFAgopaAM0DSDB9KUDvilxRQMKQgMCp6EYpaKBkahQNqnheKWnFRyQBk007gPuk/StVNW1M3FhSpv+bdjGflx6YHX8c0FMjGSM06lOV9EOKtqRzOytEF6M5DfTaT/ADAp1KwJXAODRyeh6UU3pYJCd6Q4IIPenYpp2sfLPORz9KtuyJHAYAA7CmbVWVj3fH6VIqhQFAwAMCjAPbOOlYp2dzRq6G0UvIJ47ULlhnBH1rXmRnZjedyge5PHb/OKfQBiism7s0SsgooopDCjFFFACEVLbWklweAQgPLelWLSwMoEsuQvUD1rRiMToPJZSg4+UjFS5dgsNs7SKE4QfUnqasTnoufc1FYTPPd3VuYHRYNm2Qjh9wycfSrEkILnk1k3rqaW0K1FEzpC4Qk5PT3oqiQ/CoriLzoynfqDUtFKUVJWYJ2d0ZDKyEqwwR2pK1XhjkOWUE+9MFrCpyEyc55rgeElfR6HSq6tqV7SFi3msMAdMjrVyjiiuylTVKPKjGcnN3YU0jPal6cmgHPINaECKdrA+lTToGToD/hUJFTp80fPpikxoxbvTSMyW4yOpX/Cs410dU57a2vQZIJELgdVYEH61opdyGuxjnFJUksTwuY3GGHWmHpVEjM8cCjrzTsUlAhtFKc0lACEe1IadSEUDQ2iiigGIfpSU6mmgQhFZ2s6ium2hcH96/yxjjr6/Qf4VosdqlsE4GcDqa8nuPEktzq922qxtE5k2KpBHlqOApH6/UmubE11Ril1Z6+UZbLMKkmtVHVrqyxqWn2urIRex72JJD/xKT3BrIW81Pw5tj1ANd2IwBcD76+xGa31ZXUMjBlPQg5BoIBBBAIPBBrypQ5nzRdmfZ0cS6cfZVFzQ7dvR9H/AExkFxBdwrcW0iyRuMhlORUlYU+i3WmyNeaBJsz80lux+WTnt6Vb0vWoNQZraVTBdx8PC3UfT1ojUd+Wej/Bl1MMnF1aD5o/ivVfrsaDVm6polrqeJCWhnT7s0fDD/GtM9KbVyipKzOenVnRlzQdmc/DrF/pEy2XiCMGN2Cx3afcPH8Xoa3VdJUDxOrKRkMpyCPY0k8EN1E0FxGskbjBU9DWFLp+qaCzT6QxuLTq1s55QZ521n71PfVfiddqWL2tGf4P/J/h6G9SMoNVNN1ey1WLzLZ/mBwyNwy/hVytE1JXRxyhKlJwmrNEY8yGQSQMyOOhU10WkeJw7LbalhWJwJeg+h9PrWCQDwajeMGtadWVN3Rw4rBU8TG0keiKysoZWBBGQQeDSEc8CuJ0zW7vTGCEmSDIyhPQe3pXXWOo2mox+ZbSg+qnhh9RXo0q0anqfLYvA1MK7vVd/wDMmIpD9KcetIeeK1OIaSACT0FUpXLvu/KpbiTcdingdagI9quKuJuw0gmm0+mnNbGY0j0pKcelNpAFNIp1Ic00A2kIpaDQAykNOpDzRswG00g9acRSEZp3AbTSMU6jGaGAyilxSUgIqKKUDjrVCFA9aKWigApQKAPypaTYwoopRSAUClApAKUc0wF4pRQB3paAFGfSlopRS3AB61Ku5cNjHpSQ7A439PWrjRh025xWc3rYuIsbh13fpRLLHBGZZmCKvUmmwxNGSWPWuW1jVLu8mktnHlRRvt8sHJJHcn/Irmq1VTR3YPBzxk+VaLqZGv8AjrUNSmfTdBjeKLJUzD77jpxx8o6+/Tkd8/TdCSE+ddhZH/ukZA/xq/a2VvabvJTBc5Zj1NWa8mSlUlz1Hdn3NN0sJS9jhY8q6vq/VhTZpobaJp55BGiDJYngVS1PWrTTF2vulmPCxR8sT/SqFtpOo6vILzX22xgkx2qH5cZyN3rUyqa8sdWa0sNePtar5Y/i/RfrsD6lqWuym20hTb2oJV7lx94Y/hrT0zRrHSo9ttHlz96VuXb6mrkcccSLHEgRVGAoGAKdUqnZ80tWFXE80fZ0lyx7dX6vr+QU4CgCsrU9eitJBZ2UJu7tvuxoeB7k1UpKKuzOjRnWlywVy/eXtrYQme7mWNB69T9B3rELap4l3Khey05sjcOJJO2PpU1joUtxKNQ12b7ROcMkX8EPfAHetsAAYAwKztKp8Wi7f5nU6lPCaUven36L07+r+Xcr2On2mnQ+RZwiNep9WPqTVoCkoLhelapJaI4ZTc25Td2OJA61GZRnHOM/jinQwT3s4gt0MjnoF9PWuq0jw1BZlbi7xLOMMB/Ch/rW1KlKo9DixeOpYWPvvXt1/wCAZOleG7m+xPdEwwnnp8zc+nb612MMSQxJFGuERQqjPQDgU4AUoFejTpRprQ+VxeMqYuV57LZBTsYoFFaHIFKBQKdQPYKKKKBBSgc0DrTqAClANIB3p1ABRRRQNCgZpcYpAKdQDYUUUuPagQAZpcd6P50AYoAWlFJThQAUUUUFJBSj6UUo/WgAx6UtFAGaBXFApRS0UCCj60Uo+lAwxjtSik6cUooEHeiilFABRjjNH4U6gpIQD2paKKBhRRRQAUUUYoAKWgUvvQAmM/Slx70AYpaAEx60hUE5706imA0pkg7iPb1pdoHQAUtJRdsVgx3o+lLRSGJ7UEY5paKAGmk9qfSYFADaKXBzikoAKdEoeVEPRmANNpQSpBBwRyDQBe1aR1MaKxAIJOD1qjbySRSqY2wcge1aOLfU0G47ZUHX/PUUtvpiQyCRpS5U5AxgU4zio2ZLi27o04Pun61C+SxJo0+eSa6uraS2aNINhSUniTcOccdsYqd4U3H5q57q5rYrH1pKdM6xOEAYk9Pek5qhCUUUUAFIcYpaPwoEIRnpSU4032oBEFxkywoWwpJyPX0qYcUyWISgc4YHKn0pNtxt27kB7mgYsb72dR/A239Af61ah+5z61WijESbQSe5J7mrUQxH+tKQ0YmtyyIViQlVJJOOh9qyo5mt3EyHBTmuhu7ZLuMo/B6hvQ1Ti0uG2bzp5gyr2IwM/nW8JxUbMylFt3Q3VcMIJMAFgc/pWf0FWr+6FzIAn3EGB7+9ValbDe9xpHeigjFFMQ0ikp3HOaQjuaBCUHmlIxSUANIpKeaZQUFBFFFAmNrD8ReEtL8Qx75k8m5UHZPGAG6dG/vDp/Qit0jvSEdqmcI1FyyV0a0K9XDVFUoytJdUeO3tlrPhG78i7QyQH7rrny2z6Hsa0bO/tr1d0L/N3U9RXpV3aW17C1tdwRzRP1R1BB/CvO/EfgS60l/7S8PeZJCoLPEWy8eP7vqPbk/WvLq4WdD3qese3VH2WCznD5lanivcqfzdH69n/XkPrP1TRbPVFBkBjmQ7klThgfr3FQafrqSYgvR5cg43HgE+47Vr9a57xqo9Fqtgqia0fcwIdVv9IlFprvzxnAW7UfL9GrbR45UWSJw6MMqR0IpZoYbiNoZ4lkRuCrDINYMum3+hSNdaOTNanLS2znOB/sVPvUvNfj/wTotSxm1oT/8AJX/k/wAPQ3qKpabq9lqaZt3KyD70T8Ov1FXa1jJSV0cdSnKlJwmrMyNV0CO8l+3WUzWl6oIEqHG7joRUNnrs0EwsNch+zzk7Uk/gl9x6Vu1XvbK1v4TBdwrIh9e30PaocLPmhv8AgbwxClFU66uls+q9O68n+BKCGAZSCDyCKCM1zu3VfDJO3fe6avRf+WkQ/Lkf54rasb+11GHz7SUOucH1B96IzUnZ6MVbDumueL5ovqv17MlYZGKW2e4t7hGtZjFITgHOB+PtStTSAa1TszjnFSTizvbRp3t42uBHvKjJjOQeKJ5Ci4HU1heHNUl3LpkiBkAJRgcFR1x71tPE0j5z1/SvVp1FOKaPisXhp4aq4S/pEXkyMnmAZH86iPFaIIjXHQCqUrb3LAYBrpg+hxSIaQ808jNNqyRtNI708jvTaYDaQ0pooAb26UlPplACH0xTafTSKAEpp606kPuaAGkD0ptPppHOaaAaRSGnU0ikwIQOacPpQBS0xBRRSge1MYDtS0UVLAWlAIpOOKdTsAU4D1pBSihiFpQKAKWkMKcKQCmzTw20RmnkWNF6sTxRdJagk27Ikpi6/p8Ups3lZpkxu2jIUe/09s1y2q+JJrvdBY5iiOQX/ib6elYNlM8Ny3+kRMQ2+ML94D0PrzXn18Wl7sD6TAZFKpF1MQ7eXU9On1e1EO60k858cLtIH5muavLSbabpsszEl/x71f0ua3ltUnTAB4I9G7imX1wOVUZB6159StKo7s9DC4WGDbUPxMgdaoa7qTaVpst2i5fhU4yNx9a0WXaawPGlvJPo/mJkiGVXYD05H9ayrScabcT28FCFbEwjPZtEvhvSvKhXVbwmS7ul8wuxztB5AH4Vud81BZTpdWcNxFgLIisAOg46fhU9OnFRikiMTVnVqylPft28vkFMmnitomnnkVI0GWZugFUtU1m200CPDTXD/cgj5Zv8KpQ6Pe6tKt3rkmI1IZLZT8o/3vU1Ep68sdWaUsMuX2tZ8sfxfov12Ek1DU9fZodHBt7Po10wIL887R2rU03SLLSoyltH8zHLOxyzH61bjjSJBHEioqjAVRgD8KdTjTs+aWr/AK2CriXKPs6a5Ydu/q+v9WCjpSFgvWmIJZ5BHFGzseiqMmrSOOTtqKz46A88g1e0rQrvVG8xgYoOu9h97/d9a1tI8LiIrc6iAzA5WMcj8a6NVCAIqgKBgAdAK7KWGb1meJjM1ULwoavv0+RXsdOtNPj8u2iC+rHlj+NWRRSgV3JJKyPnZzlN80ndijpTgOfpSUooJFoopRQNB9KdSCloAKKKUdaBCjilpKUc0AKKWgUUDClxSUoz2oGKOKWiiglgOtOBzSDrxS0AFLRSge9AwAHpS0UUAFLSUuOOKBhjmnUd8UUCbCnAUgBpR0oELRRSjigA/WjOelAHFLigYCiiigQUoBo7ZFKM96CkhR6UUUUDCiiigAooAp2BQA3GacB+dGKKAEpaPWjnpmgQZ5oz9KKKACg57ClooASilpMe9ABQPpS0UAJmjPpS0nNABQcUUY+tABRj2oA9aOaAExRilNGKBiKzIdykgjuK0rXUFf5JyFbsexrNxnkUmKTVwudJAcNj1FEy4bd61j2moPAQshLLnr3FbZKTxB4yCDyDWTVmVcgpCBS0h5pgIeKRiFBY9AMmlqvfMVjCf3jUVJ+zi5DiruxBLdyOcIdo/WmC5nByHJ+tR0YryXVm3e52ckUrWNCC4Ewx0YdRUh61n27FZkIPU4NaOOc16OGqupDXdHLUioy0G0U48U05/OuggAMnFTt8kWPbFRwpubcegqrqWorA3kx/M+M+wNK13Yd7K4XFzFbISxBPZe5rHubuS5Y5OFzwtNkkeVi8jFie5qPHbvWqjYi9xKKWkpiYhHpRj0paCKBDaSlxRQIafekpx9KbQAU0+tOpCOKBobRSmkoGwppGKdSEUEjSM02n009aAOY8S+B7DXS13bMLW8JBMgGVf/eH9a4KWTWPDN19g1W3YDG5QSCGHYqwz+Vex1T1TSbDWbVrPULdZEYYBx8y+4PY1xV8HGo+eGkj6HLM+qYVKhiVz0/xXo/0+6xwNtdQXcYlgkDA9R3HsalqjrvhDVfDUpv9Ld7i0BLHaPmjUc/MO4xnmotN1qC8VY5mCS+/Ab6f4V57coS5Kisz6eMKden7fCy5o/ivVDdT0OG7kF3auba7U5Eqd/Y+tVrXXpbW4XT9ehFvM33JRjy3HrnPH+elbpHvVe8sra+ha3uog6MMc9R9D2qZU2nzQ0ZtSxKlFUsQrx6PqvR9vJ6ehMCDyKQ9K59k1Xw626ENeWGfufxxL1/Gtix1C01KAXFpKHQ9fUH0Iqo1FJ8r0ZFbDOnH2kHzRfVfr2f9ImI7EVy+v2r6FPHr2mgrH5gFzEDhTngHH6fiK6k+tYfjJ0XQJ0bG6RkRAe7bgePwBP4VNZLkb7F5fNxrxhupOzXdM1rW4jvLaO5iOVlUMKeRiqukQSW2l20Eq4dIwCPQ1fibZIshXO05watNtanLVSjJqOxcsBNp88dyUJPcY7HtXSf2rp6weabgehXBznHYf1rMtZIbpN3fHIPUVl65JHZINjDzJOFXPIH96tqVaVPRHkYjBQxc053v5HQR6vYagxhtZjuT7yOMN+WelPb6V5mkkhvkmimAa2IdGRiGWTDA5xwRg9D/AIV1mk+J0lC22okI+ABL2b6+lehh8XGS5Z6M83McknQ/eUNV1XVf5/16m/TDT6Q+9dx8+NNNIxTu9IRTAaRTadSEd8UgEppBp1IeaYDaQ0pFFGwDTSGnGm0ANIxSEZpxFJQA00hpcYpKYEVFFFMBfpS0g44paTAKKKUUkAopaKUdaYC0tFApIBwooZgoLMQAOSTXPar4n25t9MILAjM3BA+g71E6saSvI6MNhauLnyUl/kjU1PWLTTEw53zEZWNTyfr6Vx+p6rPek3F9NsjXkID8i/h6+9UL7UobTdJPIZJWycZyzH3rm7y/uL2TfKRgcBV4ArxMVj3LRfd/mff5Nw7GFpy+/wDy/wAy9f65LITFaExoCfn7n/Cs6KaSOZZlY71YMDk8n3/rUVFeVKcpu7PtaWHp0Y8kF/wTuPD+smaISZKBjtlQNna3r/WulUiRMHB/zwa8x0u/NlOGZm8puHUfzrtrS/n8pYoh5jf8sz7f1rspT9pHzPl8xwf1er7q0e39eRoyIQSp7VC8aSI0cqBkcbWUjIIPUEVLb2sgVpZpfMlfBOOgpXXAyO1a+R5yfKzlTpOt6JITok/nW7Ekwyc7T/nuKlabxhdnyUt4LVSOZOpH0/8A1V0VFYewS0i2l2PTeZSnrUhGUu7Wvz6P5oztL0K105jcEtPdMSWnfljnrWnSLSswWtoRUVZHFVqzrS56juxaY0np+dNLbvlwST0Ard0jww82LjUgUTPEXQsPc9q0jTlUdonJiMTTw0eao7fm/QzdP0u71R9sCARqfmdu2ffv9K6/S9HtNMX90u+UjDSEcn/AVbiijgjWKJAqKMAAVIOlehSoRp67s+XxeYVMV7q0j2/zFxRRRWx57FGKUDFItOoEKBz1paAKKACnAUlKKChaKKKBBSgUgp9AgpVpAM06gAooooKQoGadSD60tAmwpRSU4cCgQgApR9KMZ60tABTgKQetKKACiiigoKcAaTFKPWgGLSjmkpR6UEi4paKBQACl4xQKXkCgaEGaWiigQUoGaSnAUDQuBRiiigoKKKKAClApMU4UAAFLRSGgAyKOp60Gj8KBBRRS0AFFFFABRRRQAUUUUDCiiigAooooAKSlooEJijpS0nbpQAZ70tIfpQPpQAUhpaDQMbWjpd2UPks3+7n+VZxopNX0BaHRNhjuUe5FNqrZ3omGyQgSD9atVnaxQVDdRGWIheoORU1FTKKnFxY07O5j9KK0ZbaKVtxBB74qNbKMffYt+lec8JUTsjoVWNiG0i3ybyOF5q9SKioNqgAUtd1Gl7KNjGcud3E4A60AEnrxS9ulMmlSFC7nCitTMLm6W3hyMgdB7mufcs7M7HJPOamubl7l9zcKPuj0qGtIxsTJ3G0EUEUGmSNpKUikoLCg0UUEsQ+lIeKU9aSgQnApMZ5FL15o78CgBtFBooAaaSnEA0lBSEpGpaKBMaRikI96caSgQyinH6U2gArjPE3w9tb4NeaIiW1zxmIYWJgPQfwn9K7Ois6tKFaPLNHXg8dXwFT2tCVn+D9TxuDUr7SpjYaxBKrKTy4O4ckfiMitqKaKeMSQuGU9xXb63oOna9bNb30ILbSElA+dO/B/AcV5rqug654QnMyZntGbAlVeCAM/MOdvf9a8qrQqYbXeP5H2mDzDDZqrfBV7dH6f5GrWNfaCwnOoaPN9lusYIA+Rx6EVcsNVt78YU7JMZKH+h71drNqNVHXCpWwk2tn1T2fquqOafUPGEf7s6TC7cjevK/zpLHQtSv7yLU/EM+8wsWjt/wCEe/t2+uOa6amn86j2Ot5Ns3lj2otUoRi31S1/Fu3yDGeBUkabjjsOtIqkgY70yaCeBxPbOWY8MjdDWx5t+YsyzCBTJuKhOSQefpXJ+JdbuD8zu5mnBVGXGIwO/P1rR1PUgYS8gKxxjc3qTXE3d1LeTGaVs9gOwHpWdafs42W7PVyvBe2qe0mtERLNNG5kjldWPVlYgmtvTtcSXEN7gOSAHA4P19KwTSVxwqSg7o+hxGFp4mNprXuelaVrtzpmInzLb5+73X6f4V1lne21/CJraQMMcjuPqK8Z07WJrMiOUmSHn5e4+ldNp2psjC60+5IPGcH8cEV7OFx1vdex8HnPDl25x0ffo/Xs/wCtT0U9TRWXpXiG31ACGbEVwf4c8H6H+lalevCcZq8T4avQqYefJVVmNpPrSkelJVmQ2ilOKSkAhAptOpppgBpp4p1IaEA0jNIRS0hxQA080hFOpCO9AEFAopR6VQC0UUVLAWlAxSD1p1ABSikp9NgFQXl/badCZ7mTaOgA5LH0Apbx54rSWW2TfMq5VfU1wGo6gQWvdQmLOeOev0ArlxOIVBeZ6uV5Y8wlvou27/ruaOqa3dakSpPkwDOEB6j/AGq5m/1sREw2W1mGPn6gfT1qhqGrTXh2JlIh2B5P1qiMV8/Xxcqj0Z+n5dktLCwXOvl/n3Hu7SMXdizMcknvTecUUY7GuI95K2iCiiigBw461uaHq/lulpcSgHIEBx39CfyxWGOtPjd43EkbFWXkEdRV05unK6MMTh44mm4S+R6lZXQnQOSAejAdj/8AXqdoXkOUHXrXLaDq8cm1i4Z0AE0e7nByASPfBx9DXeWzW4hV1IIZQVPqK7201dbHxGJpyoTcJLUyLm1kt9rHG1qgrqZNDkuIis02zcMqAM4qnb+FpGkf7XOBGPu7OrfX0raNCpLocH9pYeKfNLYwWkC/xAdcE9PpT7GyutRlEVtGWJPLEfKv1PauiufC0E9xAsTCOCJMPj7zNn/69bdraQWcQht4lRB6Dk/X1rojhXf3tjirZzFRvTV2/wACjpWgWunKskgEs+OWPQfQVqUUV2RioKyPAq1Z15c9R3YtKOlIBmlpkoUUUUCgTHClHXFFFAh1FFFAIWnCmgCnCgbCiiigQoGKdSACloAUD1paBRQAUUUooKHAYFFAz3ooEwpw4+lIKXBoEFKMd6KUCgYH0xS0daKACiiloKFFKKB0ooJYo606m4B4p1Ago79KKUUABznNLz3pB1pcUAFFFLQMB604etIB3paBhRRRQMKKKUUAFKKOnNFABzRzRj3oFAgpaSloAKKKKBhRRRQAUUUUAFFFFABRRRQAUUUUAFFFFABSc9qWigBDR0paKBCc0Z45oooAMY7ZptPppHNAxOlXrfUmUbJwWH94dRVHFFJq4G8jpINyMGB7inVgo7xtuRip9RVmPUrhOGww96nlHc1DjmkI71SXVFwN8R98Gll1OFSNil8jPpilZhct0VmvqjnIjjA9CarS3U82Q8hx6DgU+Vg5I0ri/hhBVTvf0HQH3rKnnluHLyH8B0FNxSfjVJWIvcSiiimIacnrikpxptACGkp2M000FCUUUUAwIpDnGKWjFAhtJ3paTFACHNJSmkoEFNPFOpCPegaG0UUUAwNNpx5ptAhDTTT6YRQAUUUUDEOKY6JIjRyIGVgQwIyCKeQOtJ70DTOB8Q/DpgTe+HPlfIzblsZz12sTgfT/APVXPadq9x5/2G+hfzVbYflwykdiK9erPv8AQ9Nv5RNPbgSd3T5Wb6nvXBVwScualp5dD6PB8RTjT9ji1zro+q/zOKqZLaRo/O2/L2rVbwtdJcbfPQw54Y/ex6YrRfSTHFvQh0TqAOQKwlSnFao7XmFCo1GEtWc4iBFLN6flVLULsxJsHDsOufuitnVBDawtcNkAHAA/iPpXA+INTKRtHlWlnyGBHRSMdKxcuVczPRwdGWJmoIy9a1JLyVYreTdCncdGPr7isyiiuCUnN3Z9tRoxoQUIbITFNpx/lSGpNBKkt7qe0k8yCQqe/oajpD9aadtUKUVJWktDptO1iG8ARyI5xzt7H3Brq9J8Sy222DUMyRcBXA+Zfr615bWxp2uNHiG8JZQAA+OR9a7sNjJU3qz5rNMip4iD5Vdduq9GewxyxzxiSF1kQ9GU5Bpa4bRtSu7eZBYSCVJWxsByrHp2ruRuwNwAPevoKFZVo3PzPMcBLAVOVu6e3f5iEdaSnGm1seeJzSHNLSHPWmgEpDS0UAMopTSUMBppDTiDSUAQd6UUCimwCiiikA4dc0tHvRTQC8iloFLQAo5rzj4i6HJbXiavAGME42yd9j5J/I5/PPtXo4FQ31lbajayWd3GHilGGH9frXLi8OsTTcOvQ9TJszllWLjXWq2a7r/M8MpwxWhrujy6Hqc1hJkqpzGxH30PQ1n57V8pOLhJxluj9qo1oYinGrTd4tXQgxml4xQKKk0ClHWkpR1oAcOKKkt7ea6kEUCFmrodP0aC0xLN+9l4xxwv0HetKVKVTY5cTjKWFXvb9iDQrS4gD3ThlVhjZ/eHXP8AT8TXa+FJrm5ubeGOOQIHWTlcbOQSD7+3rUeleG7m+2zXWYIDyB/E3+Fdda2sFpEIbaJY0HQLXt4bBOy5tEfnec57CpKUYK8n9y/zZpkk5J61CszeZh+B0+lLHMCnzHkVC8qyudox7132sz5C9y8PanAVBbvuGw9R0+lT0gCiiigBw6deKWkpRQUFLikpwoJFApQO+KSlFAC0opKUdaBoUUtFFABRRSjrQIUUoopQKAFooooHuFKMUlOHqKBi0UUUEijFKMelHSigBaUD1FJ+FOBoGFFFFA0FKBmkpwwOaAFoopRigkUelLRRQADHel7dKSnUDEHpS0UUCFoGO9Apce1A0L9KKKKCgooooAUUuPSgCloAQ49aAR2o/CigTClpKWgAooooGFFFFABRRRQAUUUUAFFFFABRRRQAUUUUAFFFFABRRRQAUUUUAJ+FBxR2o7UCDrS0lLQMbjHfrSU6kIxQAlFFFAB14pPelpOtAhKSlNJQSwIpMUtHPpQA00UY9qKACmHrT6afrQAlNIp1IelA0NopaSgYUHpzRQaBDTRQTmjvQDEPem07P5U2gQUhGaWigaGUUppKBhTTTqQ0EiU1qdSNQA2iiigaCkP0paQ9OaAG0jEAEnoBS1WuJdx2DoOtAhqyNJJx0P6CpZVJhdVXdlT8p6HioIpfLbletSSy7lwp69aOXm0Gpcup5zrN9M1yltdBkKHYqlTycE5P4A81xut2V0k73UjGRGbg/wB0V7LqWk2WqR7LmMhh92ReHX8a43VdDu9OyLhBLARjzFHBHoR2rzcVgpJabH3GS59T5kmrS6rv6M84ord1LQgcz2I5JyY+34f4VhsrIxV1II6g1484ODsz73D4mniY80GIelNIxTqQ5qDcbSEClooGNooOO1b/AIS8KnxLdN57vHZwEecVJVm/2QccZ79DjoQeaunTlVkoQ3ZzYrFUsFRlXru0VudZ8N9Ga201tVn3brknylI+6o43fj/ID1rsT9KFUKAqjAAwKCM19bQpKhTVNdD8SzHHTzHEzxM/tPbsuiG0hpaRq2OISkPTNLSUAIRikpSM9qSgBpHNJTj/ADptPcBDSU49Kb70ICEUUUUgClHWkpR1oQDqBRRTQDhS0UCkA4UtJRQgOf8AGfhoa9YCeASG8tFdoVTH73I+4c4HJAwcjB9sg+UOjxuyOpVlJVlIwQR2r3kCvPfiH4citSut2UO1JH2zqikgMejcDAHqT3I9a8fM8JzL20N+p91wjnbpSWX137r+Hyfb0fTz9ThxRQBinwwyzyCKFCzt0Arwdz9IbSV2MrS0/Rp7vEsuYouue7fT/GtHT9EhtwJroB5MZwein+tdTpWgXOpATSkwwHOGx8zfQenvXbQwkqj1Pnsyz2lhYPldvP8AyRladphZltNPtizH0/mTXZ6T4ct7ILPdYmnwO3yqfb/Gr9nY2thF5NrEEXue5PqTVkV71DCxpK73PzfMM5q4xtRdo/i/UWnDjim04V1HjAQCMGngADFNFOFACglTkHkVdjkEi7h+NUcc1JFIY2z27ispRsaJ3LlKBSdeRSioKQ40UUUDYU4U2nDpQSKPpThTRTqAClHWkpy0FC0UUUEhSikpwHegBaUUlKKAFooooGhRntS4x0pBz3p1AMKUdaSlFAheaWk96PegB2PelGaTkUooGFFFFA0LSjvSUo6UAxaUUlKKCR1FFFAC9qAT7UdBR0PegbFooooEKPpTqQcjFLQUgooooGFFFKKAFFLSCloATNLSHniigQtFJS0AFFFFAwooooAKKKKACiiigAooooAKKKKACiiigAooooAKKKKACiiigApPpS0hFAg5paSloAKaetOpp60DEooooAKPpRRQAhHNNpx+tNoJYUnelo70CG9KKX1pKACkJ9qWkPrigBpoPSlNJQA00lKf5UlBQUUUUCY00UGigQhpDnrS8Uh70DEoNFFAhppKcabQV0CkPHSlpD1zQSJSHpSmkNADaKKKACkPSlpsjBFLHtQMink2LgHk1VAJOTTmLO24ml4HNXCN9SZMaVDcUmBTiRSVqZjaa6JIpR1DKeoIyKcfpSHPagNjltX8K43XOl47s0JPB/3f8K5DUNLhui0dxE0cynBJGGGOxzXqx46is/VdFs9UTMqbJR0kUYPTv6iuKvg41FeJ9Dl2e1cLJKq2136r/M8WvdOuLFv3i7kPR16f/rqqeld/quj3FiTDexB4n4DgfK3t7GuY1DQmXM1lyOpTuPpXhV8LKm9D9Hy/OKWKiuZrXr0/4Bi0lOZWRirAhgcEEdDSAEnArkPaH29pd30621lbSTzSHCRxjJJ/HgfUkAdSQK9o8P6LDoGlxafG4kdRmSXYFMjHqcfoPasfwH4aTS7BdTuEYXdynIYEbEz0x74FdSa+iy7Cexj7SW7/AAR+WcVZ59fq/VKP8OD183/kun39hp96KD1oPNeofIDKD0paQ9KAG0UUUgENNpx6U00wA00+9Opp60IBKaadSGhAQUUUUgClFJS00A6lHWkpRT6AOoFFApIB1FFKKEAoplzbw3dtLaXClopkaN1BIypGCMjkcHtTx0paHroxpuLutzy3XPBc1hqjLE2LKQlo27qP7v4Vb07TVjItbC3LO2M45J7ZJrv7/T4NRtzBPx3Vh1U+opbDTbTTYvKto8EgbnPLMfUmvMWXRjUbjoj6yXFNaphYwqazWnk/N+Zl6V4ZhgxPqGJpeoT+FTn9a3waSlFehCnGmrRPmMRiauJnz1Xdi04dKbTh0qzEUU4U0cdKcKQCinU0U6gBRjvQRxxRS4Gc0NXVh7E1tL/yzb8KtCs7kHIq7BIJVz0I6isGraGidyU57UUUUimFOFNp1BI4UtIKWgApR/KkpQfagodRRRQSFOGabThQAtOBzTaUe1AC0UUUDQop2c00dadQDClFJSjH50CFzng0Ag0fWge9AC5pw6U0dacKACiiigoKeKaKUUAxacMdqbTgfagkWgUUUAFKDR2paACiiigBwzS00e1OoKQUUUUDClHB4pKUUAKKWkoNABxnpRxRz6UUCCloooGFFFFABRRRQAUUUUAFFFFABRRRQAUUUUAFFFFABRRRQAUUUUAFFFFABSf1paSgQd6Wk59KWgAppOaU0mOaBiUUUUAFFFFAAcDrTTSnJptBLCg4oooEJ74pKU+1J+FAwpD6+lLSUCGmiiigBppKU9aSgoKKKKAYhpKU560lAhOKTHFLSdunFAhDRRRQAhptONNoKCiig57UCGmkPSlNFAhppKU9aSgAqpPL5jYHQdPepbiXaNi9TVdR3NVFXBuwAYFGaWkPSttiGJ/DSUvakoJGn60lKaSgBp60h6UppDQBHLFFMhimjWRG6qwyD+BrltW8LPBuuNMy6DkxE5I+nrXV0VnUpRqq0jqwuMq4OXNTfy6M8ov9Kt73dvTy5lyN2MHPTBq54O8EyTXw1LUdjW1u/wAiYz5rD1z2Fdvqmg2WpMJGBimH/LRMZP19avQQx20KQRDCIAoHtXDDL4+1557I+jr8T1nhHQouzlo/JeT8xxxSUpxSV6R8kMbr0opW65pKYDaQ5pT1pKAG0UHrRSAQ0004+lNpgFNNOppoQCUhpaQ4/GgCAHNFNBxS8d6dgFpaTrRS2AfnnFFNBxTgc00A4EYpaaDSg5o2AeDmimjinA5pAOBpabSjnvQA4UoptLnpQA6lHWm0tIB1OB7UzIFOB70wHZ5pwNMzSjigB9KD600GlpAOpQeaQdKKBoeRmiJzE+786QUEVMo3Q4uzNBWDAMOhpaqW8u35GPB6VbHSsTXcKcDmm0UEj6cKYKUUAOpQe1JS0DQ7NFNGD1pwoAKUGkooEPpQaaDmloGOooBooBBTh0ptKDige46lBpBRQSOzR70nGKXqKAFFOFNpR6UDFooFFAJhThTaXNAx1KKaD60tArD6KaDSigQvandqbSigBaKOaKAFGBzTvrTKXJoHcdRSAiloGFKOtJRQMcD0xS0zNLmgBe+M0DPegniigQtFJigUALRSUtABRRRQMKKKKACiiigAooooAKKKKACiiigAooooAKKKKACiiigQUlAo/GgBaKTNITzQAtJSUUDCiiigApCcUEj1pKBXFJ7U2iigTYUhz3pc5GaQmgQhOaKKKACm56ilP1ptABSE8UuRTSRnigaQUlFFAwoNGaTPFAtwPfFJRSUCDt1pvalNJQAUUUhI5oGkISelJRRQPYKQntilPSmkk0EhSE0E4ppoAKbJII1yfwpxIAyapyyGV+OnamlcBvLsST7mnHpigYUYpK2irIhu+omc8UhIp1MpiCgnFBOKaTmgQE5pCaCcU0nNAAeaQmkz2pKACjNFNJpgFJmgnFNJ9KQAetJmgn2ppNAATmkJoOOaQmmAlIenWgmkoAKKKacUABNJR7UUABNNNBNJRsAZppOaCaM+tAFalpmfSl3UxDweKM03IxS0bjHUtNBpQc9qVgHA0tMpc07gPBFOzUeRSgn1oQiQH1paYDmlBxSGSA80tMBzSg+hoAeDilBpgNKDQA+lzTN1KDmgB4NOBqPNKD60ASA04EVGCaUGkBIDS5pm40oNADwfQ07JpmaUGgBT6irkE29cHGRVPPrSqxRgy9RWc421RcWaGaWo0cOoYdDT81mabjgcUu6m5ooFYeCacDmo91OB9DQIdSg4pu6loHcdkUtNpQaAFpQaTNFAbD80oNMyaUHNAh9FNBpQaBodnFKDmm0tA9x2aKaDilBoFYdnJpc02lyaBDu2MU4HPao88etOz70DHUUmaUH3oC4Uo+tJRQMfSg96jpwPrQKw/dS0wHvSg4oFYdmgY6UgPqaXNACg0tNzRnvQA6lzgU0daXNAxwb1pcimUUBcfRTc0uRQO4tKDSZozQMdmjIptFADutFNzS5PrQAv4UZ4zSZ96A3rQIXPOKWkzRmgBaSjIoNAC0UmR1ozQAtFJRkUDFpKMijtmgQZozRkCk3UALmg9KTNGaAF+ooOPSm0UDHE+lITmkooACaKMikyKAFpMgUhOaM5oFcXNBIptGaBXCg0gPvQT70CFzmjNNzjpRnFABRSZpN1ACk4pKTPrSZoHYU0meaQk0lA7C9aSijNAXCg0hNJQIOKQ0c4pM8YoEKT700nNBJNFABQTSZ9KTOaBpBmkooJxQO4UhNBNNJoJFyaQmkJNJQAZooqOaURrx1PSgCO5l/5Zj8ahXjnvSDk5NONawXUmT6BTTQTSE5qybhnmgmm7jSE80CFJppajNNzQApNNzQT2pKACkJoJ9KaTTAUmkzSFhSE+9IBST0ppOKQk0hNAATnikyKQn2pCaAFJpufekJzSHimAtITikzRmgA3UhNGeaaTQAuaQnNJkUhPpQApOKaTSE+9ITmmApIpCc00n3pCc0AVsilB9ajzShqBEgIpc1Hupc80wJA3rS5FRhqXdQBJk0u6ow2KcGFIB9LTAfQ0u40WGP3UoPpTARRn3pASg0oP6VEGpwNMCTdTgai3Uob3oAl3U4HFRBvWlB96QEm6lyKZupQaAHgkU4HNRhqUH1oAkBpc1Hn3pc80AS7qcGFRBqUGkBLu9aWowfWlDUBexYgl2Ng/dNW6zlyTj1q5CzgbX7dDWMlZmidyYHHalz6CmgiipKuPFANNoB5oDRkm6lDUzNLk0BYfupaj3GnA0CHg4pd1MDetLketA7jxzRTQaUH1oAdk0oNNyKKBEgNLkVEDinbhQA+img0oNA7jgaXIpoOaKA0Y8H0pc0zNLuoCw8H1o579KbkUZNAD84FKD2pgPGKUdKAH5HrRTQaUGgLi0oPPNN3UuaBjtwpc+/WmUUBuSBqXcKjyaXdQKw/I9aWmZHrRn0NArD8+1LkUzcaUHNAD80ZGKbn3ozQA7PpRTc+tKD60AOyaXd7UzOKXNA7sduFGRTcijNAXHZFGRnFNozQFx9FNBxRn3oHcdRTc+9G40BcdRTd1G6gLjqKbuNG40BcdRTdxoyaAuOozTcmkzzQFx2RRkU3NGfWgVx24Ubqbmkz7UBcduNBIpMikzmgBaMim5xRmgQ7NJmkz60hNADs0mabupCfegB2aMim5pN1A7Dt3FITTdxooCwuaQmkozQPQXNJSZoLD1oFcWkyKTOKTIoAcTSZpCRTcmgQ4ketJn0pMikJoGOyaTIpuTSUBYUnNFJSE80BcWjIppNISKA3HZpuRSZNJQIUt6UmaKQkUALRkU0mkoGKzgDJ6VSaRpHz+XtUtx5jfKo+WoBxVRV2S3Yd0oycUwt6Uhb3rYzHE+lITTC3IpCexoAduppbmm5ozigBSaQmk3elNJoAdkUhNISBTS1MBScUhOaaWpCTSAduppJ60m6mlqYDt1NJ70m400mgBxPpTaTdSE0AKTSE96Qt6U0mgB2QKN1MLUhagBxNIWpm6kLUWAduFIWpu72pC1ACkikJpMik3elPVgLSbhSE+ppCwosBU3e1LnjrUe40bqYrku6l3VHn0oyaBkufelzUWRShvegCXNKDUW6lDUCJcilB9Ki3H1pd1AE24ZoyDUYal3UAShvWlBqLcetKGHelYCXJ9aATTM+9KG9aLDJA3vTg3NRZFKD6GgCUNS7qiDUob3pATA80u6og/pS7vegCYGjPrUYb3pd3vQBJmnA4qLd707dxQBIGp272qLIpQfQ0AShz261diYvGrHrWcG9au27ful59f51E1oVEsA0ob3pgPrRmsrFkoalyDUWSO9KGPrSAkpd1MDUuRQA/dS0zNLkigY8Gl3UwH1oyKAsSBu9OyKiyaXcaBEmaUGow1KGoHckyKUHNMyKXJ9aAHUuTTNxpcigB4alBPrTKMmgRJmlqMNShqBj6cvJxmow3vSM7LypxSeiGn3LG33pdg9ajjdmQEnmnhqjmZXKhdnvS7B60m4noaAaOZhyoXb70u0etJuFLkUXYWQBe+aQnBxS0xj8xqottikrD80UwNS5PY1RI6lyaZk+tLuoC47NGabn0pQQaB3HA0bhTaKBaD8/pS7qjpc0BYfupcio8n1oyaAsS5ozio9xo3UBYkz2xRnNM3UZ7DvQBJmjOaj3e9G73oAkzRmmbqN3vQA7Jpc0zdRuoEPzxRnnNM3UbqAH59aM8UzdSbvegB+e9HWmbj60obJxmh7DS1HUZ7UmaM1nzMuyFopu6jcaOZhZDqTHakyfWjJo5mHKhT9aaT70yd2VAVOOabGxZcscmqi22JpEmRSZpKMiqJFyaSk3UbqAuLRTcn1oJzQFx2eKTcabnHWkJ9KBDs0c03NJn3oAcT60mabkd6TdQOw/JpKbk0lADt1Jk0maTNAC0Uhb0ppagB+abn3pu6koEOzSFqSjPvQMMmikJpMmgBSRRuppPrSbqAHUlNLe9IWoEOLehppNJk03PPWgdhs7kJ9TVbdUtyfkGPWq+TW0NjOW4pakz6UhNJuqyRSaQmmlvekLCgB2TSE03d700tSAeWppb3phb3pC1ADiTSFvSmluOtNyfWmA4mkJpuaQmgB2fekJxTSfWmlqAH5NNJxTd/vSbqAH7qaTTC3vSFqLAPLelNLCmFqTJpgPLcU0tTSaQn0oAdk0hNN3e9IWosA7cKQnNNLCmk0CHk0hambqQtTAeT700mm7qQn1NICpu96XdUW6gNTCxMGpQ3vUIYU7dQFiXdRuFRh6N9Aakwal3VCGp273oC5IGpwaog1LketAEoal3e9RBvel3e1AyXdTg2fSod3vS7qBEoanb6iDUu6gLEob2pQ1RBqXdQBNupcioQ1O3UrAS596Xd61EGpdxotYZKGp26ogaUGgCUNTg1Q7valDe9ICfdQG96iDClDUATA1dtyPJX8f51nA1etjmFfx/nUT2KjuWAfel3VHmlB9ayLJQ1LuqLIpc+9AEmR60yWXy14HJo3U2VBKOuCOlNWvqJ+QkVw5cBm4PFWt/vVOKAqQzkcdhVjIpyt0BX6ku6lBzUWaXcagZLuNAOKjDe9ODCgdx+RS5pmRS5NAD80u6o80uRQBIHp2RUQNLuNAEmR60oOKiDU7d70CJN1KKjDUuRQMfTZGIAoz2pkh4GTSew1uWYT+7XipKhhJ8pefWpMmsyx1AOKbn1pPNX3otcL2JM0uaYrhhkUtAD99RsTuNLTCfmIqo7ilsO3UuR60zIoyKsjQfn3ozTKXJoCw/NG6mbjS7qAsP3UZpmRS596AHg0u6o8+9LmgB+6jdTM0Z470BckBFGRTMijdQFx+RRTMijdQFx9FN3e9GaAuOopu40bjQFx1FN3GjdQFx9JTd2aMntQFx1FNyaTcaAuPpR1pm7NKrAnFJ7DT1JKKQH2pM+tZljqKYXA6mkDjpmizC5JSZptFADLk/IPrTYj8tFx9wfWmxH5OtVHcUtiTIo3CmZFG6rIHZozTd1JuoCw7PvRu96ZRkUAO3Ck3UmRSbhQGg7J9aSm7vekLUBcfkUm6mlqTJoFcfuppam0UAO3Uham5FG6gYpOaKaTSZ96AHFqN1NJFN3e9ADyfWkyKYWpCaBDi+Oarm4fJIOKlJzwTVcwtu4YYq426iafQsLJvUNRnJpijYoUfnS5NS/Ia8xxPvSE03IFJuFIdx2TSZpu+mlqBXG3LfID71V3e9TXTfIPrVUtW0NjOW4/dSb/pTC1N3YqhDy1IWpm6mk0APLY5ppam7qQtTAfuNNJppb3pC1ADi1JnPemFqTcKAHlqQt71GWpC1ADy1IWqPdSbjQA8vTS1NJHrSFvSmA4tSZFN3e9IWFFhDt1IWpm73pC1AD91N3Uzd70m6gB+6kLZphem7qYDywo3UwtTd1ADy1JuphakJ96Bjy1Jupm4UhagVypuHrQD3zUW73pdxoJuSg0oaot3uaN3vQO5MG7A0u72qHdTt3vQFyXdxShqizS7jQMl3U4NUIalDUBYl3U4N71CGpd3PNAWJtxpQfSoQx9acGoDUl3UoNRbqUNQFyYN+NKGqHcKdn3oAlDe9LuNRBvWl3e9AEwb3pd3vUIalDUAT7qN3NQ7qcGpATbjSg1EGpQ1AEucd6Xcai3U4N70WAl3Vbhuo0jVWzkZ6D3qhupcj1pNX3GnY0hew/7X5UovIu+78qzQT60oap5EPmZpfbIff8qUXcX+1+VZob3p273o5EHMzR+1x+/wCVL9ri9/yrPDUu73o5EHMzQ+1xdi35Uv2uP3/Ks8NTt1LkQczNAXcXqfypRdx+/wCVZ4al3elHIg5maH2qLHf8qPtUXv8AlVAGlDH1o5EPmZf+1R+/5U4XSe9UA3vS7vQ0ciDmZf8AtUfqfyp32mP3/Ks/dTg1HIg5mXhcx9s0v2lPf8qohqXdRyIFJl4XMfv+VL9pj96pBqXd7UciDnZdFwnvS/aU9/yqkG96UGjkQczLouE9TSPcIR3qmGpS3SplBWGpO5pwTL5S4z3/AJ1L5yVRtzmJSPf+dS5IrLlRpzMnlmVV79aiE6+9MPzAg96i8t88Yx9auCj1JbZaS4TcMZ/KpvNHvVOJNh3Meal3CplFN6DjJosCQe9RPMgc8mmg+9V5G+c4NOEFcUpOxY89fU/lSidT61UDUu78615ERzMt+envS+enqaqbvejPvRyIOZlzz1PrQJ096q7qM+9HIg5mW/OT3o85Pf8AKqgalyaORD5mWvOT3o85Peqwb1o3UciDnZaE6+po85arZFGRRyIOctecvvR5y1V3DFLmjkQcxZ85Pejzk96rZoyaORBzFrzk9TR5y56mqu6lyaORBcs+co7mjzl681W3GjcaORBcs+cvqaPNX3qtuNG40ciC5Z85fejzk96rbjRk0ciC5Z85fU0GZPU1W3UbjRyILlnzkHrTklTdVTdT4m+fn0pSgrDUtS35q9qPNX0NQ7vSjdWPKi+YDOuaPOXvmonQscj8qaIznnAFapRsRd3LaygqDzS+YPeocgAAdqTI9ay5UXzMW5kGwZz1pkcybe9R3RzGPrUSN8tVCKuTKTsW/OT3pPPT3qtupN3PWteREczLXnp70n2hff8AKq26kJo5EHMWjOvqaTzl96q7vejdRyIOZlnz096Tz09TVbdSbvejkQczLXnJ70nnp71VzSZ5o5EHMy2Z096T7QnvVXNIW96ORD5i156eppPtEfvVXdTS3vRyIXMy4bhO2fypDcp71T3UhajkQczLZuE96Q3Ke/5VU3UmTRyIOZlv7Sh7n8qT7RH71UJI70hajkQczLn2mP3ppuU9/wAqqFqTdzRyIOdlz7TH70n2mP3/ACqmW5pu7vmjkQczLpuo/f8AKkN0nv8AlVIvTd1HIhczLpukJ7/lSG6j9/yqkWPrSFvejkQczLv2qL3/ACpDdx+/5VSyabu7UciHzMtT3CSIApPXNVy1MLCkJ71SViW7j93PWkJphakLe9MB5PvSFveoy3pSbvemA/caQsKjLdeabu96QEm6kLVGWJpCfWgB5b3pN1MLAUhb3pgPJpMimbqaW96LCH5NITimE+lN3e9AEmTSFqjLUhagB5NIWpham7vemBIWppamFqTJ9aBj91IWphakLcUCuO3Ggn3qMsO9JuoC4/dSFvemFvem5oDUkLe9JuqMtSbqAsSFs80haoy1JuoAp7x0pQ/tUO6l3UCJg9LuqHd70ob1oETbqXd71CGpQ1AEwY0oftUIenb6Bku6lDVDupwb3oEShqXdUW+l3UDuTB6XdUIalDUDuTBqXdUIanbqAuShvU04PUIelDUBYmDU4NUG73pwY0ATBqUN71CHpd1AXJt1KHqIMBS7qAuS7vanBqh3e9LuoAmD07fUIb3pQ1AEwfvTg3eoA1LuNAE+760oaoQ/vShqAJt1ODVCG7Uu4Y5pWAlDU4PUIb0NODUDJd9O31DkUu6gCbdTt9QbqXfQBPupQ1Q780oakBPuoDVEHNLuoAmDUobFQhqcGoAlD0u7iot1Lu96AJg1KGqHdShqAJg9KH9Kh3e9KGoAnDUFhUW8Uu4VMthrcv25/dLg+v8AOpc1Wt2/dLx6/wA6lDYrE0JM0u6o99LuHekO5IDRn3pgOaRpEQZZsUxaEjSbFLHtVbfk5PWo5Ji55PA6Cm7q1jGyIk7k26l3Diodx7UobFUSTbqN1RBqAw60ATZo3VHvo3UDuTbqA9RBqN1AibdRu7VFu96XdQMkB70u6ot1Lu7UCJd1G6og2KNw9aB9SXdRu71Hu96N3HWgCTdS7zmot9LvFAEm7ijPvUe6guKAJN3Oc0u6otwo3UCJN3ajcaj3UbqBkmSaN2OKj35pN4oAk3cUqybSCO1Rb6NwoAuhsjIPBoqrHPs4PSpw4YZDZrGUbGidx9FMz70ZFSA/IpMim5FG4UAMuSPLH1qBWwtPum/djHrUCkYq4bilsS7qTfUZak3DpWpmS7jzSbvao91IWHrQMk3Ubsc1Fuo3UCHlqC1Rl6buoAlLd6bvpmTmkz70ASbqaW96ZuFG6gB26kyfWmbvegsKAH7vek3UwsKbv9KAJC2KTdUe+k3e9AEm6k389aiL0m/3oAlLU0vg1HupC1MB5akL0wtSbqAHljSE0wt70m6gB+6kLcVGX96QtQA/d6Uhemb6aWoAkL00tTC1N3GgCQtTS9MJ70m6mA8tSFqYWpC1FgHbqC1MLU3dmgVx7NSbqj3+9IWpgPLZ70hfFRlqTd60ASF+aQtUZbmkLUAP3Uhbimbj60hagB26kLUzfSFh60BceW96Td7VGXpN5oDUkL9qbuphak3UBYeXpN2aj3Uhb3oCw8t9KTcKZupuRQFyQtxSbvrUe6k30CuSbqQt71HupC1AXJN1IWqMtSbqAKYPvSg+9QbzS76BE+6jcKiDGl3+9AEob3pd1RbhS7h60AS5FLuqIN3pd1AEu40u73qIN70u40ATBhTt1QBqXd70DJg3enBveoA3vSh/egCfdShveoQ9LvoETbjTt3vUIal3e9AE249KXdUIbFODe9A7ku6lDVFu9aXd70DuTBqUHnrUIalDUATBjTg3vUAanbvegLE+6jdUIanbvegCYHvShuah3U4N70BclDUu6og3rShqAJg3vS7uahyacG96Bku73pwaoQ1Lu96BWJgx9acGqAN6GnbvegCYN70u6oQxPelDUgJs+9Lk1FupQ/vRYCYNShveoQxpd1AycN70oaoQ3vShjSAmDe9KGzUO+lDe9MCcH3pd3vUG73p26kBNuoB96i3e9KGoAl3H1pQxFR7qN3vQBOsrgYDED60vmv8A32/OoQ3rRkUrAT+a/UOfzpfNf++fzqAH3pdxosBYEz/32/Ok3k96hD0u/nOaAJt1Ln3qEN70ob3pgTbvel3VCGpd3vSAl3Uufeot/vRuoAm3UbqjDe9G73oAl3UoY+tQ7s96cG9aYEm76Uu6ot3tRuFICUPShveot3vRu96AJt3vRuqLcfWjJoAlDflQWqLJozQBKGpd3FRBqN1AE27tRuFQ7vejd70ATZ96CwqHd70b6AJt3vRvqHd70bvegCbI9aTcKi3e9G73NAEpYUbqi3Um70oAl3UByDkGosn1oyaAJvMcD7x/Ok8xv75/Ootx9aMmiwEvmt/eP50nmsf4z+dRbvekyKLDJS7Hhjn60m76VHuo3UCHlqTP40wtSbvegCTJpCaZu96QtxQA/Io3Co93vSF6YEm6k3e9RljSbvekBKW4603dTC3vTS1MCXfSFh61Fu96TdSAkL0m/wB6jLe9Ju96YEm6kLUzdTd3vQBJuNIT6mmbqQtQA8n0pNxpm7HekLUAPLe9JuqPfTS1AEpb3pu4VGXpCxpgSFvekLVGSaTPvSAeWpC1MLU0txyaYEmT600tTd1N3e9FhEhbim7h60wt2zTd1MLkhbFN3UwtTd3vQBIWpC3vUZakLUgH7u1IWpham59TTGSFqaW9KZupC3vQK4/dSbhTC9NLUBckLU0t70zccYppbtmgNSQt6U3fTC1IW96AsPLUhYUzdTS3vQFyQtTdwphakLepoFcfupCfemFqbk0BceWNBb3qMtSFqBD91Jk0wvTS/vQBJupC1Rlj600sepoGSFqTdUe73pNxoESFqTcaj3Y70hagCoCcilooqgFyaXP86KKkBaXJoopjFByKXJ9aKKQdR1LRRQId6UUUU0AuTSjpRRSAXNKtFFA2OpQaKKAQ7J9adRRQDCnHpRRQIXNLnjNFFAIWnLRRQUhaMn1oooGOFKKKKAHUoJoooRLHD0pw6UUUDQo60q0UUALTh0oopMBaMmiimMUE5604E5oopMQ49KUE5ooo6AKOlKCc9aKKYx1LRRUgGTTqKKpAKCcfjTqKKQhQTkUtFFIYoJzTu9FFABSjpRRTAUUtFFIApcnFFFCAWlBoooQC560tFFACr1pSeaKKAAUuTRRQAvegk0UUAKe1FFFIEFLk0UUDDJo7GiigYEmnGiigQCjvRRTEFFFFIAooooADRRRTAO9Hc0UUANyfWjJ9aKKCgyaKKKRLE70hJzRRQAEnApMn1oooACaQniiimAhJpMmiigApoJoooDoGc0hoopAITzSUUUAFNJNFFNAJRRRTQCEnNNoopMAzxmmknHWiihAJnpTT1oooAQ0mTRRQwEPSg0UU0A2kPSiihiEPamkmiimA0k4oJxRRSAbnNITzRRTGNPWg9KKKSENpD0oopjG5NFFFBLGkmmmiigaENNPWiihDEyfWkNFFADcmiiigljSTmkoooEITwKSiigBpJx+NJnmiigY0k00kg0UUAgycUlFFAhuTSZoooAQ9abRRQAUHpRRQM//Z;rotation=-180;" parent="1" vertex="1">
          <mxGeometry x="57.5" y="809.9999999999999" width="490" height="233.9" as="geometry" />
        </mxCell>
        <mxCell id="mdWsZaoKRXeDNNDKq_2a-25" value="Wheelspeed ABS" style="rounded=1;whiteSpace=wrap;html=1;" parent="1" vertex="1">
          <mxGeometry x="-920" y="267.19" width="100" height="52.5" as="geometry" />
        </mxCell>
        <mxCell id="mdWsZaoKRXeDNNDKq_2a-27" value="BMS" style="rounded=1;whiteSpace=wrap;html=1;" parent="1" vertex="1">
          <mxGeometry x="-240" y="597.97" width="100" height="42.39" as="geometry" />
        </mxCell>
        <mxCell id="mdWsZaoKRXeDNNDKq_2a-29" value="APPS" style="rounded=1;whiteSpace=wrap;html=1;" parent="1" vertex="1">
          <mxGeometry x="-610" y="386.25" width="80" height="33.75" as="geometry" />
        </mxCell>
        <mxCell id="mdWsZaoKRXeDNNDKq_2a-30" value="Steering Angle" style="rounded=1;whiteSpace=wrap;html=1;" parent="1" vertex="1">
          <mxGeometry x="-520" y="383.13" width="80" height="40" as="geometry" />
        </mxCell>
        <mxCell id="mdWsZaoKRXeDNNDKq_2a-31" value="Brake Pressure" style="rounded=1;whiteSpace=wrap;html=1;" parent="1" vertex="1">
          <mxGeometry x="115" y="540" width="90" height="50" as="geometry" />
        </mxCell>
        <mxCell id="mdWsZaoKRXeDNNDKq_2a-33" value="GearPS" style="rounded=1;whiteSpace=wrap;html=1;" parent="1" vertex="1">
          <mxGeometry x="-435" y="383.13" width="80" height="40" as="geometry" />
        </mxCell>
        <mxCell id="mdWsZaoKRXeDNNDKq_2a-35" value="Dashboard&lt;br&gt;Steering" style="rounded=1;whiteSpace=wrap;html=1;" parent="1" vertex="1">
          <mxGeometry x="450" y="115" width="80" height="55" as="geometry" />
        </mxCell>
        <mxCell id="mdWsZaoKRXeDNNDKq_2a-37" value="&lt;span style=&quot;font-size: 14px;&quot;&gt;&lt;b&gt;Torque Vectoring&lt;/b&gt;&lt;/span&gt;" style="text;html=1;align=center;verticalAlign=middle;whiteSpace=wrap;rounded=0;" parent="1" vertex="1">
          <mxGeometry x="-980" y="100" width="260" height="70" as="geometry" />
        </mxCell>
        <mxCell id="mdWsZaoKRXeDNNDKq_2a-38" value="AIR" style="rounded=1;whiteSpace=wrap;html=1;" parent="1" vertex="1">
          <mxGeometry x="440" y="187.5" width="80" height="43.75" as="geometry" />
        </mxCell>
        <mxCell id="mdWsZaoKRXeDNNDKq_2a-39" value="PDM" style="rounded=1;whiteSpace=wrap;html=1;" parent="1" vertex="1">
          <mxGeometry x="440" y="238" width="80" height="44" as="geometry" />
        </mxCell>
        <mxCell id="mdWsZaoKRXeDNNDKq_2a-40" value="ADS1115" style="rounded=0;whiteSpace=wrap;html=1;" parent="1" vertex="1">
          <mxGeometry x="262.5" y="370" width="100" height="70" as="geometry" />
        </mxCell>
        <mxCell id="mdWsZaoKRXeDNNDKq_2a-41" value="SusSensor" style="rounded=1;whiteSpace=wrap;html=1;" parent="1" vertex="1">
          <mxGeometry x="440" y="357.5" width="80" height="95" as="geometry" />
        </mxCell>
        <mxCell id="mdWsZaoKRXeDNNDKq_2a-45" value="WheelSpeed Module" style="swimlane;fontStyle=0;childLayout=stackLayout;horizontal=1;startSize=30;horizontalStack=0;resizeParent=1;resizeParentMax=0;resizeLast=0;collapsible=1;marginBottom=0;whiteSpace=wrap;html=1;" parent="1" vertex="1">
          <mxGeometry x="-780" y="510" width="265.83" height="220.73" as="geometry" />
        </mxCell>
        <mxCell id="mdWsZaoKRXeDNNDKq_2a-52" value="" style="shape=image;verticalLabelPosition=bottom;labelBackgroundColor=default;verticalAlign=top;aspect=fixed;imageAspect=0;image=data:image/png,iVBORw0KGgoAAAANSUhEUgAABQAAAALZCAYAAADocoyeAAAAAXNSR0IArs4c6QAAAARnQU1BAACxjwv8YQUAAAAJcEhZcwAADsMAAA7DAcdvqGQAAHKMSURBVHhe7f1vjF1pfh/4/bgGkhfs/dPqFxrblEbpKoyNZL1cAYtFc4a3NRJA6vaO26/UWMcRBAuBAwJhbE4GDRK3XngGSBVINFpDJ0RAB4gVCLIdoNdv3BL6qgiMq/qyi41gdyXCgO1tVHGnR9ysJtgWYYHlIFk4zAvWc3nr1P3/PPfWuac+H+Cgyeec3+8eVj9ks779nPOcO3z+7EUswYcf3o3vfe9GdRgAAAAAWKB/pzoAAAAAADSHABAAAAAAGkwACAAAAAANJgAEAAAAgAYTAAIAAABAgwkAAQAAAKDBBIAAAAAA0GACQAAAAABoMAEgAAAAADSYABAAAAAAGmzqAHBnd686NJMff/nH1aGZ5d5DZPbY2d3rHzly66MmPXLroyY9cuujJj1KzM+c2qQOPXLro0E9cuujQI8SczMK3UeuOvTIrY8G9ShRb26+UoceufVRkx4l6uswN6NAj9z6aFCP3PqoQY8mzc0o0CO3PmrSI7c+atKjxPzMqU3q0CO3PhrUI7c+CvQoMTejwH2cO3z+7EV1cBE+/PBufO97N6rDAAAAAMACTb0CEAAAAABYPQJAAAAAAGgwASAAAAAANJgAEAAAAAAaTAAIAAAAAA0mAAQAAACABhMAAgAAAECDCQABAAAAoMEEgAAAAADQYAJAAAAAAGgwASAAAAAANJgAEAAAAAAaTAAIAAAAAA0mAAQAAACABps6ANzZ3asOzeTHX/5xdWhmufcQmT12dvf6R47c+qhJj9z6qEmP3PqoSY8S8zOnNqlDj9z6aFCP3Poo0KPE3IxC95GrDj1y66NBPUrUm5uv1KFHbn3UpEeJ+jrMzSjQI7c+GtQjtz5q0KNJczMK9Mitj5r0yK2PmvQoMT9zapM69Mitjwb1yK2PAj1KzM0ocB/nDp8/e1EdXIQPP7wb3/vejeowAAAAALBAU68ABAAAAABWjwAQAAAAABpMAAgAAAAADSYABAAAAIAGEwACAAAAQIMtbRdgAAAAAGD5rAAEAAAAgAYTAAIAAABAgwkAAQAAAKDBBIAAAAAA0GACQAAAAABoMAEgAAAAADSYABAAAAAAGkwACAAAAAANJgAEAAAAgAabOgDc2d2rDs0ktz5q0GNnd69/5Mitj5r0yK2PmvTIrY+a9CgxP3Nqkzr0yK2PBvXIrY8CPUrMzSh0H7nq0CO3PhrUo0S9uflKHXrk1kdNepSor8PcjAI9cuujQT1y66MGPZo0N6NAj9z6qEmP3PqoSY8S8zOnNqlDj9z6aFCP3Poo0KPE3IwC93Hu8PmzF9VBAAAAAKAZpl4BCAAAAACsHgEgAAAAADSYABAAAAAAGkwACAAAAAANJgAEAAAAgAazCzAAAABwaja729WhEzbaV6tDsdndHjo+zCzXQhMJAAEAAIBTsdndjq3ug+rwCZ32lWMBXqqrjg8zy7XQVAJAAAAA4FSkcK61vhat9Terp/uqwV1v/yDa9+5HRMTh3Q+Onas6f+P9iIjoXr8WrfW16mk4EwSAAAAAwKlo37sfvf2DucK5FOyNCwAHA8bu9WvV03Bm2AQEAAAAyDbNu/yqevsHEREzh39x9FhwTPjc3v6TiIixqwvhLBAAAgAAAFnSSrtxYVxpbx+FhinkGyYFjNVHiOGsEQACAAAAp26zu33iGCetGkwhX1Wqn2d1ITSNABAAAABYusHg7vyN92Or++DEkd4ROEoK94aFhWll4MbRo8JwlgkAAQAAgKX7tBLsddpXjh2t9bXo7R/EZvfByBAwvduv+hhwb/8g6/2C0DQCQAAAAODUtNbX4vDuB7HRvnrsSDsDpxBwmPRuv2pAmMLFtFEInHVTB4A7u3vVoZnk1kcNeuzs7vWPHLn1UZMeufVRkx659VGTHiXmZ05tUoceufXRoB659VGgR4m5GYXuI1cdeuTWR4N6lKg3N1+pQ4/c+qhJjxL1dZibUaBHbn00qEdufdSgR5PmZhTokVsfNekxa331HX2b3e34W3//H/RX4PX2n5w4P+zx3DgK7zrtK9G9fm3kfRwPAYf3SSv8/tbf/wf9PltHgWHaKGQao+5hFnXokVsfDeqRWx8FeuzU5M/Oc4fPn72oDgIAAAAM2jza6XcenfaVuXfiTZ87qkc631pfi+71a9HbP4j2vfv9nwMCQAAAAGBKo1bh9fafRG//IFrra/338g0aFtxNa1IAGEebiEREHN79oL9xyLjr4awRAAIAAABZpgnp5jVN7xT6da9fi/a9+xFHYSDw0tTvAAQAAACoo7TqMIV/dv6F4wSAAAAAwKkY9UjxoPTewVGr/2LIuWGPIcNZ5hFgAAAAIMs0j+lWDW7eMSqwS+8WnKZveg9gePwXThAAAgAAAFnmCQBj4N1940y7m++89wBngQAQAAAAyLbZ3Z4reJv0GPAsPee9B2g6ASAAAAAANJhNQAAAAACgwQSAAAAAANBgAkAAAAAAaDABIAAAAAA0mAAQAAAAABpMAAgAAAAADTZ1ALizu1cdmklufdSgx87uXv/IkVsfNemRWx816ZFbHzXpUWJ+5tQmdeiRWx8N6pFbHwV6lJibUeg+ctWhR259NKhHiXpz85U69Mitj5r0KFFfh7kZBXrk1keDeuTWRw16NGluRoEeufVRkx659VGTHiXmZ05tUoceufXRoB659VGgR4m5GQXu49zh82cvqoMAAAAAQDNMvQIQAAAAAFg9AkAAAAAAaDABIAAAAAA0mAAQAAAAABpMAAgAAAAADSYABAAAAIAGEwACAAAAQIMJAAEAAACgwQSAAAAAANBgAkAAAAAAaDABIAAAAAA0mAAQAAAAABpMAAgAAAAADSYABAAAAIAGEwACAAAAp+rR1u3qEFDQ1AHgzu5edWgmufVRgx47u3v9I0dufdSkR2591KRHbn3UpEeJ+ZlTm9ShR259NKhHbn0U6FFibkah+8hVhx659dGgHiXqzc1X6tAjtz5q0qNEfR3mZhTokVsfDeqRWx816NGkuRkFeuTWR0165NZHgR4fvfNufL51Jz56593qqamVmJ85tUkdeuTWR4N65NZHgR4l5mYUuI9zh8+fvagOAgAAACza097DY8Hfe598HBdal49dA+SbegUgAAAAQEmPtu6M/TlQhgAQAAAAWLpHW7fjae/hsbGnvYfeBwgLIAAEAAAAlu7zo9V+6ZHf9M80DpQjAAQAAACWKq3yu9C6HBda3zr68bf6IaBVgFCWABAAAABYmqe9h/1Vfpc6N4+dSz//fOvOiceDgfkJAFmaze52dWgqm93tE8c4k84PmuVaAAAA8qWNPt7q3Dyx4++F1uV46ygEtCEIlCMAZCk2u9ux1X0wdeDW2z+Ize52nL/xfmx1H5w42vfuD+01y+fMci0AAAD5nvYe9lf2Xercqp6OGBgfvBbIIwBk4Xr7B7HVfVAdHmmzux3te/f7NZ32lWNHa32t37Ma3r29vhYRMdXnpWtSDQAAAIv10TvvRkTEe598XD11TDqfrgfyCABZuM0pwrhBG+2r/bDv8O4HsdG+euzoXr8WnfaViCFBX2vKMC8Fh631talrAAAAmN/xjT+OP/pbNXiNDUEgnwCQiaqr7GbRvnc/evsH1eGJUtg3SgoJY8j9jRof1Nt/EhERrfU3q6cAAAAobNzGH6PYEATKEQAy1rzvyUvv7+vtH0Rrfa0fyi1DeqQ3hXzDpFByXMgIAABAGeM2/hjFhiBQjgCQ4lJoGEer8brXr1UvKWJUwJce6R218nDw8V8AAAAWa5qNP0axIQiUIQCkuPR4bnp/36KMW8WXwr1hKxdTcLixxFWJAAAAZ1XayCOt5ptVqrMhCMxPAMhCDAvlSmrfux8xZhVferdfdZVgb/+gHxyOqgUAAKCMwY0/Zl39l1zq3LIhCGSaOgDc2d2rDs0ktz5q0GNnd69/5Mitj5r0yK2POXukjUVa62vRvX5taI8UQFYfA/706OeD7yQcVj+rOvQoMT9zapM69Mitjwb1yK2PAj1KzM0odB+56tAjtz4a1KNEvbn5Sh165NZHTXqUqK/D3IwCPXLro0E9cuujBj2aNDejQI/c+qhJj9z6mNBj1o0/RhncEGSYEvMzpzapQ4/c+mhQj9z6KNCjxNyMAvcxdQBI8212t08caQVdb//JiXP/8F/9q2qLhauGf+MMeww4vZswbRQCAADAYgyu/pt2449RBntYBQizEwASMbBxR/VIK+h6+wcnzv2jf/kvh75jb1FmCf9iyGPAg4/+evwXAABgsS51bsVbnZvx3icfV0/N5b1PPo63OjfnfpQYzrJzh8+fvagOcjYNC/N6+0/6oVsK1AZN+66/FDB22lemrhk0a/iXnL/xfkREHN79oN9j3nsAAACgvEdbt+PzrTvCPVggKwDp22hfPXGk0K+1/uaJc8sK0eYN/2LgMeDBzT+Wdd8AAAAAdSAApNZywr8YeAx40q7BAAAAAE0lAKS2csO/GLLab9hjzAAAAABNJgBkIao7Bo/bTXiYFP7FUWhXrZlUX9qyPgcAAACgNJuAMNbmHJt3pJppVXvn1g8aDBIHzbKq0OYhAAAAi2MTEFg8ASATbXa3Zw6+ZlkxN6x3bn2cWEX4chfjtKtxGpsUAvb2D/rvDxQAAgAAlCcAhMUTANI4vf2D2Ow+GPv+wGlX9Z2/8X7/x5OuBQAAYHYCQFg87wCkcSaFfxER3evXJgZ6aeUfAAAAwCoTANIom93tieFfMir82+xux/kb7/f7dNpXqpcAAAAArAwBII2SdhvemDO0G9yApNO+MjFEBAAAAKg7ASCNMrjBxzw22lej074Sh3c/GLlCEAAAAGCVCABpjNzwLxH8AQAAAE0iAKQxPu0HgG9WTwEAAACcWQJAAAAA4FT96DvVEaCkqQPAnd296tBMcuujBj12dvf6R47c+qhJj9z6qEmP3PqoSY8S8zOnNqlDj9z6aFCP3Poo0KPE3IxC95GrDj1y66NBPUrUm5uv1KFHbn3UpEeJ+jrMzSjQI7c+GtQjtz5q0KNJczMK9Mitj5r0yK2PAj1+9J1Xx7xKzM+c2qQOPXLro0E9cuujQI8SczMK3Me5w+fPXlQHYRX19g+ife9+REQc3v2genpuaWfgTvuK9wMCAAAUtvn4dmw9vhOdizdj4+Kt6mmggKlXAELdDW7+kTYEAQAAADjrBIA0Sqd9JWJgQxAAAACAs04ASKOkR3S3ug+sAgQAAAAQANJEaRVg+9792OxuV09HHL3Xb9Q5AAAAgCaxCQiNlDbuSFrra9FafzN6+0+OrQwctrFHNRhMNanHoGotAAAAs7EJCCyeAJDG6u0fxOaIR4Fb62ux0b5ybOOQGBIcTjIsQAQAAGB6AkBYPAEgZ8Lgqr5JgV11BeA4k3oBAAAwngAQFk8ACAAAAJwaASAsnk1AAAAAAKDBBIAAAAAA0GACQAAAAABoMAEgAAAAADSYABAAAAAAGkwAyKl6tHW7OgQAAABAQVMHgDu7e9WhmeTWRw167Ozu9Y8cufVRkx659R+98258vnUnPnrn3eqpmeTeR2591KRHifmZU5vUoUdufTSoR259FOhRYm5GofvIVYceufXRoB4l6s3NV+rQI7c+atKjRH0d5mYU6JFbHw3qkVsfNejRpLkZBXrk1kdNeuTWR6EeuUrMz5zapA49cuujQT1y66NAjxJzMwrcx7nD589eVAdh0Z72Hh4L/t775OO40Lp87BoAAACab/Px7dh6fCc6F2/GxsVb1dNAAVOvAISSHm3dGftzAAAAAMoQALJ0j7Zux9Pew2NjT3sPvQ8QAAAAYAEEgCzd50er/dIjv+mfaRwAAACAcgSALFVa5XehdTkutL519ONv9UNAqwABAAAAyhIAsjRPew/7q/wudW4eO5d+/vnWnROPBwMAAAAwPwEgC7XZ3e4faaOPtzo3T+z4e6F1Od46CgHn3RBk8LPS0ds/qF62Eja729WhE6a5BgAAAEAASHG9/YNo37sf52+8H1vdB/3jb/6lvxz/1+98Jy51hm/rnsaf9h7OtAowfd7gZ6Uj3ccqhWWb3e3Y6j4Ye8/TXAMAAAAQAkBK2+xuR/ve/f7Ku9b6WnTaV+J/9t//9xER8d/++T8f7Xv3K1WvvPfJxxER8dE771ZPDdXbP4jN7oPo7R/0P2vwSIRlAAAAwFklAKSYtCotIqLTvhKHdz+I7vVr8Sv/9X8d/+vf//34v/03/ypa62tHod3wMO7l5iDTbwgyGP51r1+LjfbVY0e6h077Smy0r1bLAQAAABpPAEgxKfxLQVwM2fhjmjBu2g1B0jv+Uvg3Smt9beznAQAAADSZAJAi0oq+TvtKtNbX+uPDNv6YFMbNuiFIa/3N6hAAAAAARwSALMzgZh6jNv4YZZYNQXr7T6pDMxncNbh6jDs/SXrUedgBAAAAsCwCQBYmbeSRVvPNKtWN2hBko321/07BcRuLjLN59N7CUUd1J+PBY1yQt3m0GUq1ZppaAAAAgJIEgCxE2sDjQuvyzKv/kkudWxM3BNk4euQ4hYBp9+FZjdtBOI4eba6e2zp65+EwG+2rJ2qmrQUAAAAoSQDIQgxu/JFjcEOQYV5u8HE8BDx/4/2ZH7dtrb95YgfhFNZ1jjYtGXZuXP9qzSy1AAAAAKVMHQDu7O5Vh2aSWx816LGzu9c/cuTWR016jKofXP2XVvDNa7DHqFWA//a/+2l/d+Fk8HHbeR8PnsWor0UMeYfgqHcWjusxjRLzM6c2qUOP3PpoUI/c+ijQo8TcjEL3kasOPXLro0E9StSbm6/UoUdufdSkR4n6OszNKNAjtz4a1CO3PmrQo0lzMwr0yK2PmvTIrY9CPXKVmJ85tUkdeuTWR4N65NZHgR4l5mYUuI9zh8+fvagOwqzSu/TSarlHW7cnPvr7aOt2fL51J97q3Jzq2knXJL39g/j06FHg3v6T6O0f9O+rqnrfJc4l6ZpRRtXO0nvcNQAAAKtg8/Ht2Hp8JzoXb8bGxem+7wNmM/UKQJjFtGHdtGbp9/Kx4JeP23avX4s4hXfuDYZ/g+//6xw9rgwAAACwLAJAGu803rmXwr/Dux+ceAdga/3N6uUAAAAACyMApKhR77c7S1LQOPhOQgAAAIDTIgCkiJcr217txDvOMlfixcBqPO/KAwAAAM4iASDFbBy9325cCNi+dz+2ug+KhYCT+qT7WOZqvBQ0zvvewWnqp7kGAAAAIASAlNRaX4vu9Wv9EPD8jfejfe9+bHa3o33vfpy/8X709g/6m3TkShttDH7O4FH682aRAsfzN94/cV/TPCZdrR8mXdO+dz96R7seAwAAAFT9uY3Ore9XByHHr/+n/0n09p/ET/70WfzkT5/1fxwDIWFExNPew/idw/93/Ld//i/E4//xf4ze/sHUx9vra/H2+tqJzxk84igk+7/8jf/82P0NetnvSbSO+pU4FxH9seo9Vb8Ww2pjSP3gWHIuIr7802fR2z+In/+Z10+cBwAAWAW9nz6M3k8/i9bXLsfbX7tcPQ0UcO7w+bMX1UEoZXD1WnUVXlrBN49O+8qxfsNWyVU/b5TN7vbIa+c9N2jYvUWh+4spzgMAANTZ5uPbsfX4TnQu3oyNi7eqp4ECBICcmkdbt2Or+yAutC7Hhda3qqfHEngBAAA0gwAQFk8AyKl5tHU7Pt+6E291bsaljj/kAQAAziIBICyeTUAAAAAAoMEEgAAAAADQYAJAAAAAAGgwASAAAAAANJgAkFP1o+9URwAAAAAoaeoAcGd3rzo0k9z6qEGPnd29/pEjtz5q0iO3/kffeXXkyL2P3PqoSY8S8zOnNqlDj9z6aFCP3Poo0KPE3IxC95GrDj1y66NBPUrUm5uv1KFHbn3UpEeJ+jrMzSjQI7c+GtQjtz5q0KNJczMK9Mitj5r0yK2PQj1ylZifObVJHXrk1keDeuTWR4EeJeZmFLiPc4fPn72oDsIy2OodAACAR1uvvje81PG9ISzC1CsAAQAAABbhV36/OgKUJAAEAAAAgAYTAAIAAABAgwkAAQAAAKDBBIAAAAALsNndrg4NNeq6ze721Me0ZrkWgOb4cxudW9+vDsIy9H76MHo//SxaX7scb3/tcvU0AACsrM3udmx1H0RExNvra9XTfaOuS+O9/SdTHdX6YUZ9Fpy2p72H8bT3WVxoXY6fa/neEBbBCkAAAICa2WhfjU77ytijNRDiTRPopfAvBYYAnB0CQAAAgBraaF8deby9vha9/YOIiOhev3YsDBwmXVv9MQBngwAQAABgxWwereZrra9NDP8iIj6thH7eBQhwtggAOROe9h7Go63b8bT3sHpqpHlqAABg0dr37kdv/yBa62vRvX6tenqo9Phvp30lwmPAAGeOAJDGe9p7GB+98258vnUnPnrn3akCvXlqAABg0Xr7B/1HeDeOwrxJ0vWt9bXYaF89NgbA2SAApPH+uBLeVX8+TPWa6s8BAGDZevsH0b53P2KGR3/j2OPCbx7982WdEBDg7BAAAgAArIDB9/j19g/i/I33Y7O7PfF9fq9WDL5c/ZeCwOp7AQFoLgEgAADACthoX41O+0r/iKN3+211H4wMAdP44GrBt49+nN4LCCV99M678cPXXp/p+HzrTkREfL5158S5ScdH77xbvQVgiKkDwJ3dverQTHLrowY9dnb3+keO3PqoSY/c+lJy7yO3PmrSo8T8zKlN6tAjtz4a1CO3Pgr0KDE3o9B95KpDj9z6aFCPEvXm5it16JFbHzXpUaK+DnMzCvTIrY8G9citj6MeG+2r/ePw7gcTHwNOm32kVX87u3vHamZ5DLhJczMK9Mitj5r0yK2PSo9lvz89fV6J+ZlTm9ShR259NKhHbn0U6FFibkaB+zh3+PzZi+ogLMPm49ux9fhOdC7ejI2Lt6qni3m0dbv/f5QiIt7q3IxLnfGfN08NAAAkm93t2Oo+iE77Sv/R22GmvW6USfXnb7wfERGHdz84Nj6pDub1w9derw4t3HefP6sOARVTrwAEAABgdQw+FpzeFZiOtDIw/RMW4bvPny3sAGYjAAQAAGigwXAvvSswHenR397+wcj3BwLQHAJAAACABkoh3+DGIYPHpPcHAtAcAkAAAICGSav60jv+hh1pYxCPAQM0nwAQAACgsLSxxlb3wchHbNNGHDFwffX8qNpkVHiX+r49ZpVf+sxZdgIGYDXZBZhTYxdgAACabDDga62v9VfcxUBAFwOr9AaNq01G9ejtH0T73v2IIbv/VrXv3Y/e/kF0r1/zSDBFDO4CvMjNOpb1OVHZUKeq+nu3alxt1aRekEMAyKkRAAIA0HRpx91hq+w67SsRY77pf7lBx6sNO4YZ1iOFh8OCxapZroVpLCuYW9bnDIbxo4z6/TNN7aBRfaAEASCnRgAIAMBZUV0FNMs3+dXaZFyPze722PODZrkWJllWMLesz0kh3qSVuK31tehev1Y9PfL3bzIYEE5asQs5BICcGgEgAABAsywrmFvW50yzSjY9Sj/ummEGVwh6DJ9FswkIp6b3J58d+ycAAACsmmErAyfp7R8I/1gqASBL1/6Dd+P877wevZ8+jIiI3k8fxvnfeT3af/Bu9VIAAABolMGNejrtK8I/lkIAyFK1/+DdfvBX1fvpQyEgAAAAjZbCv5jwLk8oSQDI0owL/xIhIAAAAE1V3RTk/I33T4zBIggAWZpJ4V8y7XUAAABw2nr7T6pDI220r0anfaV/xNFOwEJAFs0uwCxF2vF3Wr/xZ5fjN/7sW9XhuTztfRZPe69CxWl29K3uAnyhdTkutMrczyg/+k51ZHUtcldnAACgvpa1O++yPift1NtaXxu62UfayKO1vhbd69eqpyeaZpdhKGHqAHBndy++/UvfrA5PLbc+atBjZ3ev/+N5e0TmPSR16DFL/awB4K/8/stjEaoB4LBfRzUAXLQffadZAWDn4s2sEHDYv5NZ5NZHg3rk1keBHnX5szO3PmrSI7c+GtSjRH2S2+c066NBPXLroyY9StQnuX1y6qNAj9z6aFCP3PqoQY8mzc0o0CO3PmrSI7c+Kj3mDeZmvY/q55SYn8PuIQV04wyGd8N6THL+xvsREXF494OIOXsMyq2PBvXIrY8CPUrMzShwH1MHgJBj1gDQCsDVlL7WnYuTv8YAAEDzVIO5RVnW5wxbAZi76q/KKkCWQQDI0pz/nVd/QE9y+Bvl/gCvhnnzBIDT1PDq6+brBQAAZ9Oygrllfc6wcG5wVWBatZdj2GdAaTYBYWlaP3u5OjTUtNcBAADAsm20r0ZrfS1iyK6+UFcCQJam+6sfTwz3Wj97Obq/+nF1GAAAAGpjY2AH397+QfU01I4AkKUaFwIK/wAAAFgFrfW16ByFgJtjNgmZZoVgb/9JdQiKEwCydN1f/TgOf+NZPwhs/ezlOPyNZ8I/AAAAVkZ6X19v/2Bo0Jfe7de+d796qm+zux29/YNora95/x8LJQDk1LS+9nJX3fRPAACok2Hf0E8yS824aze721Mfw1SvGXdMY54aOAvSLsDDHgVO7wrs7R9E+979E7+PNgc2E0k7DMOi/LmNzq3vVwdhGXo/fRi9n34Wra9djre/Nvyx4BKe9h7G095n/Z9faF2On2uN/7x5anj1dfP1AgBW3eA35m8fvex/klTT238Sv/6f/ifV08eM6z/YZ5qj2iO3frBPb/8g3rl3/0RNb/9JfPmnfzq0jrPt8607/R9f6tw6dq6kZX1Ob/8gevtPorW+NnS+f/1nfiZ6+0/iJ3/6LH7+Z14/cc3Xf+b1+PJPn/X7VI+IsPsvS2EFIAAAQEEvv9EfvylACv+G2WhfjU77ytijen3159Xrq0cy6rHDFCKm+xysTSuatroPrAak8dLvp2G/T5Lu9Wsjr2mtr/XPDzsO734wtA5KEwACAAAUlrspwEb76shjUHr8sKpaM3ikVUcpmBhmMPhLAUU6UpgxeB00WfX33TCTrqn+PkwHLIsAEAAAoLBxqwBTADePtPIujsK/1pBHEsdp37vf33BgVPiXAspRK5piYFVUTBloAnC6BIAAAAAL8OmQAHBcMDhJ2kggjsK5RYR/ADSTABAAAKCgcY/Hjns0eJIU/sUUjxtWpfAv7DYKcCYJAAEAAAob9XhsCuHS+WlV+5y/8f6JsVHSbr7JVvfBsUAQgOYTAAIAABSWVugNrgJMgd2sj+7GkJ1946j3NCFgtTbt4rvZfSAEBDgjzh0+f/aiOgjLsPn4dmw9vhOdizdj4+Kt6uliHm3djs+37vR//lbnZlzqjP+8eWqa4NHW7erQTJ72PounvYdxoXU5LrS+VT09k7Pw9QYA6muzux1b3QdjN8KoqtZUf37+xvsRR5t3fHq0mccs/Qel3vO+z2/S+wDTvY66v/T5467hbPrha6/3f/zd58+OnStpWZ8DTTH1CsCd3b3q0Exy66MGPXZ29/pHjtz6qEmP3PpScu8jtz5q0iN3fqbQM+d42nsYERFPew9PnJv1yAkj5/0aDGpKj9z6KNAjd24mp10fNemRWx8N6lGi3tx8pQ49cuujJj1K1NdhbkaBHrn1seI93j5a6bfVfRD/p3/yTyOOVv/NswIwKvew0b46sJJv8irAJPVIOwiPqh9cZZgeN/5bf/8fxN/6+/8g3vo/3Bn6fsNpzfO1rKpDj9z6qEmP3PqoSY+dAn925tQmdeiRWx8N6pFbHwV6lJibUeA+rADk1FgBWD8fvfNuP8R7q3Ozenrh0tf8QutyvPfJx9XTAABLU129N41hNdV37Y1aHTiP3B6T6lMwOCzsS+FhDISJEEtcmbesz4GmmHoFINB8733ycVxoXY44epz3UufW0o6nvc8ihH8AQMNsVDb7GBa01dVG+2pstK/G4d0Pjr1DsNO+cuyxYeEfQP0JAIFjUgj4tPcwPnrn3erphUgrD4V/AEDTDD7ymx6rXUUpDExHWv0n/ANYDQJAGu/njla0jfr5MNVrqj9vumWGgMI/AKDputevjXzMdlV92g8A36yeAqCGBIA0XgqW3urcPPaI6zjz1DTNMkJA4R8AcFbMGv4N25ijKr2bb1jv3Ppxekc7GMfARicA1JsAkDPhQutyXOrcminIm6emaRYZAgr/AACGS5tztO/dr57qSwHfsMeKp6lP54bVT7J5FP512lc8AgywIgSAwFiLCAGFfwDAqujtP4nN7vbIYxE22lf7u+y2790/8Zkp4BtlUn3ambi1vjZx9V+19vyN96euhSbq7R/M/Ht/1uthEc4dPn/2ojoIy7D5+HZsPb4TnYs3Y+PireppaqZUaFeqDwDAIk0K2ZLBd/ulmmne9zfp2pchw4P+ZhvDjKqNKepfBnjjV/CN+hqM+1z44Wuv93/83efPjp0raVmfU5UC9Gl/H0z6vQ7LIgDk1AgAV09ueJdbDwCwTNOs2ql+Q7/Z3T4xNso01466h0l1Sen6aes4u5YVzC3rcwal8C9mCMIFgNSFAJBTIwBcTfOGePPWAQAAq2NZwdyyPieproidNtATAFIX3gEIzGSedwIK/wAAgFWU3vmXwr9xj81DnQkAgZnNEgIK/wAAgFW0ebRpTgr/Xu58/Wb1srlVH7GHRRIAAnOZJgQU/gEAAKtqo301Ou0r/aPkI7wpWBQCsiwCQGBu40JA4R8AALDqNtpX+0cpaTORl7txl+sL4wgAgSzDQkDhHwAAwEmD4V/3+rXqaVgYASCQbTAE/OFrrwv/AAAAKoR/nKapA8Cd3b3q0Exy66MGPXZ29/pHjtz6qEmP3PpScu8jtz5q0qPE/MypTSFgRGSHfzn3EQXqo0E9cuujQI8SczMK3UeuOvTIrY8G9ShRb26+UoceufVRkx4l6uswN6NAj9z6aFCP3PqoQY8mzc0o0CO3PmrSI7c+atKjxPzMqU1G9djqPpg6/BvVY1q59dGgHrn1UaBHibkZBe7j3OHzZy+qg7AMm49vx9bjO9G5eDM2Lt6qnmZFPdq6HZc6/n0CAMBZ9MPXXu//+LvPnx07V9KyPqdqs7sdW90HU28Kkq5PDu9+cOw8LMvUKwABpiH8AwAAGK597351CJZCAAgAAACwQK31tYiI6O0fxGZ3u3oaFk4ACAAAALBArfU3++/+S+8DhGUSAAIAAAAsWGt9LTrtKxEDOwLDsggAAQAAAIbY7G4fO3r7TyIiorf/5MS5aWy0r/YfB94c2BwEFk0ACAAAAFCRdvAdPNKqvd7+wYlz04aA3evXorW+5n2ALNW5w+fPXlQHYRk2H9+Orcd3onPxZmxctHMsAADAqvvha6/3f/zd58+OnStpWZ8zS0C30b5aHYo46jHs3KhxWAQBIKdGAAgAANAsywrmlvU50BQeAQYAAACABhMAAgAAAECDCQABAAAAoMEEgAAAAADQYAJAAAAAAGgwuwBzauwCDADAOB+982487T2MC63LcalzMy60LlcvAWpmcHfeZbELMEw29QrAnd296tBMcuujBj12dvf6R47c+qhJj9z6UnLvI7c+atKjxPzMqU3q0CO3PhrUI7c+CvQoMTej0H3kqkOP3PpoUI8S9ebmK3XokVsfNelRor4OczMK9Mitf9p72P/nR++82w8EZ5V7H1GgR2591KBHk+ZmFOiRWx816ZFbH4V65CoxP3Nqkzr0yK2PBvXIrY8CPUrMzShwH1YAcmoebb1aAXipYwUgAADHjVpJZEUg1Ne8Qf28LrQux3uffFwdBioEgJyaR1u34/OtO/FWRwAIAMBJowLARBAIzeB7Q1i8qR8BBgAAOC2//s/+j/H1b//isbHcR4MB4KwQAAIAALX39W//x/Hr/+zvCQIBYA4CQAAAYGUIAgFgdgJAAABg5QgCAWB6AkCgb7O7feyYZJprYorrqp876XoAgEQQCACTCQDhjOvtH0T73v04f+P92Oo+OHa0792P3v5BtSTiKLRL14yTrhsV6qXz1eP8jffHfj4AwCBBIACMJgCEM2yzu30sZGutr0WnfSU67SvRWl+L3v5BfDohgOvtHxQJ6aqfHQPh5KjwEACgShAIACcJAOGMSivvIiI67StxePeD6F6/Fhvtq7HRvhrd69ei074SG+2r1dITNo/65Gitv3nssw/vfhCd9pWIiLErCAEAhhEEAsArAkA448aFfKPGq3r7BwsJ6FIYGEchIADArASBACAABDKlx3UXFdClR4Njis1EAIDT9cXW7YnHaREEAnCWCQDhjEqB3dtHAd68Wutv9kPASRuCAADN9TLguzPFcXohYAgCATijBIBwBg1u2pHCuxwbRyv0Sm0IAgCsrjdal+MbnZtjjlvVklMhCATgLBEAwhmUdvZNj9bmOv6Y7mIeBQYAVsMbrW/FNzq3Rh51IwgE4Cw4d/j82Yvq4DA7u3vx7V/6ZnV4arn1UYMeO7t7/R/P2yMy7yGpQ4/c+kdbt+PzrTvxVudmXMr4y2DufeTWR016zDI/0w7A1Q1AZrmHYT3O33g/IiK616/1VxYOu27QsPPV+xh2zTjV+nk0pUdufRToMcvcHKfEfeTUx4J7PJrykbgvf/zH8fVf+Lnq8Eya0qNEfZLbJ9XP89+zUXNiFk3pkVsfNelRoj7J7ZNTHzP2SI8AD67ym6V+mB++9nr/xxsvPj12blG+3Pmj6P3gt+PLnT+snooLrctxqXMzLrQuV09NlPu1iBr0WNW5OUpuj9z6qEmP3Poo0OPR1u3YenwnOhfn/96wxPzM/XVETXrk1keDeuTWR4EeJeZmFLgPAeAM6vIvLWrSI7deAHhcbo9Z5ueoQC3dQ3WzjWGh27Aevf2D/nsAD+9+MPK6QcPOV78Ww64Zp1o/j6b0yK2PAj1mmZvjlLiPnPpYYI/05yGr70Lrcrz3ycfV4bGGzYlZNaVHbn3UpEeJ+iS3T059zNijKQFgUjoIzP1aRA16rOrcHCW3R2591KRHbn0U6LH5+FUAuHFxvu8NS8zP3F9H1KRHbn00qEdufRToUWJuRoH7+HMbnVvfrw4O8+Mv/zh+IeP/jufWRw16/PjLVysF5u0RmfeQ1KFHbv3T3sN42vssLrQux8/N8Jenqtz7yK2PmvSYZX6+fFffk2itrx3bBOTHX/5x/MN/9S9jq/sgevtP+kcM2SxkWI+v/8zPxMf/5R/G/+vf/Jt+zbDrBg07X/1aDLtmnGr9PJrSI7c+CvSYZW6OU+I+cupjgT0G/zz8n//6/zIutC6PPP7tz309/sN3/7MT47McTelRov7f/St/Jf7dv/JXsvv8h+/+Z/G091n82U9+Ek97n8X/4tf/xrF/x+MMmxOzakqP3PqoSY8S9Ulun5z6mLHHV72H8VXvs3ijdfnoxy+Pf/vP/3l81XsYb8zx973B/zny9vd/89i5RfsPfuFr8R/9zXfi69/+xfjXX/5J/Osf/0n/3J/95CfxL/7hP46nvc/i3//6z8e/9/WfP1Y7zCxfy1FOu8eqzs1Rcnvk1kdNeuTWR4EevZ8+jN5PP4vW1y7H21+b/c+KKDQ/c38dUZMeufXRoB659VGgR4m5GQXuY+oVgFBaqRWAzG7YSr1BaQXgywDwYOjKu1Gr8gZ7d69fi0/3D4Zel4zqM2iaa2CV+fOwGdK7wiIi3vvk47gwR9gBqyytABxn1k1ATnMFYFXpFYHAKyVWAALj2QSEqX0x4f1UL//SN/qgPgZ3/h22a+9G+2pstK9Ga/3N6qmJWutrA+//syEIcHZcGHj814YBnHUnd/69GRERX2zdWdm/F9osBIBVJgBkKun/6P7ea6/HV0P+UvPonXeP/kI3+nh0tCqCeki79qYdgUvqXr8WMfDobq4SPQCW4ULrcrx1FHQIAjir0iq/k8fL3xtf9T6rlqwUQSAAq0gAyMwevfPusRDwi63b/fe6VP9PbzrSu2BW9f/4NtmiwrUUMA5bYTiL9r370ds/iNb6msd/gZVwqXOr/xjgowmPQ0KTpJBv1CO+3+jcatTfCQWBAKwSASBzebni7+Vf3NK7Xi598vGQ/9P78nij9a1KB07by0d8X27Skd7ZV5UTDqb+OY6Hfy8DRYBVkN4BOPheQDgLRoV/SRP/TigIBGAVCACZSfUdLr939GLmNMZq6V6/1g8Bz994P9r37sdmdzva9+7H+RvvZ6+8myW06+0/ic3u9tDPT/fJ2dDbP+hvRDOLNH8Gj3EmnR80y7WQpPcBCgHhbBAEAlBnAkBm9o3Orbh09E0Nq28wXOsd7dibHttN4du8BjcEmSR9dsnPZzVtHs2DaUO3tIo1zZ/B4/yN94eGgWln6er4MLNcC1WDIaBv+uFsEAQCUEcCQObyRuuyELBButevxeHdD6LTvtI/Du9+MDZ822hfjU77ysTVgd3r18Zel/pUj0mfTzOlx76nlVaMptWi1XkUEf0wcDDAe/somN6aYqfqdE2qgVnYGRjOLkEgAHUiAGRub7Qux199/mzsy55ZLRvtq/1jGqWuG/zcWT6fZtnsbs8U/kUlQO5ev3ZiHh3e/WDoKtTB1anTruwb1gemcaF1ub8piEeBabpJm3ukd0efpb87CgIBqAMBINnO0l/ggNGmDdKq0jv/0kq7WYO2SaFxa/3N6lDEwPi4zW7SrymtJoR5pU1BQghIg32xdTu+2Lpz9M+Tx6Ojub/Md0f/4J8+rg6dGkEgAKdJAAhAtnnfk5ce4U3hX6d9ZWRgV1oKDcetOkzhoMd/KcHOwJwVL0PAk8dXSw62fvBPH8f3P35cqxAwBIEAnBIBIEvxVe+z6hDAsUd4x70rclEmPQY8uCHNqni0dfvYMa1Z6wavmaVu0KyfmcxTV+J+S7h0tPLpae/hqXw+LNI3OreOXg0z6fD0SAgCAVgyASAL98XW7fiq9zDeaF32Fz7ghNN89+PG0aO9wx4DTqHgqoR/6ZvFz7fuHDsmffP4aOt2/PC112eqe7R1u39NtfaHr70+Mdia917nrRu832r9pHstbXBTkM+37oy9b1hFL0PA8QfHCQIBWAYBIFN59X90Z/9LW6q1azCwbL39g7E7/aZwr7d/cOJR4BQKLuuR5Fx/3HsYT3sP40LrcrzVuRlvdW72Hzf94xHfNKZgLCL6NdPUJemb0cHaOAq2xgVr89xrRMSjo8BsWN2jo1/HOE+HfO6lOf67lsvOwMAwgkAAFunc4fNnL6qDsAzpG8/T+gYMKCe9A7DEY7ylevX2D6J9737EUdDXvX6teknEmM87f+P9iIg4vPvBwNWLUeLPwx++9npERHz3+bNj44+2bo/sOapm0rl0v4NB1qBxtTHm/Lh7HfeZ6RviUV+/waBzWP1pGfxG/t98trxNEWBWv/L71ZHlSb93IyI2Xnx67Nwk6R2A33/3Yvzdv3axerr2vtz5o+j94Lfjy50/rJ6KC63Lcenof4JAE2w+vh1bj+9E5+LN2Lh48r/lQL6pA8Cd3b349i99szo8tdz6qEGPnd29/o/n7RGZ95DUoUdufYlveKPAfeTWR016lJifufcQNemRWx8N6pFbH0N6DHtfXm//SfT2D6K1vnZixdyPv3waERH/q7/8l6e6l1GBXPU+xhkW/o2qH7w2hX3pHqrB4agesxjWY5Y/D3Pr46jH//SzT8fWjOs57tyk84Pn/j/fevvEr2WUYaHh4Ndi2PlkMACs1ifT3scww/6dTCvd94++8/KAOvqV3z/dEDAZFwAO2+hj54s/iZ3/5qfx7b/0s/Htb3ytejoiYiWCwdJBYM6fWXX4czOpQ4/c+qhJj9z6KNCjRABYYn7m/jqiJj1y66NBPXLro0CPEnMzCtzH1AEglDbuG0SgnlIwNo9qoDfKqABwWsPCv0na9+5Hb/8gutevRWt9rf/zee9hVrl/Ho5bHTdK9TPT47dPe58de7xs2D1Va6vGnS9xr8OMu2bcudNkBSCr4jTDvxTex5gAMK30m8cqrQ4sHQRCnZQIAIHxBICcmrp+QwaMN+sKwGTaIC0nAJwn/IshK/6W+fhvFPrzMIVJF1qX40LrW/3xUf0GV8UNk/oMq590v5POz3uvo/rFhGvGnTst6X1eERHvffKxb9phhLRKNsYEgNHwFYBVgkCaSAAIi2cTEABmMrhrbzpS6Ndaf/PEuXQsWvve/X74171+berwLwbCycHNQFZl998kfcP3tPcwPp9hh9zkwtHGGO998nF89/mzeO+TjxcWluXe66oT/kF5f/evvVzJN3ik0O/b3/jaiXPpWEU2CwFgHgJAAFZeemQ3jsK/ecK7VPNqBeHwlYx1lR6pfWvIbr7jdsh9q3PzWOC3jDBq3nttgsHwL/26AeYhCARgFgJAAFZaifAvhgR+y1i1uAiXOrf6R1pd9jJYu1299NSt0r2WkgLOl4/pLWaFJXC2CAIBmIYAEIBTtdndPnb09p9EHL1XsHquajD8a62vxaf7BydqRtVWrWrgN8ngO/bqbtS9pqBs3DsL07k6h2qD7z6cdgMUgGkJAgEYRwAIwKlJm28MHinQ6+0fnDg3GOS9DAtfXjvq+lG1o3TaV479c5WMWjU3KhibFKqN6lfCqN6j7jWOHpeNoxCtavCR2roa/KZb+AcskiAQgGH+3Ebn1verg7AMT3sP42nvs7jQuhw/5x1IsNLePnrsdtZVdKnu5e7Bk4/B/jm1o8z768iV++dh2uX2ae+z+LOf/OSo38sNNv7sJz+Jtzo3R/Z92vusH7wN1v2Lf/iPIyKG1k2633Hn573Xn2tdjqe9z/q9U+3LXi9X1f3q3/8/V8siJtzPMqT7jKPw79/7+s9XLwFGGPyfFG9//zePnZvk23/pa3FuRXf6LeE/+IWvxX/0N9+Jr3/7F+Nff/kn8a9//Cf9c3/2k5/Ev/iH/zie9j6Lf//rP+/PJU5d76cPo/fTz6L1tcvx9teW/99qOAvOHT5/9qI6CMuQvgl8q3Nz6GoPgLMi98/Dp0ebZzwdsprj5bvmRm82kT67alzdpPsddz7nXkfVTqobdz/p/KyG9RnmqR1/IcsPX3u9/+ONF58eO8dsvtz5o+j94Lfjy50/rJ6a+OcoLNrm49ux9fhOdC7ejI2L0/03ltX04W/dje/9729Uh1fePL+ueWpyCAA5NZO+IQM4K0r9eTgsyJq2X7V2Ut2jrdtjr5nmfNW46wdVa6epG3U/owLQSab9d5XCiwve+wdzEQCWJwikjgSAZ8OHv3U3PvzwbnzvezeWGnwt2jy/rnlqcgkAOTWlvuEFWHX+PDxd1UBxGtP8e7LpB+QTAC7OWQ0CvxjyZ/43pvgzncUSAJ4NpxF6LcOsv669R5/Hr/3aX4+ImLqmBJuAAABn2qXOrZmPSYR/QN2dtc1Cvuo9jEfvvBtfbN05cfzea68PDQYBFuG3PrxbHVoKASAAQEGPtm73v2G+VOOdiQHiDAWBX2zdia96D+ON1uX4RufmsSOdfzRkp3mAkn7t1/567D36vDq8FAJAAIBCqjv+NvHxOaCZmhwEfrF1ux/+Xfrk4/hG59ax468+fxZvtC7HV72HVgLCKfvwt16tjvvwt+72j2mk6wbrZq0dZdj51P/R3stA79He5yM/98Pfuht/4S/+Quw9+jy+eemt+N73lvPY7yABIABAAXb8BZqgiUHgy6DvZlwa80qGN1rfqg4BS/bh0bv0fu3X/nr8hb/4C/Hhhy9//uGHL8Ozaqg2KNVW62apHXXNsPP9sQ/v9lf07T36/PhnDwaSR4/9fu97N+K/+C/+7/0+y2QTEE6Nl94DvJT+PLzQuhwXfAOystLKP+/9g3JsAnL6zspmIV9s3Y4vtu4cPRbse5NlswnI2ZCCsFEbXwwGZXEUlvXPDQRok2qrq+umrZ31fAr4Hu193l/Zd+mbb/XPV6+t/nxYz0WaOgDc2d2Lb//SN6vDU8utjxr02Nnd6/943h6ReQ9JHXrk1pcKAHPvI7c+atKjxPzMvYeoSY/c+mhQj9z6KNCjxNyMQveRUx8L7JH+PGT1zRP+DZsTs2pKj9z6qEmPEvVJbp+c+ijQI7deAFgfJYPA3HkRC+gxTwBY+h7mldsjtz4K9CgRAJb4szP31xE16ZFbHwvqMSn0Sue/eemt/iq51GPa2ur5nd29+K/+q//H0HPJqNrkf/e3vxf/5J/8k5HnJ9UPm5uTaoapfj1nNXUACIvwaOt2VvgH0BSPvHOoEfw3DcoSANZPySCwTuYJACmnRABI/U0KvcadH3dumvN/4S/+QkRE/D//ux9XT02szT0/zDw1uQSAAABALQkA66tpQeCjd96Nr3oPBYCnRAB4NkwKvcadH3cu9/y4cyXODzNPTS6bgAAAADCTJm0WksK/N1qXhX9AYwkAAQAAmMuqB4GD4d+4XYIBVp0AEAAAgCyrGAQK/4CzRAAIAABAEasSBAr/gLNGAMip2+xuV4cAAIAVVucgUPgHZ8+HH96NiFjahht1JADkVG12t2Or+0AICAAADVS3IFD4B832aO/zlzvsDhy/9mt/PSIivve94eFfCgU//PB4XToe7X1eLRmq+tmDRvWs1lTrShIAAgAAMLMvd/4oPv3Bb1eHh6pDECj8g+bbe/T5yyBv4Nh7NDnAS+FgtXba+hj22Udh3oe/NbrniZqButLOHT5/9qI6CMuSVgB22ldio321ehoAgDPsh6+93v/xxotPj53jdH2580fxu7/8tyMi4uvf/sX49X/296qXjPXlzh9F7we/HV/u/GH1VFxoXY5LnZtxoXW5empuwr96a//Bu9H76cNo/ezl6P6qfz9N9uFv3R37GO6485POffjh3fjmpbfi0jffqp6OmOLx30nB27j6YbWD1w87P8q4z8khAORUCQABABhFAFhPg+FfMk8IGEsKAlP4FxHxjc7N6uljvtG5VR1igVLwVyUIZFYpAPze924sLEBbdR4BBgAAYCrVlX8bLz6Nr3/7F+PLnT+M3/3lv1O9fKJFPxr8xdbtfvj38ud3Jhy3j9WzOKPCv4iI3k8fRvsP3q0OAxmsAORUWQEIAMAoVgDWy6c/+O3off/lO/9a3//NePvv/mb/3O/+8t+JL3f+cO6VgMkiVgTOEupZAbgc48K/QVYCMi0rACcTALI0w3b67e0/id7+QbTW16K1/mb1dESEYBAA4IwSANZHCvgi4mi13n9cvaRYCBgLCgKpj/O/8+r39iSHv/GsOgQnCAAnEwCyFGml3zysDgQiIh5t3Y5L/q88wJkiAKyHacK/pGQIGFMEgRda36oOL82PvlMdYRq9P/lsqtV/SetnL0fra6f375k8GxeX8/d3AeBkUweAO7t78e1f+mZ1eGq59VGDHju7e/0fz9sjMu8hqUOPWeuHrQD8+L/8w/jn/8P/kLUCcNb7qMqtj5r0KDE/c+8hatIjtz4a1CO3Pgr0KDE307t/LrQux3tz7tyX++uImvTIrY8G9ShRn+T2Oc36aFCP3PqoSY8S9Ulun5z6KNAjt14AePoGH/udFP4lm+fejhjymHCOwfuogx99RwAI0+hcvJkVAs7y35FhuwTPUj9Kbo+6/Hd96gAQFsE7AIFJ0gvAk/c++dgjPwBnhACwHmZZ1TfLasFpWAHYPFYAni054R9lCQA5VQJAYJLBb/7i6C/7864CBGC1CADrY5oQcJ7VgqNMCv68A3C1eQcgLN+/Ux0AgLoYXPmXPO09jEcz7OYHAOT79X/29+Lr3/7F+HLnD+N3f/nvVE+/DOwKhH9f7vxR/O4v/5343V/+2yfCv/Q/AT0NsPpaPzvdv79prwMmEwACUEtPew/jae/l4yFvdW5GHP3FPyLi8607x64FABZvVAj4MrT720fXzBf+Cf7Olu6vfjwx3Gv97OXo/qqnPqAUASAAtZRW/6XwLyLiQutb/b/4WwUIAMtXDQEHw7/W939z5vBP8Hd2jQsBhX9QnncAcuo2u9ve/wcc82jrdny+daf/F//087c6N+PnWpf74aBvCACazTsA6+HTH5zcfXfYjryt7x/f8XfcDsDe8cegzcev/seuTSNgMQSANNK0oeKo6za729WhkYbVJ9P0GVcPZ9Hgrr8p4BsMAC91bp0ICAFoJgHg6Rvc2GNWre//5okQUPAHcDoEgDTOtDsLj7oujU+rWp9M22dUPZxVH73zbjztPeyHfTGwInBwLH1TaBUgQHMJAOth2ArAaQyGf4I/gNMlAKRxRgV7VeOum7RybzDYO7z7wbFzSerfWl+L1vqb1dN91c+Gs2zUyr5hAeDgSsHvPn/WvxaA5hAArj7BH0A92ASEhdnsbkdv/6A6vBI22ldHHoO6168d+/kwrfU3T/QY1Q/Osqe9h/3dfS8NbPwxyoXW5f43DDYEAYB6sbkHQL0IAFmItPqtfe9+nL/xfrTv3Z+4qm4V9PYP+qv/utevRWt9rXoJMKdHR+HfWzOsBEhB4edbd+Jp72H1NACn7Av/g+bMEfwB1JMAkIXYaF+NTvtKPyBLwdlgGLhqqwN7+wfRvnc/4ui9fcI/KOfR1u1+gJce8Z3GhdbleOsoBEwBIgD18MXW7fhi644Q8IwQ/AHUmwCQhdloX43u9WtxePeDoWFgWh24KmFgCv/Ce/uguPTo7zw7+g6+E9AqQID6+OLoz/Y3BD6NJvgDWA0CQJZiMAzsXr8WnfaV/rlVeFS4ek8puATypY08Bt/pN6u0CjD1AuB0fTXwP2QEgM0k+ANYLQJAlq61vhYb7avHwsDq6sC6hYHpkeZ0xEBwOUlv/0lsdrePHcBLg6v25ln9l1zq3LIhCECNpADwG1Ns6sRqEfwBrCYBIKcqhYGDjwonKQysS2A2uHPv4d0PorW+Fr39g4n3l34dg8ekGjgr0oq9nPAvGdwQBIDT5fHf5hH8Aay2qQPAnd296tBMcuujBj12dvf6R47c+qhJj9z6GOix2d2O9r37/R12k077ysT37eXex4+/fFodmkpr/c3+j8fdQ2t97djqwVG/pnE9plFifubUJnXokVsfDeqRWx8Feoyam2mlXs6jv4MG+wxbBVj9/HnUoUdufTSoR4n6YXNzVqddHw3qkVsfNelRor4OczPm7DH4+O8///8d/3bDhiCrZxHB3zzzqqoOPXLroyY9cuujJj1K/NmZU5vUoUdufTSoR259FOhRYm5Ggfs4d/j82YvqICzDy80/npzYAKTTvhJvr6/NvcvuZnc7troPRgZtybTXjTKpftJ54GVQN82uv4+2bsfnW3firc7NiddP2xOAxUi7/36jczO+MfDn8ajxcX742uv9H2+8+PTYORbry50/it4PfvtE6BdHwd+lzs2ZQj8ATpcAkKV6+cjsgxOh38tHgV+9CzDHtMHbtNeNMql+0nlgerMEgDCtj955187RFWk1D+T4vaPQ7tInHx97BFgAuBoEfwDNNPUjwDCv9J68tLFHCv/So7FpM5AS4R8ATEv4d5KvCbns/ru6FvGoLwD1IQBkYQZDv/Ruv2roZ2UcAEBz2P139Qj+AM4GjwCzEOnx12TZj8Gev/F+REQc3v2geqpv3DWb3e2J9zvpEd9J54HpeQSYRRh8tPC7z58dO3fW+FpQyqjHf8MjwLXjUV+As8UKQBZio301Ou0r0b1+LQ7vfrD0AKzTvhIREe1796unIgbG03WDUnA3qjbp7T+pDgEAnFmDj/9+1Xt4FPi9Or7qfXZ07jO7AZ8iK/4AziYrAGms9L7B1vpatNbf7I+nnYdb62vRvX7tWE0yqjYZfKR5VI8UJI7qkSw7HIVVZAUgi2DV2yu+FpSQVvhNa5qVgFYAlmPFH8DZJgCksUbtOBxT7Do8rjaZ9Ghv9THoUSb1AQSALIbQ6xVfC0oZt7Lvq95n8VXvYbzRuhxvtL41MfwLAWARgj8AQgDIWbDZ3a4OTR24DauNAvWDpu0FZ5kAkEUQer3ia8EyeAfgcgn+ABgkAASg9gSALILQ6xVfC5ZBALgcgj8AhrEJCAAAHNl8fLt/wCqxuQcA4wgAAQA489p/8G6c/53XY+vxnf5x/ndej/YfvFu9FGpF8AfANASAAACcae0/eDd6P31YHY6IiN5PHwoBC/lG59ZMj/8ynuAPgFkIAAEAOLPGhX+JELAc4V8+wR8A8xAAAgBwZk0K/5Jpr4NFEfwBkMMuwADU3qOt27H1+E5caF2OC61vVU9zhv3K71dHpvf51p3+j8/6zreDO62+1bl57NwsfvSd6ki99f7ks5mCvdbPXo7W187en0E5v89yDf4+Pau7ANvVF4ASpg4Ad3b34tu/9M3q8NRy66MGPXZ29/o/nrdHZN5DUoceufVRkx659VGTHiXmZ+49RE165NZHg3rk1keBHiXm5ubjlwEgVP3K75cJJ3ICwBK/R3Lqo0CPwQBwXj/6zuoFgEyn1O+zXOMCwB/808fVoan83b92sTpUG4sK/nL+vCjx3/TIvIekDj1y66MmPXLroyY9SszP3HuImvTIrY8G9citjwI9SszNKHAfUweAAHCaNh/frg5BVihhBeArVgBOxwrA5ZtmBeAP/unj+P7H8wWA33/3Yu1CwEUFfwCcbQJAAOBMGgy9BIBn92tx/nemX/14+Btn62tTB4Nzc1QAGA1ZASj4A2CRBIAAwJl0lkOvqrP8tZhmF+A4Wv3X/dWPq8Ms2LQB4CoT/AGwDHYBBgDgzOr+6sfR+tnx4Yrwj0Wwqy8AyyQABADgTBsXAgr/KE3wB8Bp8AgwjbTZ3Y6N9tXq8ESz1I26drO7XR0aq9pjlvpq7TDVftPUAJwFZ/mx1ypfi1fSI8GCv3po0iPAHvUF4DQJAGmcze52bHUfRKd9Zaawa5a69r370ds/OHFt6jGLwR6z1lc/f9C4XuPqAM4KodcrvhavbD6+HVuP70Tn4s3YuHirepola0IAKPgDoA4EgDTOLEHeoMHA7PDuB9XTfb39g2jfux8xIkirrrgbZjCYq37WpPre/pPo7R9ERET3+rVora9VLzn2a+m0rxw7l8Zb62vRvX7t2DmAs0To9YqvxSsCwHpZ5QBQ8AdAnXgHIAwxLoTbHLGqLtloXx17DBoWwFWvHzzeXl+bGP7FUUgYAwHl4HF494NoHfUZ9+sEAGB23vEHQB0JAGGIFKBV9fYP+gHcPHr7B/0VeOMCvFFS+NhaXxtZu9ndjt7+QbTW104Ejklr/c3qEAAAGQR/ANSZABCGGBX0fTpkbFqDjw7PE/6l9w5O++iukA8AYPEEfwCsAu8ApHFKvAMwRrwj7/yN9yOOHq2d5TMmvTdwklnCw2l+/dNcA9B0g+8W4xXvAPQOwDqp8zsAveMPgFViBSCnrm7voUubZlRXAKb7rG6qMY0U3iWz/JoHw7/W+lp86t19AACnxoo/AFaRAJBTlVai1S3QSivsBu8rrQ6cdcVc9de21X0QW90HJ0LBUQYfO07vEJylHoDhfHN+kq8JjCb4A2CVeQSYU7WIR1Hn7TlY9/b6Wj9gO7z7wYme1Z9PUg0Be/tPord/sLD69Kjy4d0PqqciMr5GANB0HgGulzo8AuxRXwCaYOoVgDu7e9WhmeTWRw167Ozu9Y8cufVRkx659RERP/7yaXVoZrn3Max+cJfdwZ173x7x7r1hPQZttK8eO9K7BVPfmNCjWj9sg4/B+ZkeU64Gh8moXY7H3cO06tAjtz4a1CO3Pgr0GJybOU67PmrSI7c+GtSjRL25+UodeuTWR6EeuXLvoS5zMwr0yK0/TaVX/JX4Wpx2jybNzSjQI7c+atIjtz5q0qPE/MypTerQI7c+GtQjtz4K9CgxN6PAfVgByKlaxEq0eXtW69LPk8FNQarXziOnx6TawXuvvrNw8Nc0qh4AziorAOvlNFYAWvEHQBNNvQIQzppqMLYxx+Yfp2WjfbUf/G0dvTMwHTHwjkMAAF4qveIPAOpEAAhjpBBt8JHgVbHRvhqHdz+ITvvKsePw7gdDHyEGADiLBH8AnAUCQBgjraRLj/6uour7A2PMOwABAM4KwR8AZ4kAECaoPgo8yaiNN6pGhXDT1s+rfe9+9PYPorW+NvOvDQBg1Qn+ADiLBIBQUNp8o33vfvXUMaNCuGnrR4WHkwx+7iqvagQAmJXgD4CzzC7AnKpJu9nOI/V8+d6+0e+6q37eLPcy7toUssWQHXhjYBfel+HflRPvFpylflyIV11J2Nt/MhA6nvxcAMAuwHVTYhdgu/oCgACQUzYuSJtX6jlJ9TNnuZdJ1066h1F1yaLqhX8AMJ4AsF5yAkDBHwC8IgDkVE0K0uZVXf02zLDP2+xuDx0fZpprh93HpJpBOfU5tQBwVgkA62WeAFDwBwAnCQA5VYsKAAEA5iEArJdZAkDBHwCMZhMQAABgZdncAwAmEwByqjbaV63+AwBgZoI/AJieAJBTJ/wDAGBagj8AmJ0AEAAAqD3BHwDMTwDIwmx2t6O3f1AdBgCAmQn+AGB+AkAWIu3u2753P87feD82u9vVSwAAYC6CPwCYzdQB4M7uXnVoJrn1UYMeO7t7/SNHbn3UpMe4+rS5R7LVfRDnb7wf7Xv3j4WB43pMK7dHbn3UpEeJ+ZlTm9ShR259NKhHbn0U6FFibkah+8hVhx659dGgHiXqzc1X6tAjtz4K9ciVew91mZtRoEdufdW8wV+J+8jtkVsfNejRpLkZBXrk1kdNeuTWR016lJifObVJHXrk1keDeuTWR4EeJeZmFLiPc4fPn72oDkJJvf2D+HT/ILa6D46Nt9bXorX+pk1AAIDaeLR1O7Ye34nOxZtxqXOrepol++idd+Np72FcaF2OS52bM4V+AMArAkCWqrd/EJvdByfeDdhaX4uN9pVora8dGwcAWKZHW7fj86078VZHAAgANIcAkFPzcpOQJyfCwE77Sry9viYMBGAljXvv7byr3je723PXMhsBIADQRAJAamFcGOgbHgBWRdoEa5xZ/9vWvnc/evsHM9cxHwEgANBEU28CAou00b4a3evXjm0cEkebh4xbSQEAddRaX4tO+8qJI47+29a+d79aMlRv/+DE/xwDAIBZCQA5VS/fCbgd7Xv34/yN94+tmkjfPFntAMCqSZtcVY/Dux9Ea32t/9+/SaYNCgEAYBwBIEuXvuk5f+P9aN+7H1sDm4Kk0O/w7gfRvX5N+AdA43SvX4s4Wgk4jvAPAIBSBIAsxeAqvxT6JZ32lehevyb0A+DMSI8DD1sFmP4nWW//oP8/xgAAIIcAkIWpPtpbXeWXQr+N9lU7/gJAZROR9N9KAADIJQBkIdI3MNXQb3CVn9APAI7baF/t//fSingAAEoRALIQ6RsYj/YCwHGDq/yG/bdx2BgAAOQQALIwVvkBcFb19p/EZnf7xDG44713+wEAsCwCQACAwnr7B7HVfXDiiKPgr9O+YqUfAABLIwAEACgsvft2cJVfa32t/24/4R8AAMskAAQAKKy1/mY/6Es7+fb2D/qbYwEAwDKdO3z+7EV1EJbl0dbtuNS5VR0GgJWUNvioPuI7uPHH4d0PBiomG9WT8T5659142ntYHV6oC63L8d4nH1eHAQBO3dQrAHd296pDM8mtjxr02Nnd6x85cuujJj1y6x9t3Y7Pt+7Eo63b1VMzyb2P3PqoSY8S8zOnNqlDj9z6aFCP3Poo0KPE3IxC95GrDj1y66NBPUrUL2tuDm6M1b53/9i5aeonaUqP3PoY6LHs8C8GPjP317HMuTlJbo/c+mhQj9z6qEGPJs3NKNAjtz5q0iO3PmrSo8T8zKlN6tAjtz4a1CO3Pgr0KDE3o8B9WAHIqUkB4Fudm1YBAtAIk1brnb/xfsTRRiDDzg8zqSfD/fC116tDS/Hd58+qQwAAp27qFYAAAORJ7wPc6j7wPsAl+u7zZws9AADqTgAIALAkaXfgGPIocLLZ3T529PafREREb//JiXMAADANASAAwBINvg+wGuKlx30Hj7RSsLd/cOJctR4AAIbxDkBOjXcAAtBEm93tqd7VN+q6WUK9YfW8NPgOwEU/prvMzwIAmIcAkFMjAAQAFmWZodwyP2tcQDxLIDyszyz1AMBqEQByagSAAMCiLDOUW9ZnpUfEx5m0W/SkHpPqAYDV5B2AAACwQtJmMtUjjnaYHra6LyrhX7V2mnoAYHUJAAEAYIW01t+MjfbVE0cK8SbpXr92onaWegBg9QgAAQAy9fYPslZNbXa3Z66f9XqaLz26O+oR3xTypV2oqybVAwCrSwDIXL7Yut0/pjXLtQCwSja7D2Z+dDKFfudvvB9bR/Xnb7w/VRiYHuWcdB1nT1rFN2puTHq/36R6AGA1CQCZyRdbt+P3Xns9vti60z9+77XX49E771YvPeZlWHhHCAhA47Tv3Y/e/kF1eKwU4FXfxxZHq6+EewAAlCQAZGopxIuI+EbnZnyjczPeaF2OiIiveg8nhoAA0DSb3e2Zw79BrfW1OLz7Qf8dbId3PzgWBMKypXn39ojHhAGA1SQAZGpf9T6L6Id/t+IbnVtx6ZOP468+f3Z0XggIwNnR2z/ohyWj3qk2SWv9zerQsc0YrAJkVmlOTnrUd5jBMHveOQ0A1JMAkKl8sXU7vuo9jDdal+MbnVvV03Hpk48jhIAAnBGb3e1o37sfcfT47rAgb5xFrrISGjZfb/9J/12Rg8f5G+9HDLzHb1abA4+kAwDNIgBkJm+0vlUdioiIN1qXhYAAnAnp/X1xFJTMutJqkaus2vfue3/gGZBWn1aPmHNOxsC7LFvra3PVAwD1NnUAuLO7Vx2aSW591KDHzu5e/8iRWx816VGtr4aAX/UeHju/KNX7mFVufdSkR4n5mVOb1KFHbn00qEdufRToUWJuRqH7yFWHHrn10aAeJernmZvpEd307r5Z6z89CgDTKqtZ64fZ2d07thnJPCsLS91Hjtz6qEmPEvXj5mZrfe3YxjFpLM3JZFR91WD4171+7di5aXuMklsfDeqRWx816DFpbk4rtz5q0iO3PmrSI7c+atKjxPzMqU3q0CO3PhrUI7c+CvQoMTejwH2cO3z+7EV1EKrSBiDp/X/jDK4AvPTJx/FG6/LQ+kdbt+PzrTvxVudmXJrQEwDqLK0KnGb11TTXTrqmen5wVWL3+rXiKwtX0Q9fe73/4+8eva94UZb1WdV/74NjERGHdz+oVEw2LvwDAJpj6hWAMK3BlYCP3nl3aSsBAeAsGtyMRPh39my0r/b/nc/66LfwDwDODgEgU0mr9r7YulM9NdQbrcvxRutyRD8EfLmDMABQTm//SX8zEuHf2bVx9CjwVvfBsXdMjiP8A4CzRQDI1L7RuRlx9DjwNNLjv3H0WDAAUFYKe17uRCz8O6vSOwFjYCffcYR/AHD2CACZWgrzZjEYAgIArzboSI/tljDPph80S3onYG//YOyjwMI/ADibBIBM7Y3W5ak2AakSAgLAK4Mr9aZ9XHOU1GtwB2DOrhTojXoUeHCetNbfjM3u9sgDAGgWASAzmTX8Sy598vFc4SEANFF6XPPTISHNLFrrbw5sAFFuRSGrqbW+1p8P1bm12d0+FgpudR+MPYSAANAsAkCWRvgHANNJjwenxzrHSZt/9PYP+huC0Ewb7avRaV8ZOy+6168NvSbVTntU6wGA1SYABAA4Jb39J9WhfoiXVglOI+0C29s/GProJ80xTTA36pqN9tWpDwCgWQSALM20uwcDQN1V35eWgrze/pOp3qO20b7aX7V3/sb7/evP33i/v0HDLCHM4IYOVgECAFAlAGQpvti6HV9s3RECArDyNrvbJ96Xllbd9fYPpn6PWnpUMwbexxZHK//m2Z118P1v4z4XAICz59zh82cvqoNQWgoABzcCebR1Oz7fuhNvdW7GJe8HBGCFTBuwTbuKL/Wb9vo4qhl2/ajxs+aHr73e//F3nz87dq60ZX4WAMA8BIAshQAQAFimZYZyy/wsAIB5eAQYAAAAABps6gBwZ3evOjST3PqoQY+d3b3+kSO3Pk6px8tVfK+O7f/N//bE2Kjjq95n1XbFzPrrqMqtj5r0KDE/c2qTOvTIrY8G9citjwI9SszNKHQfuerQI7c+GtSjRL25+UodeuTWR016lKivw9yMAj1y66NBPXLrowY9mjQ3o0CP3PqoSY/c+qhJjxLzM6c2qUOP3PpoUI/c+ijQo8TcjAL3MXUAyNmWHuEdPP6//+gfnRgbdXzVe1htCQAAAMASCACZyjc6t+IbnZvHxv4nf+NvHL3Tb/LxRuvysVoAAAAAlsMmIMzkq97D/oq+N1qX49InH1cvGcomIADAMi1zY45lfhYAwDysAGQmKfR7o3X5KAy8Xb0EAAAAgBoRADKXtPLvi6071VMAAAAA1IgAkLmldwJaBQgAAABQXwJA5pY2Bknv9BtnlmsBAAAAKMcmIJwam4AAAIuyzI05lvlZERGb3e3qUGy0r1aHRpq3frO7PdV1AED9CAA5NQJAAGBRlhnKLeuzevsHsdl9EL39g+qpiIjotK+MDehy6je727HVfTD2GgCgvjwCDAAAKyCFd631tei0rxw7IiK2ug+ife9+tawvtx4AWF0CQAAAqLnN7nY/vOtevxYb7avHjsO7H0Rrfe1old/JR3xz6wGA1SYABACAmttoX41O+0p0r1+rnuprrb9ZHerLrQcAVpsAEAAAVkDuu/dy68exahAA6k0ACAAAzK19735sdR8IAQGgxgSAAADAXNr37vffLbjIFYYAQB4BIAAANEBv/0l1aCaz1g+Gf+PeLQgAnD4BIKfqR9+pjgAAMKvclXiz1gv/AGC1TB0A7uzuVYdmklsfNeixs7vXP3Lk1kdNeuTW/+g7r44cufeRWx816VFifubUJnXokVsfDeqRWx8FepSYm1HoPnLVoUdufTSoR4l6c/OVOvTIrY+a9ChRP8vcHBXG5dbHiB7jrq8aVj+rpvTIrY8a9Jh1bo6SWx816ZFbHzXpkVsfNelRYn7m1CZ16JFbHw3qkVsfBXqUmJtR4D7OHT5/9qI6CMuw+fh2bD2+E52LN2Pj4q3qaQCAuf3wtdf7P/7u82fHzpW2zM+qmiWMG2ba+s3udmx1HxwbO7z7wbGfAwD1NfUKQAAAoD6mDe9Gya3v7R9UhwCAmhIAAgDAiskN7+atH7w+9QAA6k8ACAAAK2Te8C7JqW+tvxmt9bVora9FRMRm5bFgAKCeBIAAALAicsK7KFCfdK9fi9b6WvT2D6J97371NABQMwJAAABYAbnhXW591Ub7SsTRuwA9CgwA9WYXYE6NXYABgEVZ5s68y/iswfftdY6Ct1E22lerQ9n1aRfgTvvKsfODKwDtCgwA9SUA5NQIAAGARVlGKJcs+rNS+DatakiXWx9jAsAYCBeHnQMA6kEAyKkRAAIAi7LoUG7QMj5rs7tdHRppWAiXWx9HPeY5BwCcPgEgp0YACAAsyjJCuWSZnwUAMA+bgAAAAABAgwkAAQAAAKDBBIAAAAAA0GACQAAAAABoMAEgAAAAADSYXYA5NXYBBgAWZXBn3mWyCzAAUEdTrwDc2d2rDs0ktz5q0GNnd69/5Mitj5r0yK0vJfc+cuujJj1KzM+c2qQOPXLro0E9cuujQI8SczMK3UeuOvTIrY8G9ShRb26+UoceufVRqEeu3Huoy9yMAj1y66NBPXLrowY9mjQ3o0CP3PqoSY/c+qhJjxLzM6c2qUOP3PpoUI/c+ijQo8TcjAL3YQUgp8YKQABgUT5659142ntYHV6oC63L8d4nH1eHAQBOnQCQUyMABADq5tHW7fh860681bkZlzr+fgIANMPUjwADAAAAAKtHAAgAAAAADSYABAAAAIAGEwACAAAAQIMJAAEAAACgwQSAAAAAANBgAkAAAAAAaDABIAAAAAA0mAAQAAAAABpMAAgAAAAADSYABAAAAIAGEwACAAAAQIMJAAEAYMCPvlMdAQBYbVMHgDu7e9WhmeTWRw167Ozu9Y8cufVRkx659aXk3kdufdSkR4n5mVOb1KFHbn00qEdufRToUWJuRqH7yFWHHrn10aAeJerNzVfq0CO3Pgr0+NF3Xh3zyr2HuszNKNAjtz4a1CO3PmrQo0lzMwr0yK2PmvTIrY+a9CgxP3Nqkzr0yK2PBvXIrY8CPUrMzShwH+cOnz97UR2EZdh8fDu2Ht+JzsWbsXHxVvU0AMDS+fsJANBEU68ABAAAAABWjwAQAAAAABpMAAgAAAAADSYABAAAAIAGEwACAAAAQIMJAAEAAACgwQSAAAAAANBgAkAAAAAAaDABIAAAAAA0mAAQAAAAABpMAAgAAAAADSYABAAAAIAGEwACAAAAQIMJAAEAAACgwQSAAAAAANBgUweAO7t71aGZ5NZHDXrs7O71jxy59VGTHrn1peTeR2591KRHifmZU5vUoUdufTSoR259FOhRYm5GofvIVYceufXRoB4l6s3NV+rQI7c+CvXIlXsPdZmbUaBHbn00qEdufdSgR5PmZhTokVsfNemRWx816VFifubUJnXokVsfDeqRWx8FepSYm1HgPs4dPn/2ojoIy7D5+HZsPb4TnYs3Y+PireppAICl8/cTAKCJpl4BCAAAAACsHgEgAAAAADSYABAAAAAAGkwACAAAAAANJgAEAAAAgAYTAAIAAABAgwkAAQAAAKDBBIAAAAAA0GACQAAAAABoMAEgAAAAADSYABAAAAAAGkwACAAAAAANJgAEAAAAgAYTAAIAAABAgwkAAQAAAKDBpg4Ad3b3qkMzya2PGvTY2d3rHzly66MmPXLrS8m9j9z6qEmPEvMzpzapQ4/c+mhQj9z6KNCjxNyMQveRqw49cuujQT1K1Jubr9ShR259FOqRK/ce6jI3o0CP3PpoUI/c+qhBjybNzSjQI7c+atIjtz5q0qPE/MypTerQI7c+GtQjtz4K9CgxN6PAfZw7fP7sRXUQluHR1u3YenwnOhdvxqXOreppAICl23z86u8nGxf9/QQAaIapVwDCIvzK71dHAAAAAChJAAgAAAAADSYABAAAAIAGEwACAAAAQIMJAAEAAACgwQSAAAAAANBgAkAAAAAAaDABIAAAAAA0mAAQAAAAABpMAAgAAAAADSYABAAAAIAGEwACAAAAQIMJAAEAAACgwQSAAAAAANBg5w6fP3tRHYRpPNq6XR2aydPeZ/G09zAutC7Hhda3qqdncqlzqzoEADCzzce3Y+vxnehcvBkbF/39AgBohqlXAO7s7lWHZpJbHzXosbO71z9y5NZHDXo82rodn2/dyTqe9h5GRMTT3sMT52Y9csLInK9DUoceJeZnTm1Shx659dGgHrn1UaBHibkZhe4jVx165NZHg3qUqDc3X6lDj9z6KNQjV+491GVuRoEeufXRoB659VGDHk2am1GgR2591KRHbn3UpEeJ+ZlTm9ShR259NKhHbn0U6FFibkaB+7ACkLl99M67/RCvxCq+WaTVg3H02e998nH1EgCAmVkBCAA0kQCQLIMh4HuffBwXWperlxT3tPcwPnrn3QjhHwBQmAAQAGiiqR8BhmEGQ7/BMHBRhH8AAAAAsxEAkm1ZIaDwDwAAAGB2AkCKWHQIKPwDAAAAmI8AkGIWFQIK/wAAAADmJwCkqPc++Tje6tyMKBQCDoZ/b3VuCv8AAAAAZiQApLhLnVv9oC4nBBwM/9775OO41LETHwAAAMCsBIAsxOCjuh+982482rpdvWSsR1u3j4V/6dFiAAAAAGYjAGRhBkPAz7fu9AO9ST565934fOtOhPAPAAAAIJsAkIUaDAEHH+kdZfCRYeEfAAAAQD4BIAs3bQgo/AMAAAAoTwDIUkwKAYV/AAAAAIshAGRpRoWAwj8AAACAxREAslTVEPCHr70u/AMAAABYoKkDwJ3dverQTHLrowY9dnb3+keO3PqoSY9561MImMK+6s9nNe99JLn1UZMeJeZnTm1Shx659dGgHrn1UaBHibkZhe4jVx165NZHg3qUqDc3X6lDj9z6KNQjV+491GVuRoEeufXRoB659VGDHk2am1GgR2591KRHbn3UpEeJ+ZlTm9ShR259NKhHbn0U6FFibkaB+zh3+PzZi+ogLMujrdtxqXOrOgwAcCoebd2Orcd3onPxpr+jAACNMfUKQFgEf7EGAOrmV36/OgIAsNoEgAAAAADQYAJAAAAAAGgwASAAAAAANJgAEAAAAAAaTAAIAAAAAA0mAAQAAACABhMAAgAAAECDCQABAAAAoMEEgAAAAADQYAJAAAAAAGgwASAAAAAANJgAEAAAAAAaTAAIAAAAAA127vD5sxfVQQAAWEWPtm5Xh2bytPdZPO09jAuty3Gh9a3q6ald6tyqDgEAnJqpVwDu7O5Vh2aSWx816LGzu9c/cuTWR0165NZHTXrk1kdNepSYnzm1SR165NZHg3rk1keBHiXmZhS6j1x16JFbHw3qUaLe3HylDj1y6x9t3Y7Pt+5kHU97DyMi4mnv4Ylzsxw5QWRd5mYU6JFbHw3qkVsfNejRpLkZBXrk1kdNeuTWR016lJifObVJHXrk1keDeuTWR4EeJeZmFLgPKwABAGiMj955tx/ivdW5WT29UJ9v3YmIiAuty/HeJx9XTwMAnBoBIAAAjZJCwGUGcYPB43uffBwXWperlwAAnJqpHwEGAIBVkAK4p72H8dE771ZPFyf8AwDqTgAIAEDjLCsEFP4BAKtAAAgAQCMtOgQU/gEAq0IACABAYy0qBHy0dVv4BwCsDJuAMLPN7nZ1qG+jfbU61LfZ3R57Ppl03byfDwCcXSU3BhkME4V/AMAqEAAyk/a9+9HbP6gO93XaV4aGcJvd7djqPojW+lp0r1+rnu5L103qM8qk/gDA2VUiBBT+AQCryCPATC2Ff631tei0rww9hoV2g3r7B2MDxGkNu4fW+lr09g+ife9+9XIAgOzHgYV/AMCqEgAylc3udj/8616/Fhvtq0OPaZQI6Frrb5747O71a/0QcNxjwgDA2TVvCCj8AwBWmQCQqaTHbks9XruogK61/mZ1CADgmFlDwMHr3urcFP4BACtHAMhEKazrtK9UT82stb4WcRQolngUGABgHtOGgIPnL7Qux6XOreolAAC1JwBkqVrrb/aDxM0xm3nM6+2BgBEAYJxJIWA1/Jt34xAAgNMmAGTp0rsCF/GuvrTCMI76AwCMMyoEFP4BAE0iAORUpHcJLmKlXlph+KkAEACYQjUEFP4BAE0jACTbZnf72DGN1vpaf7VeiV2BAQByVEPAEP4BAA0ydQC4s7tXHZpJbn3UoMfO7l7/yJFbHzXpsbO7F5vd7djqPjh2TBsCplWAvf2DrMd1S/w6ctWhR4n5mVOb1KFHbn00qEdufRToUWJuRqH7yFWHHrn10aAeJerNzVfq0CO3PjJ7pBAwMsO/nHuIGs3NKNAjtz4a1CO3PmrQo0lzMwr0yK2PmvTIrY+a9CgxP3Nqkzr0yK2PBvXIrY8CPUrMzShwH+cOnz97UR2EQSnk67Sv9N/fVz0fEdHbfxK9/YOh143qkcYjIg7vfjDyuur1o85HRJy/8X7EUcA4+E5AAIBpPNq6bbdfAKBRpl4BCKNstK/GRvtqtNbfrJ6a6GXdy5Bu2pWD4wyuJBT+AQDzEP4BAE0jAOTUbRxt2rHVfRC9/SfV0zNJG3+kjUAAAAAAzjoBIBOlR20XsWNvHK3US4FdzrsAAQAAADhJAMhUUkC3qB17R73Pb1a5KwgBAAAAmkYAyFTSu/p6+wfRvnc/NrvbJ47c8C3tCjyN3v6TE5/fvnc/evsH0VpfKxYoAgAAAKw6uwAzkxSyjdJaXxsa5E2ze28M9B913eCuwcOM+nwAAACAs0oAyMzG7dY7LLRLNrvbY88nk66b9/MBAAAAziIBIAAAAAA0mHcAAgAAAECDCQABAAAAoMEEgAAAAADQYAJAAAAAAGgwASAAAAAANNjUAeDO7l51aCa59VGDHju7e/0jR2591KRHbn3UpEdufdSkR4n5mVOb1KFHbn00qEdufRToUWJuRqH7yFWHHrn10aAeJerNzVfq0CO3PmrSo0R9HeZmFOiRWx8N6pFbHzXo0aS5GQV65NZHTXrk1kdNepSYnzm1SR165NZHg3rk1keBHiXmZhS4j6kDQAAAAABg9QgAAQAAAKDBzh0+f/aiOggAAAAANIMVgAAAAADQYAJAAAAAAGgwASAAAAAANJgAEAAAAAAazCYgAAA0xmZ3u//jjfbVY+eG2exuF7lu8HMjIt5eX4vW+tqxMQCA0yIABABg5bXv3Y/e/kF1ODrtKyODu83udmx1H0RrfS26169VT/el60b1SueHGVUDALBMHgEGAGClDYZ/rfW16LSvRKd9JSIitroPTqzOq+rtHwwND2dV/eyY8vMBABZNAAgAwErq7R/0w7/W+loc3v0gutevxUb7amy0r8bh3Q+mXoG3OWIF3yxa628e++y0qnCr+6BIwAgAMC8BIAAAK2nzKFgb9wjvNOFfHIWJpVfqpRWBUShgBACYlwAQAICVs9ndnhj+TStt1jHqPX45NtpXo7W+tpCAEQBgWgJAAABWTgrrNgbetzev1vqb/RCwfe9+9XS2dI+LCBgBAKYhAAQAYKUMvk8vBXe5UkhXakOQQYP3WLo3AMA0BIAAAKyUT49CtMHddnMt+n19qXe6dwCAZRIAAgDAwIYhi1gFCABwmqYOAHd296pDM8mtjxr02Nnd6x85cuujJj1y66MmPXLroyY9SszPnNqkDj1y66NBPXLro0CPEnMzCt1Hrjr0yK2PBvUoUW9uvlKHHrn1MdBjs7t97JhW2lAk512Aub+OuszNKNAjtz4a1CO3PmrQo0lzMwr0yK2PmvTIrY+a9CgxP3Nqkzr0yK2PBvXIrY8CPUrMzShwH+cOnz97UR0EAIC62uxux1b3QXTaV/qr9oadHzTs2lF92vfuR2//oD8+6rpk0vmY8hoAgEWZegUgAADUwdtHm2pUQ75ko301Ou0r0WlfmWuTkMFde0s9CpzuNd07AMAyCQABAFgp0+yqu9G+Ghvtq9Faf7N6aqLW+lr/M0psCLKIXYsBAGYhAAQAYOUscsfeGHgX4MsNQZ5UT88k3WPJXYsBAGYhAAQAYOW8XN23Fr39g6wNO8ZJgd2oVYbT2OxuR2//IFrra979BwCcGgEgAAAraePoHX/jQsCc1XspZJxXb/+g/+6/9F5BAIDTIAAEAGAltdbXonv9Wj8EPH/j/Wjfux+b3e1o37sf52+8n736bpbgrrf/JDa727HZ3e7fSxytJMwJEgEAcgkAAQBYaSkEjIFVd+mx3RQSzmtwQ5BJ0mcP7k7caV+ZO3wEACjl3OHzZy+qgwAAsIo2u9v9H08TvG12t4tcN/i5ERFvzxAcAgAsmgAQAAAAABrMI8AAAAAA0GACQAAAAABoMAEgAAAAADSYABAAAAAAGkwACAAAAAANJgAEAAAAgAabOgDc2d2rDs0ktz5q0GNnd69/5Mitj5r0yK2PmvTIrY+a9CgxP3Nqkzr0yK2PBvXIrY8CPUrMzSh0H7nq0CO3PhrUo0S9uflKHXrk1kdNepSor8PcjAI9cuujQT1y66MGPZo0N6NAj9z6qEmP3PqoSY8S8zOnNqlDj9z6aFCP3Poo0KPE3IwC93Hu8PmzF9VBAAAAAKAZpl4BCAAAAACsHgEgAAAAADSYABAAAAAAGkwACAAAAAANJgAEAAAAgAYTAAIAAABAgwkAAQAAAKDBBIAAAAAA0GACQAAAAABoMAEgAAAAADSYABAAAAAAGkwACAAAAAANJgAEAAAAgAYTAAIAAABAgwkAAQAAAKDBpg4Ad3b3qkMzya2PGvTY2d3rHzly66MmPXLroyY9cuujJj1KzM+c2qQOPXLro0E9cuujQI8SczMK3UeuOvTIrY8G9ShRb26+UoceufVRkx4l6uswN6NAj9z6aFCP3PqoQY8mzc0o0CO3PmrSI7c+atKjxPzMqU3q0CO3PhrUI7c+CvQoMTejwH2cO3z+7EV1EAAAAABohqlXAAIAAAAAq0cACAAAAAANJgAEAAAAgAYTAAIAAABAgwkAAQAAAKDBBIAAAAAA0GACQAAAAABoMAEgAAAAADSYABAAAAAAGkwACAAAAAANJgAEAAAAgAYTAAIAAABAgwkAAQAAAKDBBIAAAAAA0GBTB4A7u3vVoZnk1kcNeuzs7vWPHLn1UZMeufVRkx659VGTHiXmZ05tUoceufXRoB659VGgR4m5GYXuI1cdeuTWR4N6lKg3N1+pQ4/c+qhJjxL1dZibUaBHbn00qEdufdSgR5PmZhTokVsfNemRWx816VFifubUJnXokVsfDeqRWx8FepSYm1HgPs4dPn/2ojoIAAAAADTD1CsAAQAAAIDVIwAEAAAAgAYTAAIAAABAgwkAAQAAAKDBBIAAAAAA0GACQAAAAABoMAEgAAAAADSYABAAAAAAGkwACAAAAAANJgAEAAAAgAYTAAIAAABAgwkAAQAAAKDBBIAAAAAA0GACQAAAAABoMAEgAAAAADTY1AHgzu5edWgmufVRgx47u3v9I0dufdSkR2591KRHbn3UpEeJ+ZlTm9ShR259NKhHbn0U6FFibkah+8hVhx659dGgHiXqzc1X6tAjtz5q0qNEfR3mZhTokVsfDeqRWx816NGkuRkFeuTWR0165NZHTXqUmJ85tUkdeuTWR4N65NZHgR4l5mYUuI9zh8+fvagOAgAAAADNMPUKQAAAAABg9QgAAQAAAKDBBIAAAAAA0GACQAAAAABoMAEgAAAAADSYABAAAAAAGkwACAAAAAANJgAEAAAAgAYTAAIAAABAgwkAAQAAAKDBBIAAAAAA0GACQAAAAABoMAEgAAAAADSYABAAAAAAGkwACAAAAAANNnUAuLO7Vx2aSW591KDHzu5e/8iRWx816ZFbHzXpkVsfNelRYn7m1CZ16JFbHw3qkVsfBXqUmJtR6D5y1aFHbn00qEeJenPzlTr0yK2PmvQoUV+HuRkFeuTWR4N65NZHDXo0aW5GgR659VGTHrn1UZMeJeZnTm1Shx659dGgHrn1UaBHibkZBe7j3OHzZy+qgwAAAABAM0y9AhAAAAAAWD0CQAAAAABoMAEgAAAAADSYABAAAAAAGkwACAAAAAANJgAEAAAAgAYTAAIAAABAgwkAAQAAAKDBBIAAAAAA0GACQAAAAABoMAEgAAAAADSYABAAAAAAGkwACAAAAAANJgAEAAAAgAb7/wNT/G2XauuK6QAAAABJRU5ErkJggg==;" parent="mdWsZaoKRXeDNNDKq_2a-45" vertex="1">
          <mxGeometry y="30" width="265.83" height="190.73" as="geometry" />
        </mxCell>
        <mxCell id="mdWsZaoKRXeDNNDKq_2a-53" value="Fan Battery Module" style="rounded=0;whiteSpace=wrap;html=1;" parent="1" vertex="1">
          <mxGeometry x="262.5" y="105" width="115" height="75" as="geometry" />
        </mxCell>
        <mxCell id="mdWsZaoKRXeDNNDKq_2a-55" value="&lt;span style=&quot;font-size: 14px;&quot;&gt;&lt;b&gt;VCU&lt;/b&gt;&lt;/span&gt;" style="text;html=1;align=center;verticalAlign=middle;whiteSpace=wrap;rounded=0;" parent="1" vertex="1">
          <mxGeometry x="-230" y="83.44" width="110" height="50" as="geometry" />
        </mxCell>
        <mxCell id="mdWsZaoKRXeDNNDKq_2a-56" value="" style="endArrow=none;html=1;rounded=0;entryX=0.25;entryY=1;entryDx=0;entryDy=0;exitX=0.25;exitY=0;exitDx=0;exitDy=0;strokeColor=#00CC00;strokeWidth=2;" parent="1" source="mdWsZaoKRXeDNNDKq_2a-27" target="mdWsZaoKRXeDNNDKq_2a-5" edge="1">
          <mxGeometry width="50" height="50" relative="1" as="geometry">
            <mxPoint x="-220" y="587.25" as="sourcePoint" />
            <mxPoint x="-210" y="540" as="targetPoint" />
          </mxGeometry>
        </mxCell>
        <mxCell id="mdWsZaoKRXeDNNDKq_2a-58" value="CANH" style="edgeLabel;html=1;align=center;verticalAlign=middle;resizable=0;points=[];" parent="mdWsZaoKRXeDNNDKq_2a-56" vertex="1" connectable="0">
          <mxGeometry x="0.3565" y="2" relative="1" as="geometry">
            <mxPoint y="11" as="offset" />
          </mxGeometry>
        </mxCell>
        <mxCell id="mdWsZaoKRXeDNNDKq_2a-57" value="" style="endArrow=none;html=1;rounded=0;entryX=0.75;entryY=1;entryDx=0;entryDy=0;exitX=0.75;exitY=0;exitDx=0;exitDy=0;strokeWidth=2;" parent="1" source="mdWsZaoKRXeDNNDKq_2a-27" target="mdWsZaoKRXeDNNDKq_2a-5" edge="1">
          <mxGeometry width="50" height="50" relative="1" as="geometry">
            <mxPoint x="-170" y="590" as="sourcePoint" />
            <mxPoint x="-120" y="540" as="targetPoint" />
          </mxGeometry>
        </mxCell>
        <mxCell id="mdWsZaoKRXeDNNDKq_2a-59" value="CANL" style="edgeLabel;html=1;align=center;verticalAlign=middle;resizable=0;points=[];" parent="mdWsZaoKRXeDNNDKq_2a-57" vertex="1" connectable="0">
          <mxGeometry x="0.1792" y="3" relative="1" as="geometry">
            <mxPoint y="5" as="offset" />
          </mxGeometry>
        </mxCell>
        <mxCell id="mdWsZaoKRXeDNNDKq_2a-60" value="ECU" style="rounded=1;whiteSpace=wrap;html=1;" parent="1" vertex="1">
          <mxGeometry x="-130" y="598" width="95" height="43" as="geometry" />
        </mxCell>
        <mxCell id="mdWsZaoKRXeDNNDKq_2a-61" value="" style="endArrow=none;html=1;rounded=0;entryX=0.25;entryY=1;entryDx=0;entryDy=0;exitX=0.25;exitY=0;exitDx=0;exitDy=0;strokeColor=#00CC00;strokeWidth=2;" parent="1" source="mdWsZaoKRXeDNNDKq_2a-60" target="mdWsZaoKRXeDNNDKq_2a-3" edge="1">
          <mxGeometry width="50" height="50" relative="1" as="geometry">
            <mxPoint x="-110" y="590" as="sourcePoint" />
            <mxPoint x="-60" y="540" as="targetPoint" />
          </mxGeometry>
        </mxCell>
        <mxCell id="mdWsZaoKRXeDNNDKq_2a-63" value="CANH" style="edgeLabel;html=1;align=center;verticalAlign=middle;resizable=0;points=[];" parent="mdWsZaoKRXeDNNDKq_2a-61" vertex="1" connectable="0">
          <mxGeometry x="0.0896" y="-1" relative="1" as="geometry">
            <mxPoint as="offset" />
          </mxGeometry>
        </mxCell>
        <mxCell id="mdWsZaoKRXeDNNDKq_2a-62" value="" style="endArrow=none;html=1;rounded=0;exitX=0.75;exitY=0;exitDx=0;exitDy=0;entryX=0.75;entryY=1;entryDx=0;entryDy=0;strokeWidth=2;" parent="1" source="mdWsZaoKRXeDNNDKq_2a-60" target="mdWsZaoKRXeDNNDKq_2a-3" edge="1">
          <mxGeometry width="50" height="50" relative="1" as="geometry">
            <mxPoint x="-100" y="590" as="sourcePoint" />
            <mxPoint x="-50" y="540" as="targetPoint" />
          </mxGeometry>
        </mxCell>
        <mxCell id="mdWsZaoKRXeDNNDKq_2a-64" value="CANL" style="edgeLabel;html=1;align=center;verticalAlign=middle;resizable=0;points=[];" parent="mdWsZaoKRXeDNNDKq_2a-62" vertex="1" connectable="0">
          <mxGeometry x="0.0896" relative="1" as="geometry">
            <mxPoint as="offset" />
          </mxGeometry>
        </mxCell>
        <mxCell id="mdWsZaoKRXeDNNDKq_2a-65" value="" style="endArrow=none;html=1;rounded=0;entryX=0.5;entryY=1;entryDx=0;entryDy=0;exitX=0.5;exitY=0;exitDx=0;exitDy=0;strokeWidth=2;" parent="1" source="mdWsZaoKRXeDNNDKq_2a-20" target="mdWsZaoKRXeDNNDKq_2a-18" edge="1">
          <mxGeometry width="50" height="50" relative="1" as="geometry">
            <mxPoint x="90" y="600" as="sourcePoint" />
            <mxPoint x="140" y="550" as="targetPoint" />
          </mxGeometry>
        </mxCell>
        <mxCell id="mdWsZaoKRXeDNNDKq_2a-66" value="GNDBL" style="edgeLabel;html=1;align=center;verticalAlign=middle;resizable=0;points=[];" parent="mdWsZaoKRXeDNNDKq_2a-65" vertex="1" connectable="0">
          <mxGeometry x="0.136" y="-2" relative="1" as="geometry">
            <mxPoint as="offset" />
          </mxGeometry>
        </mxCell>
        <mxCell id="mdWsZaoKRXeDNNDKq_2a-83" value="" style="endArrow=none;html=1;rounded=0;entryX=0.909;entryY=1;entryDx=0;entryDy=0;entryPerimeter=0;" parent="1" source="mdWsZaoKRXeDNNDKq_2a-31" target="mdWsZaoKRXeDNNDKq_2a-1" edge="1">
          <mxGeometry width="50" height="50" relative="1" as="geometry">
            <mxPoint x="230" y="610" as="sourcePoint" />
            <mxPoint x="280" y="560" as="targetPoint" />
          </mxGeometry>
        </mxCell>
        <mxCell id="mdWsZaoKRXeDNNDKq_2a-84" value="" style="endArrow=none;html=1;rounded=0;exitX=0.5;exitY=0;exitDx=0;exitDy=0;entryX=1;entryY=0.5;entryDx=0;entryDy=0;" parent="1" source="mdWsZaoKRXeDNNDKq_2a-31" target="mdWsZaoKRXeDNNDKq_2a-18" edge="1">
          <mxGeometry width="50" height="50" relative="1" as="geometry">
            <mxPoint x="250" y="560" as="sourcePoint" />
            <mxPoint x="300" y="510" as="targetPoint" />
            <Array as="points">
              <mxPoint x="160" y="501" />
            </Array>
          </mxGeometry>
        </mxCell>
        <mxCell id="mdWsZaoKRXeDNNDKq_2a-86" value="Analog" style="edgeLabel;html=1;align=center;verticalAlign=middle;resizable=0;points=[];" parent="mdWsZaoKRXeDNNDKq_2a-84" vertex="1" connectable="0">
          <mxGeometry x="-0.567" relative="1" as="geometry">
            <mxPoint as="offset" />
          </mxGeometry>
        </mxCell>
        <mxCell id="mdWsZaoKRXeDNNDKq_2a-87" value="" style="endArrow=none;html=1;rounded=0;entryX=0;entryY=0.25;entryDx=0;entryDy=0;exitX=0.999;exitY=0.859;exitDx=0;exitDy=0;exitPerimeter=0;" parent="1" source="mdWsZaoKRXeDNNDKq_2a-1" target="mdWsZaoKRXeDNNDKq_2a-40" edge="1">
          <mxGeometry width="50" height="50" relative="1" as="geometry">
            <mxPoint x="250" y="510" as="sourcePoint" />
            <mxPoint x="300" y="460" as="targetPoint" />
          </mxGeometry>
        </mxCell>
        <mxCell id="mdWsZaoKRXeDNNDKq_2a-102" value="SDA" style="edgeLabel;html=1;align=center;verticalAlign=middle;resizable=0;points=[];" parent="mdWsZaoKRXeDNNDKq_2a-87" vertex="1" connectable="0">
          <mxGeometry x="-0.0848" relative="1" as="geometry">
            <mxPoint as="offset" />
          </mxGeometry>
        </mxCell>
        <mxCell id="mdWsZaoKRXeDNNDKq_2a-88" value="" style="endArrow=none;html=1;rounded=0;entryX=0.004;entryY=0.717;entryDx=0;entryDy=0;entryPerimeter=0;exitX=1;exitY=0.949;exitDx=0;exitDy=0;exitPerimeter=0;" parent="1" source="mdWsZaoKRXeDNNDKq_2a-1" target="mdWsZaoKRXeDNNDKq_2a-40" edge="1">
          <mxGeometry width="50" height="50" relative="1" as="geometry">
            <mxPoint x="250" y="510" as="sourcePoint" />
            <mxPoint x="300" y="460" as="targetPoint" />
          </mxGeometry>
        </mxCell>
        <mxCell id="mdWsZaoKRXeDNNDKq_2a-103" value="SCL" style="edgeLabel;html=1;align=center;verticalAlign=middle;resizable=0;points=[];" parent="mdWsZaoKRXeDNNDKq_2a-88" vertex="1" connectable="0">
          <mxGeometry x="-0.0099" y="-1" relative="1" as="geometry">
            <mxPoint as="offset" />
          </mxGeometry>
        </mxCell>
        <mxCell id="mdWsZaoKRXeDNNDKq_2a-90" value="" style="endArrow=none;html=1;rounded=0;entryX=0;entryY=0.237;entryDx=0;entryDy=0;entryPerimeter=0;exitX=1.001;exitY=0.144;exitDx=0;exitDy=0;exitPerimeter=0;" parent="1" source="mdWsZaoKRXeDNNDKq_2a-40" target="mdWsZaoKRXeDNNDKq_2a-41" edge="1">
          <mxGeometry width="50" height="50" relative="1" as="geometry">
            <mxPoint x="370" y="380" as="sourcePoint" />
            <mxPoint x="400" y="380" as="targetPoint" />
          </mxGeometry>
        </mxCell>
        <mxCell id="mdWsZaoKRXeDNNDKq_2a-94" value="&lt;font style=&quot;font-size: 8px;&quot;&gt;Sus FR&lt;/font&gt;" style="edgeLabel;html=1;align=center;verticalAlign=middle;resizable=0;points=[];" parent="mdWsZaoKRXeDNNDKq_2a-90" vertex="1" connectable="0">
          <mxGeometry x="0.1082" y="1" relative="1" as="geometry">
            <mxPoint as="offset" />
          </mxGeometry>
        </mxCell>
        <mxCell id="mdWsZaoKRXeDNNDKq_2a-91" value="" style="endArrow=none;html=1;rounded=0;entryX=0.004;entryY=0.378;entryDx=0;entryDy=0;entryPerimeter=0;exitX=0.998;exitY=0.343;exitDx=0;exitDy=0;exitPerimeter=0;" parent="1" source="mdWsZaoKRXeDNNDKq_2a-40" target="mdWsZaoKRXeDNNDKq_2a-41" edge="1">
          <mxGeometry width="50" height="50" relative="1" as="geometry">
            <mxPoint x="380" y="400" as="sourcePoint" />
            <mxPoint x="400" y="390" as="targetPoint" />
          </mxGeometry>
        </mxCell>
        <mxCell id="mdWsZaoKRXeDNNDKq_2a-95" value="&lt;font style=&quot;font-size: 8px;&quot;&gt;Sus FL&lt;/font&gt;" style="edgeLabel;html=1;align=center;verticalAlign=middle;resizable=0;points=[];" parent="mdWsZaoKRXeDNNDKq_2a-91" vertex="1" connectable="0">
          <mxGeometry x="0.0825" y="1" relative="1" as="geometry">
            <mxPoint as="offset" />
          </mxGeometry>
        </mxCell>
        <mxCell id="mdWsZaoKRXeDNNDKq_2a-92" value="" style="endArrow=none;html=1;rounded=0;exitX=0.991;exitY=0.602;exitDx=0;exitDy=0;exitPerimeter=0;entryX=-0.001;entryY=0.575;entryDx=0;entryDy=0;entryPerimeter=0;" parent="1" source="mdWsZaoKRXeDNNDKq_2a-40" target="mdWsZaoKRXeDNNDKq_2a-41" edge="1">
          <mxGeometry width="50" height="50" relative="1" as="geometry">
            <mxPoint x="370" y="410" as="sourcePoint" />
            <mxPoint x="420" y="410" as="targetPoint" />
          </mxGeometry>
        </mxCell>
        <mxCell id="mdWsZaoKRXeDNNDKq_2a-96" value="&lt;font style=&quot;font-size: 8px;&quot;&gt;Sus RR&lt;/font&gt;" style="edgeLabel;html=1;align=center;verticalAlign=middle;resizable=0;points=[];" parent="mdWsZaoKRXeDNNDKq_2a-92" vertex="1" connectable="0">
          <mxGeometry x="0.1062" relative="1" as="geometry">
            <mxPoint as="offset" />
          </mxGeometry>
        </mxCell>
        <mxCell id="mdWsZaoKRXeDNNDKq_2a-93" value="" style="endArrow=none;html=1;rounded=0;entryX=0.001;entryY=0.698;entryDx=0;entryDy=0;entryPerimeter=0;exitX=0.999;exitY=0.772;exitDx=0;exitDy=0;exitPerimeter=0;" parent="1" source="mdWsZaoKRXeDNNDKq_2a-40" target="mdWsZaoKRXeDNNDKq_2a-41" edge="1">
          <mxGeometry width="50" height="50" relative="1" as="geometry">
            <mxPoint x="370" y="430" as="sourcePoint" />
            <mxPoint x="420" y="420" as="targetPoint" />
          </mxGeometry>
        </mxCell>
        <mxCell id="mdWsZaoKRXeDNNDKq_2a-97" value="&lt;font style=&quot;font-size: 8px;&quot;&gt;Sus RL&lt;/font&gt;" style="edgeLabel;html=1;align=center;verticalAlign=middle;resizable=0;points=[];" parent="mdWsZaoKRXeDNNDKq_2a-93" vertex="1" connectable="0">
          <mxGeometry x="0.0602" y="-1" relative="1" as="geometry">
            <mxPoint as="offset" />
          </mxGeometry>
        </mxCell>
        <mxCell id="mdWsZaoKRXeDNNDKq_2a-98" value="" style="endArrow=none;html=1;rounded=0;exitX=0.25;exitY=0;exitDx=0;exitDy=0;entryX=0.058;entryY=1.002;entryDx=0;entryDy=0;entryPerimeter=0;" parent="1" source="mdWsZaoKRXeDNNDKq_2a-5" target="mdWsZaoKRXeDNNDKq_2a-1" edge="1">
          <mxGeometry width="50" height="50" relative="1" as="geometry">
            <mxPoint x="-330" y="530" as="sourcePoint" />
            <mxPoint x="-280" y="480" as="targetPoint" />
          </mxGeometry>
        </mxCell>
        <mxCell id="mdWsZaoKRXeDNNDKq_2a-100" value="&lt;font style=&quot;font-size: 8px;&quot;&gt;CANRX&lt;/font&gt;" style="edgeLabel;html=1;align=center;verticalAlign=middle;resizable=0;points=[];" parent="mdWsZaoKRXeDNNDKq_2a-98" vertex="1" connectable="0">
          <mxGeometry x="0.2945" y="1" relative="1" as="geometry">
            <mxPoint as="offset" />
          </mxGeometry>
        </mxCell>
        <mxCell id="mdWsZaoKRXeDNNDKq_2a-99" value="" style="endArrow=none;html=1;rounded=0;entryX=0.75;entryY=0;entryDx=0;entryDy=0;exitX=0.172;exitY=1.001;exitDx=0;exitDy=0;exitPerimeter=0;" parent="1" source="mdWsZaoKRXeDNNDKq_2a-1" target="mdWsZaoKRXeDNNDKq_2a-5" edge="1">
          <mxGeometry width="50" height="50" relative="1" as="geometry">
            <mxPoint x="-160" y="450" as="sourcePoint" />
            <mxPoint x="-130" y="460" as="targetPoint" />
          </mxGeometry>
        </mxCell>
        <mxCell id="mdWsZaoKRXeDNNDKq_2a-101" value="&lt;font style=&quot;font-size: 8px;&quot;&gt;CANTX&lt;/font&gt;" style="edgeLabel;html=1;align=center;verticalAlign=middle;resizable=0;points=[];" parent="mdWsZaoKRXeDNNDKq_2a-99" vertex="1" connectable="0">
          <mxGeometry x="-0.3305" y="-1" relative="1" as="geometry">
            <mxPoint as="offset" />
          </mxGeometry>
        </mxCell>
        <mxCell id="mdWsZaoKRXeDNNDKq_2a-106" value="" style="endArrow=none;html=1;rounded=0;entryX=0;entryY=0.75;entryDx=0;entryDy=0;exitX=1.008;exitY=0.959;exitDx=0;exitDy=0;exitPerimeter=0;" parent="1" source="mdWsZaoKRXeDNNDKq_2a-12" target="mdWsZaoKRXeDNNDKq_2a-22" edge="1">
          <mxGeometry width="50" height="50" relative="1" as="geometry">
            <mxPoint x="400" y="330" as="sourcePoint" />
            <mxPoint x="450" y="280" as="targetPoint" />
          </mxGeometry>
        </mxCell>
        <mxCell id="mdWsZaoKRXeDNNDKq_2a-107" value="&lt;font style=&quot;font-size: 8px;&quot;&gt;Engine&lt;/font&gt;" style="edgeLabel;html=1;align=center;verticalAlign=middle;resizable=0;points=[];" parent="mdWsZaoKRXeDNNDKq_2a-106" vertex="1" connectable="0">
          <mxGeometry x="0.2312" y="1" relative="1" as="geometry">
            <mxPoint x="-7" as="offset" />
          </mxGeometry>
        </mxCell>
        <mxCell id="mdWsZaoKRXeDNNDKq_2a-108" value="" style="endArrow=none;html=1;rounded=0;entryX=0;entryY=0.25;entryDx=0;entryDy=0;" parent="1" target="mdWsZaoKRXeDNNDKq_2a-22" edge="1">
          <mxGeometry width="50" height="50" relative="1" as="geometry">
            <mxPoint x="380" y="300" as="sourcePoint" />
            <mxPoint x="440" y="250" as="targetPoint" />
          </mxGeometry>
        </mxCell>
        <mxCell id="mdWsZaoKRXeDNNDKq_2a-109" value="&lt;font style=&quot;font-size: 8px;&quot;&gt;AIR&lt;/font&gt;" style="edgeLabel;html=1;align=center;verticalAlign=middle;resizable=0;points=[];" parent="mdWsZaoKRXeDNNDKq_2a-108" vertex="1" connectable="0">
          <mxGeometry x="0.1735" y="-1" relative="1" as="geometry">
            <mxPoint x="-5" as="offset" />
          </mxGeometry>
        </mxCell>
        <mxCell id="mdWsZaoKRXeDNNDKq_2a-110" value="" style="endArrow=none;html=1;rounded=0;entryX=0;entryY=0.75;entryDx=0;entryDy=0;exitX=0.995;exitY=0.584;exitDx=0;exitDy=0;exitPerimeter=0;" parent="1" source="mdWsZaoKRXeDNNDKq_2a-12" target="mdWsZaoKRXeDNNDKq_2a-39" edge="1">
          <mxGeometry width="50" height="50" relative="1" as="geometry">
            <mxPoint x="400" y="280" as="sourcePoint" />
            <mxPoint x="450" y="230" as="targetPoint" />
          </mxGeometry>
        </mxCell>
        <mxCell id="mdWsZaoKRXeDNNDKq_2a-111" value="&lt;font style=&quot;font-size: 8px;&quot;&gt;VCCEngine&lt;/font&gt;" style="edgeLabel;html=1;align=center;verticalAlign=middle;resizable=0;points=[];" parent="mdWsZaoKRXeDNNDKq_2a-110" vertex="1" connectable="0">
          <mxGeometry x="0.1026" relative="1" as="geometry">
            <mxPoint x="-3" as="offset" />
          </mxGeometry>
        </mxCell>
        <mxCell id="mdWsZaoKRXeDNNDKq_2a-112" value="" style="endArrow=none;html=1;rounded=0;entryX=0;entryY=0.25;entryDx=0;entryDy=0;exitX=0.995;exitY=0.423;exitDx=0;exitDy=0;exitPerimeter=0;" parent="1" source="mdWsZaoKRXeDNNDKq_2a-12" target="mdWsZaoKRXeDNNDKq_2a-39" edge="1">
          <mxGeometry width="50" height="50" relative="1" as="geometry">
            <mxPoint x="380" y="270" as="sourcePoint" />
            <mxPoint x="430" y="220" as="targetPoint" />
          </mxGeometry>
        </mxCell>
        <mxCell id="mdWsZaoKRXeDNNDKq_2a-113" value="&lt;font style=&quot;font-size: 8px;&quot;&gt;Safety&lt;/font&gt;" style="edgeLabel;html=1;align=center;verticalAlign=middle;resizable=0;points=[];" parent="mdWsZaoKRXeDNNDKq_2a-112" vertex="1" connectable="0">
          <mxGeometry x="0.1151" relative="1" as="geometry">
            <mxPoint x="-3" y="-1" as="offset" />
          </mxGeometry>
        </mxCell>
        <mxCell id="mdWsZaoKRXeDNNDKq_2a-116" value="" style="endArrow=none;html=1;rounded=0;entryX=0;entryY=0.5;entryDx=0;entryDy=0;exitX=0.997;exitY=0.132;exitDx=0;exitDy=0;exitPerimeter=0;" parent="1" source="mdWsZaoKRXeDNNDKq_2a-12" target="mdWsZaoKRXeDNNDKq_2a-38" edge="1">
          <mxGeometry width="50" height="50" relative="1" as="geometry">
            <mxPoint x="400" y="220" as="sourcePoint" />
            <mxPoint x="450" y="170" as="targetPoint" />
          </mxGeometry>
        </mxCell>
        <mxCell id="mdWsZaoKRXeDNNDKq_2a-117" value="&lt;font style=&quot;font-size: 8px;&quot;&gt;VCCAIR&lt;/font&gt;" style="edgeLabel;html=1;align=center;verticalAlign=middle;resizable=0;points=[];" parent="mdWsZaoKRXeDNNDKq_2a-116" vertex="1" connectable="0">
          <mxGeometry x="0.2266" y="-1" relative="1" as="geometry">
            <mxPoint x="-7" y="-1" as="offset" />
          </mxGeometry>
        </mxCell>
        <mxCell id="mdWsZaoKRXeDNNDKq_2a-118" value="" style="endArrow=none;html=1;rounded=0;exitX=0;exitY=0.5;exitDx=0;exitDy=0;entryX=1;entryY=0.5;entryDx=0;entryDy=0;" parent="1" source="mdWsZaoKRXeDNNDKq_2a-35" target="mdWsZaoKRXeDNNDKq_2a-53" edge="1">
          <mxGeometry width="50" height="50" relative="1" as="geometry">
            <mxPoint x="420" y="40" as="sourcePoint" />
            <mxPoint x="470" y="-10" as="targetPoint" />
          </mxGeometry>
        </mxCell>
        <mxCell id="mdWsZaoKRXeDNNDKq_2a-119" value="&lt;font style=&quot;font-size: 8px;&quot;&gt;GNDFan&lt;/font&gt;" style="edgeLabel;html=1;align=center;verticalAlign=middle;resizable=0;points=[];" parent="mdWsZaoKRXeDNNDKq_2a-118" vertex="1" connectable="0">
          <mxGeometry x="0.0663" y="3" relative="1" as="geometry">
            <mxPoint as="offset" />
          </mxGeometry>
        </mxCell>
        <mxCell id="mdWsZaoKRXeDNNDKq_2a-120" value="" style="endArrow=none;html=1;rounded=0;entryX=0.5;entryY=1;entryDx=0;entryDy=0;exitX=0.5;exitY=0;exitDx=0;exitDy=0;" parent="1" source="mdWsZaoKRXeDNNDKq_2a-53" target="mdWsZaoKRXeDNNDKq_2a-15" edge="1">
          <mxGeometry width="50" height="50" relative="1" as="geometry">
            <mxPoint x="480" y="60" as="sourcePoint" />
            <mxPoint x="530" y="10" as="targetPoint" />
          </mxGeometry>
        </mxCell>
        <mxCell id="mdWsZaoKRXeDNNDKq_2a-123" value="" style="endArrow=none;html=1;rounded=0;entryX=0.5;entryY=1;entryDx=0;entryDy=0;exitX=0.997;exitY=0.029;exitDx=0;exitDy=0;exitPerimeter=0;" parent="1" source="mdWsZaoKRXeDNNDKq_2a-1" target="mdWsZaoKRXeDNNDKq_2a-15" edge="1">
          <mxGeometry width="50" height="50" relative="1" as="geometry">
            <mxPoint x="410" y="80" as="sourcePoint" />
            <mxPoint x="460" y="30" as="targetPoint" />
            <Array as="points">
              <mxPoint x="320" y="80" />
            </Array>
          </mxGeometry>
        </mxCell>
        <mxCell id="mdWsZaoKRXeDNNDKq_2a-124" value="Analog" style="edgeLabel;html=1;align=center;verticalAlign=middle;resizable=0;points=[];" parent="mdWsZaoKRXeDNNDKq_2a-123" vertex="1" connectable="0">
          <mxGeometry x="0.8023" y="-1" relative="1" as="geometry">
            <mxPoint x="-1" y="3" as="offset" />
          </mxGeometry>
        </mxCell>
        <mxCell id="mdWsZaoKRXeDNNDKq_2a-125" value="" style="endArrow=none;html=1;rounded=0;exitX=0;exitY=0.5;exitDx=0;exitDy=0;entryX=1.002;entryY=0.515;entryDx=0;entryDy=0;entryPerimeter=0;" parent="1" source="mdWsZaoKRXeDNNDKq_2a-12" target="mdWsZaoKRXeDNNDKq_2a-1" edge="1">
          <mxGeometry width="50" height="50" relative="1" as="geometry">
            <mxPoint x="250" y="250" as="sourcePoint" />
            <mxPoint x="300" y="200" as="targetPoint" />
          </mxGeometry>
        </mxCell>
        <mxCell id="mdWsZaoKRXeDNNDKq_2a-126" value="&lt;font style=&quot;font-size: 6px;&quot;&gt;SafetyTemp&lt;/font&gt;" style="edgeLabel;html=1;align=center;verticalAlign=middle;resizable=0;points=[];" parent="mdWsZaoKRXeDNNDKq_2a-125" vertex="1" connectable="0">
          <mxGeometry x="0.1086" y="1" relative="1" as="geometry">
            <mxPoint as="offset" />
          </mxGeometry>
        </mxCell>
        <mxCell id="mdWsZaoKRXeDNNDKq_2a-127" value="" style="endArrow=none;html=1;rounded=0;exitX=0.25;exitY=0;exitDx=0;exitDy=0;entryX=0.304;entryY=1.001;entryDx=0;entryDy=0;entryPerimeter=0;" parent="1" source="mdWsZaoKRXeDNNDKq_2a-3" target="mdWsZaoKRXeDNNDKq_2a-1" edge="1">
          <mxGeometry width="50" height="50" relative="1" as="geometry">
            <mxPoint x="-100" y="490" as="sourcePoint" />
            <mxPoint x="-50" y="440" as="targetPoint" />
          </mxGeometry>
        </mxCell>
        <mxCell id="mdWsZaoKRXeDNNDKq_2a-129" value="&lt;font style=&quot;font-size: 8px;&quot;&gt;CANRX&lt;/font&gt;" style="edgeLabel;html=1;align=center;verticalAlign=middle;resizable=0;points=[];" parent="mdWsZaoKRXeDNNDKq_2a-127" vertex="1" connectable="0">
          <mxGeometry x="0.2395" relative="1" as="geometry">
            <mxPoint as="offset" />
          </mxGeometry>
        </mxCell>
        <mxCell id="mdWsZaoKRXeDNNDKq_2a-128" value="" style="endArrow=none;html=1;rounded=0;exitX=0.75;exitY=0;exitDx=0;exitDy=0;entryX=0.413;entryY=1.001;entryDx=0;entryDy=0;entryPerimeter=0;" parent="1" source="mdWsZaoKRXeDNNDKq_2a-3" target="mdWsZaoKRXeDNNDKq_2a-1" edge="1">
          <mxGeometry width="50" height="50" relative="1" as="geometry">
            <mxPoint x="-30" y="450" as="sourcePoint" />
            <mxPoint x="-60" y="440" as="targetPoint" />
          </mxGeometry>
        </mxCell>
        <mxCell id="mdWsZaoKRXeDNNDKq_2a-130" value="&lt;font style=&quot;font-size: 8px;&quot;&gt;CANTX&lt;/font&gt;" style="edgeLabel;html=1;align=center;verticalAlign=middle;resizable=0;points=[];" parent="mdWsZaoKRXeDNNDKq_2a-128" vertex="1" connectable="0">
          <mxGeometry x="0.26" y="-1" relative="1" as="geometry">
            <mxPoint as="offset" />
          </mxGeometry>
        </mxCell>
        <mxCell id="mdWsZaoKRXeDNNDKq_2a-131" value="" style="endArrow=none;html=1;rounded=0;entryX=0.25;entryY=1;entryDx=0;entryDy=0;" parent="1" target="mdWsZaoKRXeDNNDKq_2a-6" edge="1">
          <mxGeometry width="50" height="50" relative="1" as="geometry">
            <mxPoint x="-196" y="70" as="sourcePoint" />
            <mxPoint x="-165.00000000000045" y="42.75" as="targetPoint" />
          </mxGeometry>
        </mxCell>
        <mxCell id="mdWsZaoKRXeDNNDKq_2a-134" value="&lt;span style=&quot;font-size: 8px;&quot;&gt;SDA&lt;/span&gt;" style="edgeLabel;html=1;align=center;verticalAlign=middle;resizable=0;points=[];" parent="mdWsZaoKRXeDNNDKq_2a-131" vertex="1" connectable="0">
          <mxGeometry x="0.2407" relative="1" as="geometry">
            <mxPoint as="offset" />
          </mxGeometry>
        </mxCell>
        <mxCell id="mdWsZaoKRXeDNNDKq_2a-133" value="" style="endArrow=none;html=1;rounded=0;entryX=0.75;entryY=1;entryDx=0;entryDy=0;exitX=0.255;exitY=-0.001;exitDx=0;exitDy=0;exitPerimeter=0;" parent="1" source="mdWsZaoKRXeDNNDKq_2a-1" target="mdWsZaoKRXeDNNDKq_2a-6" edge="1">
          <mxGeometry width="50" height="50" relative="1" as="geometry">
            <mxPoint x="-40" as="sourcePoint" />
            <mxPoint x="-114.99999999999955" y="42.75" as="targetPoint" />
          </mxGeometry>
        </mxCell>
        <mxCell id="mdWsZaoKRXeDNNDKq_2a-135" value="&lt;font style=&quot;font-size: 8px;&quot;&gt;SCL&lt;/font&gt;" style="edgeLabel;html=1;align=center;verticalAlign=middle;resizable=0;points=[];" parent="mdWsZaoKRXeDNNDKq_2a-133" vertex="1" connectable="0">
          <mxGeometry x="0.1503" relative="1" as="geometry">
            <mxPoint x="-2" y="5" as="offset" />
          </mxGeometry>
        </mxCell>
        <mxCell id="mdWsZaoKRXeDNNDKq_2a-136" value="" style="endArrow=none;html=1;rounded=0;entryX=0.25;entryY=1;entryDx=0;entryDy=0;exitX=0.442;exitY=0;exitDx=0;exitDy=0;exitPerimeter=0;" parent="1" source="mdWsZaoKRXeDNNDKq_2a-1" target="mdWsZaoKRXeDNNDKq_2a-7" edge="1">
          <mxGeometry width="50" height="50" relative="1" as="geometry">
            <mxPoint x="-50" y="60" as="sourcePoint" />
            <mxPoint x="250" y="-80" as="targetPoint" />
          </mxGeometry>
        </mxCell>
        <mxCell id="mdWsZaoKRXeDNNDKq_2a-138" value="&lt;font style=&quot;font-size: 8px;&quot;&gt;SDA&lt;/font&gt;" style="edgeLabel;html=1;align=center;verticalAlign=middle;resizable=0;points=[];" parent="mdWsZaoKRXeDNNDKq_2a-136" vertex="1" connectable="0">
          <mxGeometry x="0.2888" y="-1" relative="1" as="geometry">
            <mxPoint as="offset" />
          </mxGeometry>
        </mxCell>
        <mxCell id="mdWsZaoKRXeDNNDKq_2a-137" value="" style="endArrow=none;html=1;rounded=0;entryX=0.75;entryY=1;entryDx=0;entryDy=0;exitX=0.599;exitY=0.001;exitDx=0;exitDy=0;exitPerimeter=0;" parent="1" source="mdWsZaoKRXeDNNDKq_2a-1" target="mdWsZaoKRXeDNNDKq_2a-7" edge="1">
          <mxGeometry width="50" height="50" relative="1" as="geometry">
            <mxPoint x="200" y="-30" as="sourcePoint" />
            <mxPoint x="250" y="-80" as="targetPoint" />
          </mxGeometry>
        </mxCell>
        <mxCell id="mdWsZaoKRXeDNNDKq_2a-139" value="&lt;font style=&quot;font-size: 8px;&quot;&gt;SCL&lt;/font&gt;" style="edgeLabel;html=1;align=center;verticalAlign=middle;resizable=0;points=[];" parent="mdWsZaoKRXeDNNDKq_2a-137" vertex="1" connectable="0">
          <mxGeometry x="0.3346" y="-2" relative="1" as="geometry">
            <mxPoint as="offset" />
          </mxGeometry>
        </mxCell>
        <mxCell id="mdWsZaoKRXeDNNDKq_2a-140" value="Dashboard Display" style="rounded=1;whiteSpace=wrap;html=1;" parent="1" vertex="1">
          <mxGeometry x="70" y="-250" width="130" height="120" as="geometry" />
        </mxCell>
        <mxCell id="mdWsZaoKRXeDNNDKq_2a-141" value="CAN Tranciever&lt;div&gt;(Sn65hvd230)&lt;/div&gt;" style="rounded=0;whiteSpace=wrap;html=1;" parent="1" vertex="1">
          <mxGeometry x="72.5" y="-14" width="131.25" height="44" as="geometry" />
        </mxCell>
        <mxCell id="mdWsZaoKRXeDNNDKq_2a-142" value="" style="endArrow=none;html=1;rounded=0;entryX=0.25;entryY=1;entryDx=0;entryDy=0;exitX=0.25;exitY=0;exitDx=0;exitDy=0;strokeColor=#00CC00;strokeWidth=2;" parent="1" source="mdWsZaoKRXeDNNDKq_2a-141" target="mdWsZaoKRXeDNNDKq_2a-140" edge="1">
          <mxGeometry width="50" height="50" relative="1" as="geometry">
            <mxPoint x="220" y="-30" as="sourcePoint" />
            <mxPoint x="270" y="-80" as="targetPoint" />
          </mxGeometry>
        </mxCell>
        <mxCell id="mdWsZaoKRXeDNNDKq_2a-144" value="&lt;font style=&quot;font-size: 8px;&quot;&gt;CANH&lt;/font&gt;" style="edgeLabel;html=1;align=center;verticalAlign=middle;resizable=0;points=[];" parent="mdWsZaoKRXeDNNDKq_2a-142" vertex="1" connectable="0">
          <mxGeometry x="0.1052" y="1" relative="1" as="geometry">
            <mxPoint x="-13" y="18" as="offset" />
          </mxGeometry>
        </mxCell>
        <mxCell id="mdWsZaoKRXeDNNDKq_2a-143" value="" style="endArrow=none;html=1;rounded=0;entryX=0.75;entryY=1;entryDx=0;entryDy=0;exitX=0.743;exitY=0.011;exitDx=0;exitDy=0;exitPerimeter=0;strokeWidth=2;" parent="1" source="mdWsZaoKRXeDNNDKq_2a-141" target="mdWsZaoKRXeDNNDKq_2a-140" edge="1">
          <mxGeometry width="50" height="50" relative="1" as="geometry">
            <mxPoint x="220" y="-30" as="sourcePoint" />
            <mxPoint x="270" y="-80" as="targetPoint" />
          </mxGeometry>
        </mxCell>
        <mxCell id="mdWsZaoKRXeDNNDKq_2a-145" value="&lt;font style=&quot;font-size: 8px;&quot;&gt;CANL&lt;/font&gt;" style="edgeLabel;html=1;align=center;verticalAlign=middle;resizable=0;points=[];" parent="mdWsZaoKRXeDNNDKq_2a-143" vertex="1" connectable="0">
          <mxGeometry x="0.0644" relative="1" as="geometry">
            <mxPoint x="-9" y="15" as="offset" />
          </mxGeometry>
        </mxCell>
        <mxCell id="mdWsZaoKRXeDNNDKq_2a-146" value="" style="endArrow=none;html=1;rounded=0;entryX=0.21;entryY=1;entryDx=0;entryDy=0;entryPerimeter=0;exitX=0.773;exitY=0.001;exitDx=0;exitDy=0;exitPerimeter=0;" parent="1" source="mdWsZaoKRXeDNNDKq_2a-1" target="mdWsZaoKRXeDNNDKq_2a-141" edge="1">
          <mxGeometry width="50" height="50" relative="1" as="geometry">
            <mxPoint x="210" y="50" as="sourcePoint" />
            <mxPoint x="100" y="40" as="targetPoint" />
          </mxGeometry>
        </mxCell>
        <mxCell id="mdWsZaoKRXeDNNDKq_2a-148" value="&lt;font style=&quot;font-size: 8px;&quot;&gt;CANRX&lt;/font&gt;" style="edgeLabel;html=1;align=center;verticalAlign=middle;resizable=0;points=[];" parent="mdWsZaoKRXeDNNDKq_2a-146" vertex="1" connectable="0">
          <mxGeometry x="0.281" relative="1" as="geometry">
            <mxPoint as="offset" />
          </mxGeometry>
        </mxCell>
        <mxCell id="mdWsZaoKRXeDNNDKq_2a-147" value="" style="endArrow=none;html=1;rounded=0;entryX=0.75;entryY=1;entryDx=0;entryDy=0;exitX=0.935;exitY=-0.001;exitDx=0;exitDy=0;exitPerimeter=0;" parent="1" source="mdWsZaoKRXeDNNDKq_2a-1" target="mdWsZaoKRXeDNNDKq_2a-141" edge="1">
          <mxGeometry width="50" height="50" relative="1" as="geometry">
            <mxPoint x="200" y="70" as="sourcePoint" />
            <mxPoint x="250" y="20" as="targetPoint" />
          </mxGeometry>
        </mxCell>
        <mxCell id="mdWsZaoKRXeDNNDKq_2a-149" value="&lt;font style=&quot;font-size: 8px;&quot;&gt;CANTX&lt;/font&gt;" style="edgeLabel;html=1;align=center;verticalAlign=middle;resizable=0;points=[];" parent="mdWsZaoKRXeDNNDKq_2a-147" vertex="1" connectable="0">
          <mxGeometry x="0.2214" y="1" relative="1" as="geometry">
            <mxPoint as="offset" />
          </mxGeometry>
        </mxCell>
        <mxCell id="mdWsZaoKRXeDNNDKq_2a-150" value="" style="endArrow=none;html=1;rounded=0;exitX=1;exitY=0.25;exitDx=0;exitDy=0;entryX=0.001;entryY=0.419;entryDx=0;entryDy=0;entryPerimeter=0;" parent="1" source="mdWsZaoKRXeDNNDKq_2a-23" target="mdWsZaoKRXeDNNDKq_2a-1" edge="1">
          <mxGeometry width="50" height="50" relative="1" as="geometry">
            <mxPoint x="-380" y="120" as="sourcePoint" />
            <mxPoint x="-330" y="70" as="targetPoint" />
          </mxGeometry>
        </mxCell>
        <mxCell id="mdWsZaoKRXeDNNDKq_2a-152" value="SDA" style="edgeLabel;html=1;align=center;verticalAlign=middle;resizable=0;points=[];" parent="mdWsZaoKRXeDNNDKq_2a-150" vertex="1" connectable="0">
          <mxGeometry x="0.2855" relative="1" as="geometry">
            <mxPoint x="1173" y="435" as="offset" />
          </mxGeometry>
        </mxCell>
        <mxCell id="09jZu6Pr4xPp3Dn8LkD7-1" value="SDA" style="edgeLabel;html=1;align=center;verticalAlign=middle;resizable=0;points=[];" vertex="1" connectable="0" parent="mdWsZaoKRXeDNNDKq_2a-150">
          <mxGeometry x="0.2855" relative="1" as="geometry">
            <mxPoint x="1522" y="555" as="offset" />
          </mxGeometry>
        </mxCell>
        <mxCell id="09jZu6Pr4xPp3Dn8LkD7-2" value="RX" style="edgeLabel;html=1;align=center;verticalAlign=middle;resizable=0;points=[];" vertex="1" connectable="0" parent="mdWsZaoKRXeDNNDKq_2a-150">
          <mxGeometry x="0.1707" y="-4" relative="1" as="geometry">
            <mxPoint x="1" as="offset" />
          </mxGeometry>
        </mxCell>
        <mxCell id="mdWsZaoKRXeDNNDKq_2a-151" value="" style="endArrow=none;html=1;rounded=0;exitX=1;exitY=0.75;exitDx=0;exitDy=0;entryX=0;entryY=0.609;entryDx=0;entryDy=0;entryPerimeter=0;" parent="1" source="mdWsZaoKRXeDNNDKq_2a-23" target="mdWsZaoKRXeDNNDKq_2a-1" edge="1">
          <mxGeometry width="50" height="50" relative="1" as="geometry">
            <mxPoint x="-380" y="50" as="sourcePoint" />
            <mxPoint x="-330" as="targetPoint" />
          </mxGeometry>
        </mxCell>
        <mxCell id="mdWsZaoKRXeDNNDKq_2a-153" value="TX" style="edgeLabel;html=1;align=center;verticalAlign=middle;resizable=0;points=[];" parent="mdWsZaoKRXeDNNDKq_2a-151" vertex="1" connectable="0">
          <mxGeometry x="0.2134" relative="1" as="geometry">
            <mxPoint as="offset" />
          </mxGeometry>
        </mxCell>
        <mxCell id="mdWsZaoKRXeDNNDKq_2a-154" value="" style="endArrow=none;html=1;rounded=0;exitX=0.5;exitY=0;exitDx=0;exitDy=0;entryX=0.124;entryY=1.005;entryDx=0;entryDy=0;entryPerimeter=0;" parent="1" source="mdWsZaoKRXeDNNDKq_2a-29" target="mdWsZaoKRXeDNNDKq_2a-23" edge="1">
          <mxGeometry width="50" height="50" relative="1" as="geometry">
            <mxPoint x="-620" y="390" as="sourcePoint" />
            <mxPoint x="-570" y="340" as="targetPoint" />
          </mxGeometry>
        </mxCell>
        <mxCell id="mdWsZaoKRXeDNNDKq_2a-155" value="" style="endArrow=none;html=1;rounded=0;exitX=0.5;exitY=0;exitDx=0;exitDy=0;entryX=0.5;entryY=1;entryDx=0;entryDy=0;" parent="1" source="mdWsZaoKRXeDNNDKq_2a-30" target="mdWsZaoKRXeDNNDKq_2a-23" edge="1">
          <mxGeometry width="50" height="50" relative="1" as="geometry">
            <mxPoint x="-470" y="380" as="sourcePoint" />
            <mxPoint x="-420" y="330" as="targetPoint" />
          </mxGeometry>
        </mxCell>
        <mxCell id="mdWsZaoKRXeDNNDKq_2a-156" value="" style="endArrow=none;html=1;rounded=0;exitX=0.5;exitY=0;exitDx=0;exitDy=0;" parent="1" source="mdWsZaoKRXeDNNDKq_2a-33" edge="1">
          <mxGeometry width="50" height="50" relative="1" as="geometry">
            <mxPoint x="-360" y="390" as="sourcePoint" />
            <mxPoint x="-395" y="332" as="targetPoint" />
          </mxGeometry>
        </mxCell>
        <mxCell id="mdWsZaoKRXeDNNDKq_2a-165" value="" style="endArrow=none;html=1;rounded=0;exitX=1;exitY=0.5;exitDx=0;exitDy=0;entryX=0;entryY=0.5;entryDx=0;entryDy=0;" parent="1" source="mdWsZaoKRXeDNNDKq_2a-25" target="mdWsZaoKRXeDNNDKq_2a-10" edge="1">
          <mxGeometry width="50" height="50" relative="1" as="geometry">
            <mxPoint x="-790" y="392.81" as="sourcePoint" />
            <mxPoint x="-740" y="342.81" as="targetPoint" />
          </mxGeometry>
        </mxCell>
        <mxCell id="mdWsZaoKRXeDNNDKq_2a-166" value="" style="endArrow=none;html=1;rounded=0;exitX=1;exitY=0.25;exitDx=0;exitDy=0;entryX=0;entryY=0.049;entryDx=0;entryDy=0;entryPerimeter=0;" parent="1" source="mdWsZaoKRXeDNNDKq_2a-11" target="mdWsZaoKRXeDNNDKq_2a-23" edge="1">
          <mxGeometry width="50" height="50" relative="1" as="geometry">
            <mxPoint x="-630" y="210" as="sourcePoint" />
            <mxPoint x="-610" y="190" as="targetPoint" />
          </mxGeometry>
        </mxCell>
        <mxCell id="mdWsZaoKRXeDNNDKq_2a-169" value="&lt;font style=&quot;font-size: 6px;&quot;&gt;CANRX&lt;/font&gt;" style="edgeLabel;html=1;align=center;verticalAlign=middle;resizable=0;points=[];" parent="mdWsZaoKRXeDNNDKq_2a-166" vertex="1" connectable="0">
          <mxGeometry x="0.0624" y="2" relative="1" as="geometry">
            <mxPoint as="offset" />
          </mxGeometry>
        </mxCell>
        <mxCell id="mdWsZaoKRXeDNNDKq_2a-168" value="" style="endArrow=none;html=1;rounded=0;exitX=1;exitY=0.75;exitDx=0;exitDy=0;entryX=0.002;entryY=0.296;entryDx=0;entryDy=0;entryPerimeter=0;" parent="1" source="mdWsZaoKRXeDNNDKq_2a-11" target="mdWsZaoKRXeDNNDKq_2a-23" edge="1">
          <mxGeometry width="50" height="50" relative="1" as="geometry">
            <mxPoint x="-650" y="130" as="sourcePoint" />
            <mxPoint x="-600" y="80" as="targetPoint" />
          </mxGeometry>
        </mxCell>
        <mxCell id="mdWsZaoKRXeDNNDKq_2a-170" value="&lt;font style=&quot;font-size: 6px;&quot;&gt;CANTX&lt;/font&gt;" style="edgeLabel;html=1;align=center;verticalAlign=middle;resizable=0;points=[];" parent="mdWsZaoKRXeDNNDKq_2a-168" vertex="1" connectable="0">
          <mxGeometry x="-0.0289" y="-2" relative="1" as="geometry">
            <mxPoint as="offset" />
          </mxGeometry>
        </mxCell>
        <mxCell id="mdWsZaoKRXeDNNDKq_2a-172" value="" style="endArrow=none;html=1;rounded=0;exitX=1;exitY=0.75;exitDx=0;exitDy=0;entryX=0.003;entryY=0.705;entryDx=0;entryDy=0;entryPerimeter=0;strokeWidth=2;" parent="1" source="mdWsZaoKRXeDNNDKq_2a-16" target="mdWsZaoKRXeDNNDKq_2a-11" edge="1">
          <mxGeometry width="50" height="50" relative="1" as="geometry">
            <mxPoint x="-770" y="180" as="sourcePoint" />
            <mxPoint x="-770" y="220" as="targetPoint" />
          </mxGeometry>
        </mxCell>
        <mxCell id="mdWsZaoKRXeDNNDKq_2a-174" value="&lt;font style=&quot;font-size: 6px;&quot;&gt;CANL&lt;/font&gt;" style="edgeLabel;html=1;align=center;verticalAlign=middle;resizable=0;points=[];" parent="mdWsZaoKRXeDNNDKq_2a-172" vertex="1" connectable="0">
          <mxGeometry x="-0.0159" y="1" relative="1" as="geometry">
            <mxPoint as="offset" />
          </mxGeometry>
        </mxCell>
        <mxCell id="mdWsZaoKRXeDNNDKq_2a-175" value="" style="endArrow=none;html=1;rounded=0;exitX=1;exitY=0.25;exitDx=0;exitDy=0;entryX=-0.002;entryY=0.279;entryDx=0;entryDy=0;entryPerimeter=0;strokeColor=#00CC00;strokeWidth=2;" parent="1" source="mdWsZaoKRXeDNNDKq_2a-16" target="mdWsZaoKRXeDNNDKq_2a-11" edge="1">
          <mxGeometry width="50" height="50" relative="1" as="geometry">
            <mxPoint x="-820" y="240" as="sourcePoint" />
            <mxPoint x="-770" y="190" as="targetPoint" />
          </mxGeometry>
        </mxCell>
        <mxCell id="mdWsZaoKRXeDNNDKq_2a-176" value="&lt;font style=&quot;font-size: 6px;&quot;&gt;CANH&lt;/font&gt;" style="edgeLabel;html=1;align=center;verticalAlign=middle;resizable=0;points=[];" parent="mdWsZaoKRXeDNNDKq_2a-175" vertex="1" connectable="0">
          <mxGeometry x="0.2796" y="-1" relative="1" as="geometry">
            <mxPoint x="-7" y="-2" as="offset" />
          </mxGeometry>
        </mxCell>
        <mxCell id="09jZu6Pr4xPp3Dn8LkD7-3" value="" style="endArrow=none;html=1;rounded=0;exitX=1;exitY=0.25;exitDx=0;exitDy=0;entryX=-0.001;entryY=0.611;entryDx=0;entryDy=0;entryPerimeter=0;" edge="1" parent="1" source="mdWsZaoKRXeDNNDKq_2a-10" target="mdWsZaoKRXeDNNDKq_2a-23">
          <mxGeometry width="50" height="50" relative="1" as="geometry">
            <mxPoint x="-650" y="310" as="sourcePoint" />
            <mxPoint x="-600" y="260" as="targetPoint" />
          </mxGeometry>
        </mxCell>
        <mxCell id="09jZu6Pr4xPp3Dn8LkD7-5" value="&lt;font style=&quot;font-size: 8px;&quot;&gt;SDA&lt;/font&gt;" style="edgeLabel;html=1;align=center;verticalAlign=middle;resizable=0;points=[];" vertex="1" connectable="0" parent="09jZu6Pr4xPp3Dn8LkD7-3">
          <mxGeometry x="0.3408" y="1" relative="1" as="geometry">
            <mxPoint x="-13" as="offset" />
          </mxGeometry>
        </mxCell>
        <mxCell id="09jZu6Pr4xPp3Dn8LkD7-4" value="" style="endArrow=none;html=1;rounded=0;exitX=1;exitY=0.75;exitDx=0;exitDy=0;entryX=-0.001;entryY=0.848;entryDx=0;entryDy=0;entryPerimeter=0;" edge="1" parent="1" source="mdWsZaoKRXeDNNDKq_2a-10" target="mdWsZaoKRXeDNNDKq_2a-23">
          <mxGeometry width="50" height="50" relative="1" as="geometry">
            <mxPoint x="-690" y="400" as="sourcePoint" />
            <mxPoint x="-640" y="350" as="targetPoint" />
          </mxGeometry>
        </mxCell>
        <mxCell id="09jZu6Pr4xPp3Dn8LkD7-6" value="&lt;font style=&quot;font-size: 8px;&quot;&gt;SCL&lt;/font&gt;" style="edgeLabel;html=1;align=center;verticalAlign=middle;resizable=0;points=[];" vertex="1" connectable="0" parent="09jZu6Pr4xPp3Dn8LkD7-4">
          <mxGeometry x="0.2476" relative="1" as="geometry">
            <mxPoint x="-10" as="offset" />
          </mxGeometry>
        </mxCell>
        <mxCell id="09jZu6Pr4xPp3Dn8LkD7-10" value="PDM" style="rounded=1;whiteSpace=wrap;html=1;" vertex="1" parent="1">
          <mxGeometry x="-790" y="-230" width="200" height="120" as="geometry" />
        </mxCell>
        <mxCell id="09jZu6Pr4xPp3Dn8LkD7-11" value="" style="endArrow=none;html=1;rounded=0;entryX=0.75;entryY=1;entryDx=0;entryDy=0;exitX=0.25;exitY=1;exitDx=0;exitDy=0;strokeColor=#FF0000;strokeWidth=2;" edge="1" parent="1" source="mdWsZaoKRXeDNNDKq_2a-8" target="09jZu6Pr4xPp3Dn8LkD7-10">
          <mxGeometry width="50" height="50" relative="1" as="geometry">
            <mxPoint x="-640" y="-20" as="sourcePoint" />
            <mxPoint x="-570" y="-50" as="targetPoint" />
            <Array as="points">
              <mxPoint x="-433" y="-10" />
              <mxPoint x="-640" y="-10" />
            </Array>
          </mxGeometry>
        </mxCell>
        <mxCell id="09jZu6Pr4xPp3Dn8LkD7-12" value="12V" style="edgeLabel;html=1;align=center;verticalAlign=middle;resizable=0;points=[];" vertex="1" connectable="0" parent="09jZu6Pr4xPp3Dn8LkD7-11">
          <mxGeometry x="-0.0658" relative="1" as="geometry">
            <mxPoint as="offset" />
          </mxGeometry>
        </mxCell>
        <mxCell id="09jZu6Pr4xPp3Dn8LkD7-13" value="" style="endArrow=none;html=1;rounded=0;exitX=0.5;exitY=1;exitDx=0;exitDy=0;entryX=0.5;entryY=1;entryDx=0;entryDy=0;strokeWidth=2;strokeColor=#FF0000;" edge="1" parent="1" source="09jZu6Pr4xPp3Dn8LkD7-10" target="mdWsZaoKRXeDNNDKq_2a-8">
          <mxGeometry width="50" height="50" relative="1" as="geometry">
            <mxPoint x="-520" y="-190" as="sourcePoint" />
            <mxPoint x="-470" y="-240" as="targetPoint" />
            <Array as="points">
              <mxPoint x="-690" y="20" />
              <mxPoint x="-391" y="20" />
            </Array>
          </mxGeometry>
        </mxCell>
        <mxCell id="09jZu6Pr4xPp3Dn8LkD7-17" value="" style="endArrow=none;html=1;rounded=0;entryX=0.25;entryY=1;entryDx=0;entryDy=0;exitX=0.352;exitY=0;exitDx=0;exitDy=0;exitPerimeter=0;strokeWidth=2;strokeColor=#FF0000;" edge="1" parent="1" source="09jZu6Pr4xPp3Dn8LkD7-7" target="09jZu6Pr4xPp3Dn8LkD7-10">
          <mxGeometry width="50" height="50" relative="1" as="geometry">
            <mxPoint x="-740" y="80" as="sourcePoint" />
            <mxPoint x="-720" y="-70" as="targetPoint" />
          </mxGeometry>
        </mxCell>
        <mxCell id="09jZu6Pr4xPp3Dn8LkD7-19" value="" style="endArrow=none;html=1;rounded=0;exitX=0.25;exitY=1;exitDx=0;exitDy=0;strokeColor=#FF0000;strokeWidth=2;" edge="1" parent="1" source="09jZu6Pr4xPp3Dn8LkD7-10">
          <mxGeometry width="50" height="50" relative="1" as="geometry">
            <mxPoint x="-950" y="-90" as="sourcePoint" />
            <mxPoint x="-271" y="50" as="targetPoint" />
            <Array as="points">
              <mxPoint x="-740" y="50" />
            </Array>
          </mxGeometry>
        </mxCell>
        <mxCell id="09jZu6Pr4xPp3Dn8LkD7-20" value="3.3V" style="edgeLabel;html=1;align=center;verticalAlign=middle;resizable=0;points=[];" vertex="1" connectable="0" parent="09jZu6Pr4xPp3Dn8LkD7-19">
          <mxGeometry x="0.3203" y="1" relative="1" as="geometry">
            <mxPoint x="-255" y="-63" as="offset" />
          </mxGeometry>
        </mxCell>
        <mxCell id="09jZu6Pr4xPp3Dn8LkD7-21" value="" style="endArrow=none;html=1;rounded=0;entryX=0;entryY=0.5;entryDx=0;entryDy=0;exitX=0.5;exitY=1;exitDx=0;exitDy=0;strokeColor=#FF0000;strokeWidth=2;" edge="1" parent="1" source="09jZu6Pr4xPp3Dn8LkD7-10" target="mdWsZaoKRXeDNNDKq_2a-6">
          <mxGeometry width="50" height="50" relative="1" as="geometry">
            <mxPoint x="-380" y="20" as="sourcePoint" />
            <mxPoint x="-250" y="-100" as="targetPoint" />
            <Array as="points">
              <mxPoint x="-690" y="20" />
              <mxPoint x="-390" y="20" />
              <mxPoint x="-390" y="-70" />
              <mxPoint x="-270" y="-70" />
              <mxPoint x="-270" y="-190" />
            </Array>
          </mxGeometry>
        </mxCell>
        <mxCell id="09jZu6Pr4xPp3Dn8LkD7-23" value="" style="endArrow=none;html=1;rounded=0;entryX=0.52;entryY=0.005;entryDx=0;entryDy=0;entryPerimeter=0;exitX=0.5;exitY=1;exitDx=0;exitDy=0;strokeColor=#FF0000;strokeWidth=2;" edge="1" parent="1" source="09jZu6Pr4xPp3Dn8LkD7-10" target="mdWsZaoKRXeDNNDKq_2a-7">
          <mxGeometry width="50" height="50" relative="1" as="geometry">
            <mxPoint x="-710" y="20" as="sourcePoint" />
            <mxPoint y="-260" as="targetPoint" />
            <Array as="points">
              <mxPoint x="-690" y="20" />
              <mxPoint x="-390" y="20" />
              <mxPoint x="-390" y="-70" />
              <mxPoint x="-270" y="-70" />
              <mxPoint x="-270" y="-270" />
              <mxPoint x="-8" y="-270" />
            </Array>
          </mxGeometry>
        </mxCell>
        <mxCell id="09jZu6Pr4xPp3Dn8LkD7-25" value="5V" style="edgeLabel;html=1;align=center;verticalAlign=middle;resizable=0;points=[];" vertex="1" connectable="0" parent="09jZu6Pr4xPp3Dn8LkD7-23">
          <mxGeometry x="-0.4963" relative="1" as="geometry">
            <mxPoint as="offset" />
          </mxGeometry>
        </mxCell>
      </root>
    </mxGraphModel>
  </diagram>
</mxfile>
